<?xml version="1.0" standalone="no"?>
<!DOCTYPE svg PUBLIC "-//W3C//DTD SVG 1.1//EN" "http://www.w3.org/Graphics/SVG/1.1/DTD/svg11.dtd" >
<svg xmlns="http://www.w3.org/2000/svg" xmlns:xlink="http://www.w3.org/1999/xlink" version="1.1">
<metadata></metadata>
<defs>
<font id="mountains_of_christmasregular" horiz-adv-x="786" >
<font-face units-per-em="2048" ascent="1638" descent="-410" />
<missing-glyph horiz-adv-x="474" />
<glyph horiz-adv-x="0" />
<glyph unicode="&#xd;" horiz-adv-x="682" />
<glyph unicode=" "  horiz-adv-x="474" />
<glyph unicode="&#x09;" horiz-adv-x="474" />
<glyph unicode="&#xa0;" horiz-adv-x="474" />
<glyph unicode="!" horiz-adv-x="446" d="M284 864l-12 -222l2 -64q0 -42 -14 -42q-6 0 0 -4q-8 -14 -17 -36t-23 -22q-26 0 -42 42q-14 24 -14 90v82l-4 66l4 84l-4 40l8 24l-4 24l2 70q0 144 -11 214t-11 93t9 44t11 31q2 14 12 14q6 -4 8 4t6 8q26 0 39 -12t24 -23t15 -13q2 -2 8 -18l8 -4q2 -4 1 -10t3 -10 l8 -4q8 -20 8 -36l-14 -98l6 -98v-92t-6 -77t-6 -45zM292 48q-24 -10 -36 -13t-19 -9t-17 -10q-54 12 -46 64q-12 6 -25 10t-23 12v60q10 12 16 26t14 22t15 8t11 3t6 7t6 6l28 4q20 4 28 4q28 0 40 -27t12 -41t5 -18t5 -33t-20 -75z" />
<glyph unicode="&#x22;" horiz-adv-x="576" d="M410 1430q70 -10 70 -62l-8 -64l4 -18l-10 -34l6 -28q0 -12 -2 -24l-4 -24q-4 -4 -2 -8t2 -7t-5 -22t-12 -42t-12 -42t-7 -21q-20 -8 -31 -18t-33 -10h-8q-16 20 -16 42l6 72q0 10 5 15t5 9l-6 12l14 28q2 18 2 48q0 140 10 161t20 24t12 13zM218 1232l10 -76 q-6 -18 -6 -32l6 -56q0 -32 -34 -48q-28 -20 -36 -22q-4 6 -15 14t-15 18t-2 21t2 21l-4 36l4 22l-8 34l4 18l-12 82l4 20q0 12 -7 23t-7 25v28q0 32 14 51t32 19t25 -14t25 -18q4 -12 7 -24t13 -22q-4 -6 -4 -20l8 -48l-4 -20q0 -6 4 -14z" />
<glyph unicode="#" horiz-adv-x="1228" d="M936 1110l-14 -82q0 -16 22 -16t30 8q6 -4 20 -4l38 4h34q96 0 96 -42q0 -14 -14 -24t-28 -10l-54 8l-40 -8l-14 4l-12 -4l-40 2q-68 0 -74 -22q-2 -10 -14 -14q2 -2 2 -10q0 -20 -10 -56t-18 -38v-10l-12 -92q-4 -22 -16 -40t-12 -42q6 -14 36 -14l110 10l58 -2 q22 0 41 9t37 9t31 -11t9 -25v-2q0 -6 -5 -6t-14 -4t-19 -14t-24 -16h-4q-12 0 -28 8q-10 -8 -23 -6t-27 2l-54 -10q-12 0 -16 6q-20 -8 -31 -14t-33 -2q-16 -6 -26 -13t-30 -3q-12 -6 -24 -31t-11 -30t1 -9v-2l-8 -10q-4 -22 -6 -42t-10 -49t-17 -44t-8 -22t1 -14t-3 -10 t-5 -9l-8 -44q-16 -26 -76 -26h-10q-6 12 -6 26t4 31t9 36t12 44t14 37t11 24t2 24t2 32t13 46t9 54q-4 6 -8 6l-16 -4l-32 8l-14 -4q-4 0 -6 3t-6 1l-60 -10q-2 2 -6 2l-24 -6q-6 -2 -13 -1t-11 1q-10 0 -48 -10t-42 -14q-2 -8 -2 -26t-6 -22q-12 -4 -12 -33t-9 -47t-8 -24 t1 -10q-30 -78 -38 -94q0 -10 -10 -8t-18 -3t-12 -12t-12 -17q-26 12 -26 36t13 59t21 59l6 22q2 4 1 9t-1 13t13 32t13 48v6q-20 24 -94 20h-30q-12 0 -18 8q-10 -2 -14 -11t-14 -9h-54q-14 14 -14 30t2 22q14 4 19 6t17 2l68 16q12 0 16 -2t44 6l34 -2q16 0 29 4t29 8 q22 42 35 103t13 75t8 30q28 48 28 92t-28 44l-38 -6q-4 0 -16 4q-20 -14 -42 -14l-20 4l-108 -14q-36 0 -54 18q-4 20 -4 32v10q22 18 44 18l34 -4q10 0 16 4t29 9t62 2t65 2t45 9t35 4q4 8 12 19t7 21t6 27t11 27l12 44q6 24 17 51t15 55q0 116 38 116q20 0 28 -21t8 -37 l-8 -42l4 -50q0 -28 -8 -34t-16 -22q-6 -22 -8 -42q-4 -40 -12 -48q-8 -4 -5 -11t3 -13t-7 -12t-5 -14v-2q12 -20 72 -20h136l52 -4q12 0 36 8q10 4 9 14t7 18t9 27t7 26t7 7t-1 3t-2 9t5 11t7 12t5 23l6 32t6 31t3 19t7 12t11 17t4 21t2 22q8 20 26 48t30 28t18 -6t14 -10 v-10l-4 -48q-16 -8 -19 -37t-17 -41v-14q0 -10 -5 -35t-7 -40t-5 -22t-5 -5t-2 -14zM590 606l100 -4h14l22 44q24 46 21 66t0 31t8 19t8 17t2 22t2 18t5 5t3 3t3 13t4 23t4 25t2 19t-6 23q-4 2 -14 2l-42 -6q-18 10 -66 10t-81 -3t-67 1q-8 -6 -10 -15t-5 -19t-8 -15t-8 -15 t-1 -20t2 -23t-8 -20t-14 -35q-12 -24 -10 -37t-1 -22t-5 -11q-2 -6 -2 -10v-14q0 -12 -11 -31t-11 -30t2 -15l36 -2z" />
<glyph unicode="$" horiz-adv-x="770" d="M450 850l-6 -42q0 -26 32 -48q4 -4 8 -4t8 -4t4 -8t4 -9t12 -10t16 -11l4 -6h8q80 -64 106 -114q4 -6 4 -14t10 -24q12 -12 20 -40t8 -34l-4 -22l4 -20q0 -6 -7 -22t-19 -50q-16 -46 -28 -52q-12 -2 -12 -13t-13 -17t-24 -15t-18 -16t-22 -13t-21 -18t-16 -16h-22 q-10 0 -18 -4q-2 -8 -2 -16v-18q0 -20 -6 -28q2 -4 6 -5t4 -5l-6 -106q-16 -8 -28 -17t-34 -9q-22 16 -22 56l4 82q0 22 -6 38q-42 8 -82 20t-82 12q-10 12 -21 29t-25 23v10q0 18 -16 42l-24 40q-32 56 -32 128q0 22 38 22q12 0 28 -6q-6 -42 -6 -66t16 -36v-8l14 -38 q0 -14 20 -36t26 -42q26 -6 52 -15t42 -9h24q22 0 22 18l10 58l-8 32l4 12l-8 14l12 100l-4 28l8 116q0 56 -12 50q-4 -2 -8 2t-3 8t-3 8t-8 4q-14 0 -14 10t-20 16q-28 18 -51 47t-53 45v4q0 16 -11 23t-23 17q-2 6 -6 9t-2 13q-30 0 -52 110q-4 14 -6 20t-2 11t4 17l-2 42 q0 14 2 22q20 26 20 36t8 23t19 19t13 20q30 10 42 23t25 24t16 11t8 4t5 7t4 5l58 24v20q0 24 8 32q-2 10 -7 14t-5 20t4 30t8 30q8 6 24 6q36 0 36 -66l4 -2l-4 -10q0 -10 4 -32q12 -60 58 -74q10 -26 35 -40t39 -23t20 -23h4q12 2 18 -7t21 -13t25 -18t20 -26v-44 q0 -12 -4 -22q-30 -24 -51 -24t-20 24t-1 36v8q-6 10 -14 15t-16 12t-14 15q-16 24 -27 22t-17 10t-20 15t-20 13q-8 -16 -8 -28l8 -60q0 -20 5 -37t4 -28t-1 -21l4 -26l-8 -40l4 -28l-2 -24zM372 996l4 30q0 34 -6 34l4 10l-8 32l4 20q0 26 -10 54t-14 54h-8q-22 0 -32 -14 t-40 -10q-16 -12 -28 -27t-28 -25q-2 -16 -5 -29t-3 -29l14 -56v-2l8 -8q14 -32 24 -49t9 -20t2 -6t6 -3t7 -5t6 -11t6 -12l38 -36q10 -10 18 -20t22 -14q12 8 12 22l-4 34l4 56zM458 286q0 -24 8 -24q18 0 51 23t41 41l8 4q4 6 3 12t3 16t8 13t4 23t-5 38t-1 40 q-32 22 -34 54q-10 4 -16 13t-18 11q-4 32 -32 28h-6q-12 -12 -12 -52l-6 -54l4 -46l-4 -24l8 -56z" />
<glyph unicode="%" horiz-adv-x="1112" d="M174 738l-10 -10q-4 0 -6 2q-2 12 -13 14t-19 9t-13 17t-15 16q0 18 -15 45t-15 86t6 95q4 10 12 23t6 23t2 19t12 20t16 27t18 40t26 40h6q4 4 4 8t15 19t29 15q52 0 92 -46l66 8l22 -4l74 14l22 6q4 0 4 -4t8 4q12 4 27 3t30 4t19 9t24 4h6l12 8q10 2 18 1t21 3t27 12 t32 8q22 6 40 16t40 10q38 0 38 -46q0 -6 -3 -10t-5 -10t-1 -13t-3 -14t-6 -4t-2 -9t-4 -16l-6 -2q-4 -8 -8 -19t-8 -15t-6 -8l-16 -38q-16 -42 -32 -82t-24 -65t-13 -30t-10 -14t-6 -23t-8 -25t-15 -19q-16 -20 -14 -34t-26 -54q-2 -30 -16 -61t-20 -49t-10 -22t-6 -10 l2 -12q0 -6 -10 -10q-2 -6 -2 -12t-6 -17t-17 -30t-14 -28t-2 -14t1 -11v-2l-8 -10q-6 -32 -14 -40q-16 -16 -16 -31t-8 -27t-12 -20l-10 -30q-4 -8 -9 -15t-10 -18t-5 -27t-16 -26q-6 -26 -28 -52h-36q-6 -10 -12 -21t-22 -11t-29 14t-13 36t19 52t25 68t28 54v4q0 20 6 32 l14 28q4 8 4 15t9 24t15 51q10 4 13 18t13 22q4 10 4 23t3 21t6 12t12 22t19 49t24 61l8 8v8q0 8 33 74t33 92q12 8 14 21t10 25l8 4q2 6 1 11t13 33t43 78t55 102q-8 2 -26 2t-38 -12t-36 -18t-23 -4t-15 2t-20 -7t-23 -9t-18 -1t-16 1t-32 -11t-33 -20t-28 -14t-24 -23v-4 q0 -30 10 -65t10 -61l-4 -24q4 -4 4 -8q0 -6 -8 -34t-16 -36q2 -4 2 -16t-8 -28t-10 -32q-10 -6 -21 -11t-15 -19h-4q-16 2 -24 -7t-20 -19h-4q-16 2 -26 -10t-21 -12t-14 6t-17 2q-2 12 -16 22h-2zM1026 594l20 -66q0 -14 -5 -23t-8 -23t-1 -29t-3 -37t-23 -54t-22 -62 q-16 -8 -27 -24t-23 -32q-32 -42 -72 -42l-60 6q-12 0 -28 -4q-36 20 -58 26q-10 10 -15 22t-17 16q-28 80 -28 118t4 53l8 30t2 30t13 47t27 42l-4 6l8 44q8 8 19 27t26 29t26 18t14 13t8 9t11 4t21 9t30 8t25 5q26 -4 40 -12t28 -32q6 -4 10 -4t7 -3t8 -13t12 -23t12 -26 t12 -25t7 -16zM790 352q0 -90 44 -90t61 20t23 29t10 9v2q0 14 7 25t12 20t5 17t3 14t7 12q10 14 9 31t8 39t9 44l-10 28q0 10 6 16q-14 6 -15 22t-7 28q-2 14 -10 23t-12 21q-20 0 -32 9t-36 7q0 4 -4 4q-4 -10 -11 -15t-11 -11t-3 -14t-1 -12l-8 -4q-2 -4 -1 -7t1 -7 l-20 -36v-36q-16 -22 -14 -57t0 -57t-6 -39t-4 -35zM322 868l12 54q0 8 -4 12q0 6 4 14v8l-4 94q-26 52 -74 60h-4q-4 0 -16 -6q-16 -12 -20 -32q-12 -64 -12 -146t7 -94t10 -21t3 -18t8 -13q64 16 80 64q4 10 10 14v10z" />
<glyph unicode="&#x26;" horiz-adv-x="1398" d="M1228 752q-8 0 -12 -4l-6 -12q-4 -4 -14 -5t-21 -6t-24 -13t-25 -14q-28 -14 -63 -24t-59 -10l-32 2q-18 0 -26 -12h-10q-18 0 -27 -6t-23 -12h-12q-28 0 -40 -16q0 -14 6 -22q32 -36 30 -64q4 -6 11 -9t13 -7v-2q0 -6 6 -12t9 -11t2 -11t11 -18t12 -57t-20 -69v-38 q-14 -24 -34 -35t-24 -41q-20 -6 -48 -37t-32 -37h-6q-22 0 -29 -12t-21 -22q-18 0 -34 -9t-30 -9l-22 4q-8 0 -12 -6t-26 -6h-4l-8 -8h-2l-106 12l-26 -4l-122 22q-10 10 -22 15t-10 15q-24 0 -50 26t-40 32q0 10 -7 15t-5 17q-64 30 -86 118q-8 26 -12 36t-4 20t4 18 q-8 8 -8 20l8 44l-4 20q0 2 8 10l-4 28q0 16 3 29t5 26t1 28t3 27q4 20 40 74t54 68l12 6l4 10h6v8h8q4 4 4 6t7 7t15 7t12 14q36 12 46 28q26 2 44 32q-2 10 -10 16t-8 12v10l-10 34l4 12l-6 52q0 28 30 76q22 6 37 16t38 24t55 14t38 -14q8 8 18 8t25 -10t29 -16 q20 14 25 39t8 42t9 27l22 8q18 0 29 -13t11 -45t-8 -40t-10 -12v-16q0 -4 -8 -20t-8 -42l8 -34q0 -16 -13 -37t-33 -21t-24 20t-8 36q-16 22 -49 40t-61 18l-22 -2q0 -6 -1 -5t-14 1t-24 -15t-23 -31q8 -28 13 -52t15 -40q22 -32 86 -28q14 -10 33 -19t19 -31 q0 -32 -54 -32q-10 0 -14 5t-12 9h-10q-18 0 -28 8h-4q-6 0 -8 -5t-22 -8t-34 -17t-38 -16q-14 -18 -34 -24t-38 -16q-10 -16 -26 -32q-68 -68 -68 -112l4 -44l-4 -58l8 -40l-2 -24q0 -14 10 -24v-4l-4 -16q0 -12 21 -62t39 -65t22 -26t9 -17t14 -9t17 -9q6 -20 49 -44 t51 -24l22 2q28 0 57 -11t55 -11t51 8t49 4q18 12 38 16t40 18t36 34l16 24q10 10 19 16t31 43t30 71q-4 14 -8 26t-8 26t-11 26t-11 24q-46 56 -58 82q-18 0 -25 9t-19 19q-8 2 -34 2q-86 0 -122 -30q-10 -8 -31 -19t-27 -21l-4 -12l-10 -4q-8 -14 -9 -31t-15 -27l-24 -2 q-24 0 -25 10t-3 32q4 4 4 11t-6 8t-6 7t14 15t12 33q16 6 32 32q18 4 32 18t30 26q12 6 16 22h2q24 0 46 14t50 14l72 -8l14 4l34 -2q14 0 23 3t23 7l108 22q22 6 40 10q38 4 68 20q12 2 18 2h14q16 0 28 6t18 5t11 2t10 9t11 10q32 4 58 23t38 28t18 9l48 66v18 q0 38 -18 53t-27 21t-11 14q-16 14 -23 18t-42 4t-93 -22q-12 24 -12 35t12 22t26 18t29 13t23 14q22 -2 41 -6t39 -6q2 -10 12 -10q18 0 34 -23t48 -37q4 -12 14 -22t18 -20q4 -20 4 -41t-5 -29t-13 -24q-6 -4 -4 -9t-3 -15t-16 -27t-19 -33q-16 -10 -26 -20 q-28 -24 -38 -24t-10 -11t-8 -11z" />
<glyph unicode="'" horiz-adv-x="330" d="M216 1192l4 -26l-4 -28v-30q0 -16 -6 -41t-10 -43t-30 -18t-48 18q4 16 4 26l-4 54v32q0 94 -8 174l-4 2v2q4 14 4 18l-8 30q0 24 4 52l8 20l-4 20q0 10 5 17t7 17q14 12 36 12t38 -25t16 -49l-4 -20l8 -28l-4 -26v-160z" />
<glyph unicode="(" horiz-adv-x="572" d="M210 804l10 -148l-4 -14l8 -28q0 -4 -4 -8q22 -34 26 -81t22 -85q0 -26 10 -49t10 -37q18 -22 31 -64t29 -70q26 -60 60 -126q12 -10 26 -32t21 -28t13 -16l38 -50q10 -12 21 -22t13 -22v-6q0 -4 -12 -28t-18 -28q-30 -6 -44 -6t-28 6l-12 16t-18 8q-6 28 -34 38l2 4 q0 4 -8 7t-7 12t-2 14t-7 6t-15 11t-24 27t-33 29q-2 18 -14 35t-18 33q-2 2 -13 5t-11 18t-4 25l-8 4l-10 38q-6 12 -14 24t-12 21t-3 15t-5 10q-4 14 -9 27t-9 25l-8 8q-16 48 -16 74q0 42 -9 82t-13 48q0 44 -7 67t-7 31l2 22q0 6 -4 10l2 48v68q0 30 -2 66l-6 48l14 92 q2 6 4 11t5 15t2 26t3 29t10 22t11 23t9 33t14 35q4 14 13 26t18 32t20 46t22 42t19 22t18 21t26 32t26 28t17 19t16 11t17 11t15 14t16 11t19 15q24 16 45 34t52 18t31 -28t-38 -28l-30 -32h-6q-12 0 -29 -18t-17 -32q-2 -2 -4 -2l-14 2h-4q-28 -36 -55 -67t-39 -75 q-10 -8 -41 -77t-31 -93v-6q-24 -52 -24 -84l2 -58q0 -30 -8 -52q6 -30 6 -90z" />
<glyph unicode=")" horiz-adv-x="550" d="M338 754l4 50v26q-4 4 -4 12q4 4 4 9t-3 12t-5 17t-1 24t-3 26t-6 14q-2 6 -2 8v18q0 22 -11 50t-11 35t4 9q-44 52 -56 120q-8 10 -15 21t-17 21q-12 18 -20 38t-32 30q0 32 -13 45t-15 13q-10 0 -8 8t-3 15t-15 18t-48 58t-45 75t-10 35t-3 21t27 20t42 6t41 -21 t33 -30t7 -12t7 -12t17 -19t12 -28q14 -4 26 -36q34 -20 48 -48q4 -4 4 -9t19 -24t29 -41t10 -28t4 -13t13 -16t12 -17t2 -15t7 -23q14 -18 30 -76q10 -10 17 -23t17 -23q0 -26 9 -51t9 -42t-4 -35q24 -48 24 -171t-4 -158t-8 -49t-4 -30l4 -12q0 -8 -3 -13t-7 -16t-6 -37 q-8 -104 -36 -126q4 -8 4 -15t-6 -15q-18 -16 -18 -64q-20 -24 -24 -60q-14 -12 -43 -77t-51 -75q-4 -12 -8 -19t-4 -17q-22 -14 -29 -29t-33 -27q0 -16 -29 -39t-37 -23t-16 6t-18 10q-2 4 -2 21t28 43t44 40q0 14 13 40t19 33t10 10t8 10t5 18t5 18t10 14t10 24t14 47 t28 78t28 84q18 62 27 170t9 146z" />
<glyph unicode="*" horiz-adv-x="836" d="M478 1160l2 -24q20 2 30 19t26 31t35 25t37 27t35 33t41 23q8 24 44 24q8 0 12 -2q6 -10 6 -24t-14 -34q-10 -4 -20 -7t-20 -7q-14 -12 -22 -24t-24 -18q-4 -6 -6 -13t-6 -13q-18 -10 -37 -16t-27 -32q-32 -8 -46 -33t-40 -43l-8 -32q0 -16 22 -28t32 -38q18 0 74 -58 l64 -62q4 -6 6 -13t9 -20t24 -27t17 -38v-4l-18 -4q-2 0 -6 4q-8 -14 -20 -14t-28 16t-32 36t-30 41t-20 27t-9 7t-6 4t-2 6t-10 18t-37 29q-6 10 -11 20t-19 14q-10 -8 -9 -20t1 -24l-10 -36l6 -34l-6 -28l10 -28l-4 -18l6 -94v-18q0 -10 -2 -20q-14 -6 -26 -6l-22 2 q-4 14 -10 23t-6 25l10 38l-6 50v30q0 6 -3 30t-8 69t-11 63q-24 0 -32 -16t-18 -26t-26 -18t-24 -16v-8q-10 -10 -21 -11t-17 -27q-34 -18 -56 -49t-54 -55q-32 20 -32 34q0 24 30 44q24 22 32 42q8 0 12 6t8 10h8v6q32 22 40 36t24 20q8 6 13 14t13 14l28 18q12 12 23 25 t18 19t7 11t-16 13v8q-22 22 -36 22v18q-10 4 -21 13t-23 13q-4 8 -7 11t-3 13q-20 4 -29 22t-31 22q0 12 -9 16t-11 14q-10 2 -15 6t-15 6q-2 12 -26 29t-24 48t30 31q22 0 47 -23t39 -37l24 -24q8 -6 16 -10t18 -13t22 -22t26 -25l28 -20q10 -10 23 -29t29 -19q14 8 12 21 t-2 25l8 50l-4 32l8 54q-4 4 -4 8l4 62l-4 50l8 32l-4 28q0 10 12 24t22 14l4 -4q10 0 21 -17t13 -29q2 -36 2 -58v-20q0 -20 -6 -34q4 -10 4 -22v-20z" />
<glyph unicode="+" horiz-adv-x="1052" d="M812 690l84 16h2q4 -4 8 -4l70 12l20 -24q-4 -14 -14 -21t-20 -17l-42 8q-12 0 -22 -5t-21 -8t-25 -2t-30 -9v-2q-4 0 -4 2t-4 2l-14 -4l-28 4q-16 0 -96 -16q-12 0 -18 -14q-4 4 -18 4h-20q-4 0 -5 -3t-6 -6t-22 -5t-17 -14l8 -18l-10 -18l4 -20l-2 -30q0 -56 10 -83 t10 -41l-6 -68l6 -72q0 -20 -10 -24q-16 -6 -29 -11t-18 -5t-8 6t-7 6l-14 -2q-22 0 -22 50l6 86l-8 76l2 36l-12 52l4 48q0 24 -11 28t-21 16h-16q-32 6 -50 -12l-36 12l-36 -12h-2l-18 6q-14 0 -26 -6q-20 -4 -41 -2t-52 2t-61 -8q-4 12 -19 12t-19 12v2l-6 10q0 32 24 32 h48l32 4l34 -10q8 0 16 6l16 -6l8 6l12 -6q6 0 14 4q16 10 72 10l40 -4l22 8l18 -4q14 0 50 12q2 10 2 20v22l-2 98l8 126l-8 138q0 20 8 36q18 12 36 12q28 0 34 -64q4 -12 4 -22l6 -66q0 -16 -6 -22l6 -20q0 -6 -6 -6q12 -32 12 -62t-8 -50q4 -4 8 -20t4 -20l-8 -18l4 -26 l-4 -34v-8q14 -14 43 -14t61 9t54 9t28 3t17 5t23 1t30 -1z" />
<glyph unicode="," horiz-adv-x="414" d="M112 120q-26 0 -26 27t27 55t47 34t36 5t26 13h16q10 0 10 -2t4 -5t8 -2t8 -2t6 -9t8 -10q8 -12 13 -17t13 -35t8 -61t-22 -53q-4 -8 -3 -22t-9 -14l4 -18q0 -10 -13 -24t-17 -30q-10 -6 -18 -14l-16 -16q0 -18 -4 -28t-29 -27t-35 -17t-14 7t-12 9v20q0 12 9 18t13 10 q2 4 10 14t15 22t15 22q28 34 28 134q-8 4 -20 4t-20 -12q-16 8 -27 8t-19 -4q-18 2 -20 20z" />
<glyph unicode="-" d="M520 582l36 8q16 0 56 16q14 -8 24 -15t10 -25v-6q-10 -10 -19 -9t-19 -9h-6l-18 4l-12 -4l-6 4q-22 0 -39 -11t-26 -11t-35 4l-44 -12l-36 4l-44 -8q-12 0 -24 8q-8 -4 -17 -5t-13 -11q-4 0 -34 12q-28 -12 -114 -24q-6 6 -6 15t6 33q16 0 28 8t23 8t19 -6q18 24 158 24 q12 0 18 -6q8 0 15 5t17 4t18 -1z" />
<glyph unicode="." horiz-adv-x="390" d="M164 82l-10 -4q-28 0 -41 22t-13 40t2 24q4 8 23 44t35 40t20 10h14q26 -20 54 -28q4 -12 14 -18l22 -10q6 -16 6 -45t-34 -45v-8q-4 -4 -11 -7t-9 -9q-16 0 -33 -6t-33 -4h-4q-2 0 -2 2v2z" />
<glyph unicode="/" horiz-adv-x="596" d="M146 138q-56 0 -56 34q0 42 8 52t10 18l6 26q4 26 12 52t10 54q18 24 18 42q0 32 14 56t16 39t6 31q4 0 4 18t16 55t16 67v4l8 6q20 60 20 84v4l8 6q4 12 4 25t10 21q0 28 18 50v6q0 14 5 44t8 52t10 34t6 19t13 39t18 67t8 53t2 26q0 14 10 28t16 36q20 72 48 72 q22 0 34 -4q14 -20 14 -50t-7 -40t-11 -25t-3 -24t1 -25t-4 -21t-7 -15t-1 -17t2 -18t-5 -13t-5 -17t-4 -31t-10 -43t-11 -49t-7 -41t-6 -38t-11 -37t-8 -32t-5 -15t-8 -10t-3 -21t-3 -24q-14 -8 -18 -30t-15 -58t-21 -87t-35 -117t-47 -152t-32 -110t-11 -30t-4 -9t-6 -2 t-9 -4t-8 -8t-18 -3z" />
<glyph unicode="0" horiz-adv-x="780" d="M690 806l6 -40q0 -10 -5 -17t-9 -18t-3 -23t0 -22t-7 -14t-14 -35t-28 -41q-6 -4 -6 -16h-4q-16 0 -22 -12t-22 -12q-4 -4 -3 -12t-16 -16t-27 -24q-22 -2 -37 -10t-33 -16h-16l-58 -2q-16 0 -27 3t-24 1t-24 -2t-29 4t-27 12t-25 4q0 10 -7 8t-14 4t-19 23t-22 23 q-4 8 -4 22t-6 14t-10 4l-4 14l-12 28t-14 24l2 18q0 18 -5 23t-13 37t-8 76q0 90 78 184q6 20 12 20t15 10t16 21t19 19t14 13t6 3t12 8q12 6 22 9t18 11l14 -2l110 6q14 -10 27 -19t21 -23q22 -4 40 -19t30 -22t18 -9t21 -15t35 -44t42 -57l-2 -8q0 -20 16 -32 q-2 -4 -2 -9t14 -41v-14zM216 874l10 -76q0 -16 10 -29t6 -35q12 -22 16 -45t8 -45q24 -28 36 -55t38 -38t52 -9t37 2t11 -4l10 -2q18 0 31 7t29 15q24 28 50 51t50 51v6q-4 16 5 30t12 25t2 16t-1 9v4l8 4q2 4 2 14t-10 36l-4 56q-22 22 -36 50t-14 32h-6q-6 0 -6 4 q0 12 -16 12q-8 0 -12 4q2 10 -9 11t-7 15q-2 -2 -7 -2t-9 4q-8 12 -19 10t-40 12t-29 15t-2 1l-16 -10q-2 0 -4 6q-12 20 -51 20t-51 -6q-10 -26 -28 -32q-2 -30 -28 -44q-4 -22 -11 -44t-7 -46z" />
<glyph unicode="1" horiz-adv-x="684" d="M532 744l2 -40l-6 -38l4 -80v-100l-10 -164l4 -114l4 -42q0 -16 -2 -24q-24 -24 -20 -28q-16 -8 -26 -8h-4q-4 0 -7 -4t-7 -8q-12 -4 -27 -4t-35 8q-12 18 -12 44l4 46l-4 102q0 18 6 44t6 80l-4 160l4 50v204l-8 78l8 66v26q0 12 -4 24h-2q-12 0 -19 -9t-14 -13t-23 -14 t-33 -20t-31 -18t-16 -12q-28 0 -53 -12t-53 -12q-8 -4 -17 -6t-15 -8q-8 2 -46 2t-48 10l-2 20q0 16 21 23t31 7l32 -4q18 0 68 14q112 32 196 116l20 20q22 22 22 50q4 104 46 104q30 0 40 -29t13 -42t6 -21t3 -14l-8 -50l2 -54q0 -4 4 -28t4 -69t2 -91z" />
<glyph unicode="2" horiz-adv-x="822" d="M518 124h-26q-4 0 -8 6q-14 -10 -38 -16q-6 6 -16 6l-24 -2q-10 0 -16 6l-46 -18h-4q-6 -2 -24 8l-20 -8t-20 -4h-2l-4 -8q-20 -8 -66 -8l-24 4v6l-4 24q0 10 10 28l16 26q10 14 24 30q14 22 24 44t28 38q0 38 58 116l8 4q28 56 32 86q8 4 10 12t8 12v4q0 28 18 50t22 39 t3 27t-1 22t9 30t10 32t6 23t12 22t6 21t1 16q6 2 8 10q10 6 22 112t12 114l-4 36v60q0 68 -16 88l-8 4q-2 4 0 9t2 10t-8 15t-20 26t-30 34l-14 -2q-10 0 -21 5t-21 7q-2 8 -8 9t-2 15h-4q-12 0 -14 -11t-10 -17q-20 -6 -44 -13t-34 -27q-16 0 -30 -10t-14 -26v-2l-8 -4 q-4 -10 -7 -18t-8 -15t-13 -10t-6 -13q-6 -4 -20 -4q-2 -16 -12 -33t-10 -35l4 -16l-8 -46q0 -32 12 -58l-12 -40l12 -40q18 -10 33 -16t15 -28q14 4 38 24t34 20q6 20 6 52t-18 58q2 4 2 12l-2 30v6q22 16 37 16t41 -26v-8q0 -4 4 -8q12 -4 10 -12t-2 -14t5 -11t7 -13 t1 -17t-1 -19v-12q0 -2 -3 -2t-8 -7t-3 -14t-2 -11q-12 -6 -20 -17t-20 -15q-12 -16 -18 -30q-22 -10 -44 -17t-44 -15q-10 8 -18 18l-20 18q-6 -2 -22 -2t-30 6q-8 6 -8 24t-10 34q-4 16 -2 31t-1 26t-7 15q-4 10 -4 28v18q0 28 -12 36q18 36 14 50q12 8 20 29t8 27t-1 13 t11 33l4 22l8 4q4 10 12 16t14 12t8 13t5 11t6 4t6 4t2 8t2 7t7 1t8 2t2 6q-4 8 10 11t20 7l4 6h8l62 28h22l26 8q4 0 4 -2t4 -2h56l18 4q10 0 25 -12t39 -8q0 -8 6 -7t10 -1q2 -2 1 -3t3 -5q26 -12 46 -40l18 -26l14 -16q6 -10 6 -14t7 -12t7 -16t4 -14l8 -4q2 -6 1 -14 t2 -16t6 -11t3 -13l-2 -32l4 -40l-4 -28l4 -22l-8 -28l4 -20l-8 -32l2 -16q0 -12 -12 -36q0 -84 -38 -172q-12 -28 -26 -42q-6 -46 -20 -60v-26q0 -6 -11 -24t-15 -27t-4 -17t-5 -21t-21 -36t-14 -41q-10 -10 -16 -12v-2q0 -14 -14 -42t-17 -31t-5 -3t-8 -4q-6 -8 -8 -17 t-14 -11q-4 -36 -28 -52v-4q2 -16 -8 -23t-12 -21q-16 -12 -26 -26t-22 -26q8 -8 18 -8l38 8l24 -2q28 0 57 8t56 12t58 3t53 13q8 -4 49 -4t107 22q10 -12 18 -16t8 -19t-17 -27t-30 -12t-21 6q-20 -8 -44 -8l-48 4q-16 0 -29 -9t-33 -7t-30 -10z" />
<glyph unicode="3" d="M70 292l14 68q0 14 4 30l8 8q4 16 15 31t17 31q28 18 81 28t79 10t38 -6q18 -6 45 -41t27 -46t-3 -14t-7 -11v-4l-4 -18q-10 -2 -16 -8t-14 -12h-6q-12 -2 -21 6t-19 14v2q0 20 -9 33t-9 31h-4q-8 0 -8 4t-8 4t-26 -12l-6 2q-20 0 -32 -12q-2 2 -6 2l-26 -2 q-10 -8 -18 -18l-16 -20q-4 -12 -5 -29t-11 -27q4 -16 4 -26t-8 -30q2 -10 7 -14t10 -9t6 -12t11 -7v-10q0 -16 28 -41t48 -25v-4q0 -6 7 -6t5 -10q12 8 26 8l52 -6q18 0 32 8t32 10q16 18 33 33t27 37q38 66 56 138q8 16 8 22l-4 14l8 50q0 36 -5 67t-7 67q-6 18 -18 32v6 q0 40 -17 65t-17 35q-12 12 -18 30t-16 32h-8v8q-8 8 -17 9t-16 5t-9 7t-6 6t-8 3t-8 6v2l-28 -10q-14 0 -56 -36t-62 -48q-22 12 -22 33t5 26t13 16t9 20t5 13q20 28 56 49t53 48t43 35q4 12 12 18t12 13t3 9t3 6l18 14q0 4 6 18t9 17t6 2t7 1q2 4 1 6t3 5t7 5t8 6t4 6t1 6 l8 4q4 4 4 7t7 13t23 20q24 16 29 37t24 34t23 31q-10 12 -26 12l-70 -12q-12 0 -22 6t-24 4t-28 -2t-22 8q-18 -8 -42 -8t-30 10q-4 -4 -10 -4h-12q-52 0 -71 13t-19 23q0 16 24 17t30 1h118q12 4 22 4l24 -8l40 4l56 -4h80l62 12h26q16 -6 32 -34q-6 -12 -15 -16t-17 -10 l-12 -24t-13 -19t-14 -8t-12 -5t-8 -10t-13 -2q-4 -4 -4 -12t-14 -22t-32 -39t-46 -51t-44 -60q-10 -10 -22 -20t-19 -18t-7 -11t-6 -10t-13 -12t-11 -17q-22 -6 -30 -28q8 -14 26 -17t30 -7h2q6 2 7 -6t7 -8q10 -2 20 -2q22 -4 26 -13t12 -7t15 -3t12 -17t19 -14 q4 -16 14 -22t20 -16q6 -16 13 -35t21 -29q10 -60 22 -76t14 -21t1 -11t-1 -10l8 -24l-4 -24l4 -18l-4 -16l2 -20l-2 -20l4 -22q0 -14 -7 -25t-3 -29q-24 -22 -33 -54t-27 -58v-6q0 -28 -42 -62q-10 -8 -14 -20h-2q-10 4 -18 -14h-8l-22 -32q-4 0 -28 -10t-40 -26h-4 q-6 0 -8 -3t-10 -1q-4 -8 -14 -10t-12 -12h-46q-20 0 -40 10q-12 -6 -29 -6t-36 8t-41 10q-14 18 -20 35t-13 19t-13 6q0 22 -28 34v4q0 18 -11 35t-11 37v32z" />
<glyph unicode="4" horiz-adv-x="780" d="M564 636q0 -64 16 -208v-78q16 -4 36 -4t51 13t65 13l22 -22q0 -16 -11 -24t-15 -22q-74 -26 -132 -26q-10 -14 -10 -38l2 -84q0 -8 6 -10t6 -12l-8 -32l4 -12l-8 -58l4 -80l-6 -46q0 -8 2 -12q-12 -10 -15 -30t-13 -25t-29 -3t-33 -2q-12 8 -16 17t-14 15v4l4 20l-6 16 l2 74l6 112q0 14 -2 26l-4 24l2 26l-8 72q-8 6 -18 6t-18 6l-22 -12q-6 -4 -22 -12l-22 8q-12 0 -36 -24q-14 6 -22 6l-38 -6q-14 0 -22 10l-28 -18h-12q-24 0 -30 -12l-26 8q-4 0 -8 -6t-9 -4t-14 2t-28 -11t-37 -11q-26 0 -26 26q0 50 13 72t28 53t37 96t27 73t13 27 t20 53t22 51t14 22t8 12t4 15t3 15t8 21t14 43t15 29v34q6 12 16 23t14 27q4 4 3 10t1 12l20 36q4 10 5 21t11 19q0 24 17 89t19 71l8 4v8q14 32 21 70t31 60v6q0 20 12 45t34 25t33 -21t11 -46t-10 -59q-24 -68 -22 -83t-7 -26t-13 -23t-11 -66t-23 -70l2 -10q0 -8 -4 -15 t-8 -16t-6 -20t-5 -18t-6 -9t-8 -9t-6 -19t-11 -22q-4 -10 -4 -19t-8 -20t-4 -31q-8 -4 -10 -14t-10 -14q-2 -14 -3 -28t-6 -29t-14 -24t-5 -29q-14 -4 -15 -19t-17 -19l2 -4q0 -12 -5 -19t-3 -19q-10 -4 -12 -16t-12 -18q-4 -34 -15 -52t-14 -25t-1 -19t-2 -22l-8 -8 q-6 -20 -15 -38t-13 -42q6 -8 26 -8t42 8t40 12t31 2t24 3t21 9t24 8t40 5t33 12t7 19v18q0 48 2 98t-2 100q-4 8 -4 14l4 12l-6 70l10 58l-4 22v28q0 12 4 26l6 38l-6 56l8 28l-6 24l4 20q0 34 8 54q8 2 15 5t22 3t23 -18q22 -56 21 -62t-1 -12l10 -62l-4 -14l4 -36l-4 -54 l4 -32l-6 -40l2 -30z" />
<glyph unicode="5" horiz-adv-x="744" d="M182 62v12l-8 4q-6 26 -15 35t-14 18t-4 16t-7 17t-8 18l4 16l-4 20q0 16 12 37t16 37q12 12 22 21t16 21q26 6 50 13t50 7l18 -2q10 -10 14 -13t7 -6t11 -18t10 -18t2 -18t-30 -51q-30 0 -44 10v4q0 20 -23 20t-41 -12t-18 -26l2 -30q0 -12 -4 -18q10 -20 18 -40t20 -40 q22 -6 40 -15t54 -9t90 24q12 8 24 21t26 17q14 24 36 38q0 22 13 39t13 32t5 21t7 12t1 12t-1 14l4 28l-8 22l4 22l-10 30l4 18q0 16 -12 40l-8 4q-4 8 -2 17t-2 16t-8 13q-20 24 -24 38q-20 52 -53 73t-52 21t-29 -16h-8l-32 -16l-4 -8h-10q-6 0 -12 -12q-16 -12 -16 -20 t-13 -27t-17 -32t-4 -31t-2 -24q-12 -10 -19 -18t-23 -12q-10 -10 -22 -10q-20 0 -29 25t-9 47l8 34v6q-4 0 -4 2l4 16l-2 30q0 12 6 14q-8 14 -8 32l8 78l-4 76l4 18l-4 22l4 18l-4 54v44l-14 240q0 32 6 62q14 14 38 14t41 -5t39 -8t45 -2t51 1l22 -4l20 4l6 -4 q10 10 46 10h38l20 -6q6 0 12 4t18 7t30 1t38 2q2 -14 14 -17t12 -22t-10 -43q-22 -18 -53 -15t-57 3h-4l-6 -10q-4 -2 -9 -1t-9 1l-42 -12l-28 4l-52 -12l-56 10h-26q-10 0 -16 2q-14 -6 -14 -46v-8h2l2 -2l-4 -22l14 -100v-36l-2 -158v-42q0 -20 2 -42h10q22 0 43 12 t43 12h2l4 8q4 2 9 1t11 -1t8 2q4 8 24 8h18q40 0 102 -58q16 -14 32 -22q10 -26 30 -45t29 -34t11 -22t5 -12t6 -7t6 -6t2 -8t2 -9t9 -9q12 -12 11 -36t6 -39t7 -23t-3 -16t-6 -20t-1 -31t-2 -36t-10 -28t-10 -20t-4 -14t-3 -12t-12 -12t-13 -12t-4 -12t-7 -18t-26 -28 t-31 -35q-6 -2 -13 -3t-13 -5q-6 2 -5 -3t-3 -8t-8 -2t-12 -4t-13 -14t-15 -21q-20 -2 -37 -13t-33 -11h-22q-8 0 -14 -9t-52 -9t-78 20q-4 2 -6 5t-6 6t-8 2t-7 1t-4 9t-4 10t-7 5t-4 6z" />
<glyph unicode="6" horiz-adv-x="892" d="M268 360q0 -48 32 -48q20 0 24 13t12 25l6 4q12 26 46 51t43 36t20 11t18 3t11 5q20 12 31 9t18 4t19 7q16 0 65 -39t49 -50t3 -15t7 -5t7 -8t4 -20t5 -24t16 -36t12 -35l-4 -12l4 -36v-12q-4 0 -4 -4v-4q0 -8 -7 -9t-10 -10t-4 -17t-3 -20q-20 -4 -28 -19t-18 -31 q-18 0 -25 -10t-11 -26q-32 -6 -56 -34h-32l-40 8q-20 0 -36 -7t-32 -7l-44 2q-10 0 -12 6t-12 10q-2 4 -6 2t-8 -2t-8 4q-26 16 -55 53t-44 53t-18 25t-9 19l-16 18q-6 10 -14 28t-17 35l-18 34t-15 23l2 10q0 20 -12 46t-12 64l4 24l-10 84q0 42 12 92t16 59t4 16t3 13 t7 12q12 10 12 34t12 42t17 27t7 16t6 15l8 2q12 28 30 53t32 53q34 24 72 62q66 70 88 78t22 16t6 8t15 6t27 19t28 16t15 2t13 -1t22 8t28 8l24 -4h26q32 0 48 -13t38 -11q14 -10 34 -20t42 -22q52 -28 52 -58q0 -10 -11 -20t-23 -10t-18 12t-16 19t-12 5t-10 5t-15 5 t-16 2t-17 12t-18 12l-6 -2q-26 0 -43 10t-25 10t-16 -4l-18 2q-16 0 -24 -14l-10 2q-12 0 -24 -4t-26 0q-16 -12 -29 -31t-35 -25q-18 -36 -30 -42h-8q-10 -28 -35 -56t-31 -28q-6 -10 -4 -18q-10 0 -10 -10q-2 -10 -10 -16t-14 -12q-6 -16 -6 -50q-10 0 -9 -12t-8 -19 t-11 -12t-1 -7t1 -6v-2l-8 -8q-4 -18 -4 -38t-4 -37t-9 -35t-5 -37t2 -33t0 -34q-4 -92 16 -102v-6q0 -28 16 -62v-8zM658 202l-6 44q0 10 2 14q-16 18 -22 40t-13 34t-26 25t-32 22t-31 9t-31 -5t-25 -9q-10 -12 -17 -24t-19 -18v-2q0 -12 -6 -17t-10 -15v-26 q-16 -18 -19 -33t-3 -48t13 -53t13 -31t4 -15q10 -4 11 -9t15 -3q8 -2 12 -9t11 -4t20 2t21 -1l8 2q24 24 60 30q18 30 38 36q4 8 6 23t14 20t12 21z" />
<glyph unicode="7" horiz-adv-x="796" d="M206 772q10 32 60 32t80 -9t60 -9h12q4 2 10 16l16 30q26 50 25 55t2 10t6 7t12 15t15 39t28 46q6 20 17 37t17 29t7 18t7 10l10 14q4 4 7 3t5 1q2 4 1 5t-1 5t6 6t6 8q0 14 -17 14t-31 -18q-10 4 -18 4h-20q-16 0 -20 -8t-15 -8t-21 6t-20 10q-16 -4 -21 -14t-31 -10 l-64 8q-6 0 -30 -16q-26 8 -52 8h-52l-76 4q-18 2 -31 9t-41 3q-10 12 -20 23t-10 22t4 23q16 10 36 10h38l18 4q2 0 19 -7t73 -7l44 4l48 -8l56 4l36 -4q8 0 17 3t27 6t48 2t104 9t132 10h22q8 -10 17 -14t9 -19t-19 -24t-33 -15q-10 -20 -24 -32t-22 -26t-11 -27t-9 -26 t-17 -30t-21 -42t-17 -54t-25 -53v-26q-20 -20 -32 -72q18 -24 118 -24h20q6 0 16 2q10 -6 16 -16l12 -20q-2 -10 -11 -15t-15 -17t-30 -12t-38 12h-8l-66 10q-30 0 -48 -32q-4 -4 -4 -10q0 -12 -11 -18t-8 -12t3 -10q-12 -22 -10 -31t-2 -19t-10 -16t-10 -16l-4 -22 q-6 -34 -22 -63t-16 -65q-24 -22 -51 -107t-39 -95v-6q0 -6 -4 -18t-6 -19t-6 -13t-3 -12t1 -15t-13 -19t-9 -30q-10 -8 -14 -22t-10 -24q-26 -10 -86 -16q-20 20 -20 55t28 63q10 14 12 45t18 49q4 14 7 30t9 30l8 4q4 4 2 11t15 45t15 68q6 12 14 20t12 15t3 13t3 18 t12 31t14 36t9 32t11 41t24 62t22 74q-8 18 -25 16t-56 -2t-95 12z" />
<glyph unicode="8" horiz-adv-x="864" d="M412 78l-42 -10q-12 0 -22 8t-24 10l-12 -2l-4 2q-14 14 -22 15t-20 7t-19 15t-15 9t-10 -2q-10 12 -19 22t-15 20q-10 8 -14 16l-8 4v8q-6 6 -13 6t-15 17t-18 39t-22 46v14l-12 176q0 104 15 119t11 27q-4 14 14 32l8 20q4 4 5 4t6 12t13 28t25 26t25 19t12 18t14 23 t32 29t32 37q-6 8 -7 17t-5 15q-28 12 -40 100q-4 20 -4 36q0 64 32 92q8 6 4 16q16 8 27 21t29 17q4 10 11 14t27 24t46 20t42 -4t24 -8t12 -4t4 1t4 3l16 -2q6 0 10 2q16 -8 36 -17t32 -21l4 -8l10 2q6 0 26 -25t32 -47l-2 -10q0 -2 14 -19t14 -43l8 -22q-8 -24 -8 -45 t4 -31q-34 -50 -82 -86q6 -6 8 -15t6 -14t9 -5t9 -4t2 -8t2 -9t11 -11t11 -11t4 -9t4 -8t8 -4t12 -22t20 -39t12 -27q-2 -20 9 -33t11 -26t8 -19v-6l-4 -20q22 -32 22 -60t-5 -47t-10 -37t-10 -33t-5 -21l4 -16q0 -42 -10 -57t-20 -25t-17 -18t-17 -12q-6 -18 -17 -32 t-16 -26t-5 -18t-4 -11t-19 -14t-25 -21q-46 0 -82 -36q-30 -6 -38 -15t-20 -12t-25 -2t-29 1zM468 850l-88 4q-4 0 -4 -4q-22 -10 -36 -30t-36 -30q-6 -28 -22 -41t-30 -37q2 -6 2 -18t-7 -26t-12 -41t-5 -75t1 -58t3 -19t5 -17t6 -29t2 -53t3 -50q6 -24 34 -84t44 -72 q30 -20 93 -20t129 38l18 12q8 4 22 9t28 33t10 36q18 14 32 30t29 31t15 81q10 10 9 20t2 17t6 8t8 7t5 31t-9 39t-13 31t-6 34t-6 35q-10 8 -13 22t-7 24q-16 16 -34 48v8l-10 4q-8 10 -13 29t-15 20t-18 6t-16 16t-24 15v4q0 8 -8 10t-12 6q-32 -4 -62 -4zM420 934l66 10 q30 0 60 -12q44 18 76 24q16 42 16 68t-14 60t-30 44l-12 4q-4 4 -7 8t-9 9t-15 9t-13 14h-10q-14 0 -25 8t-25 8h-4q-30 -18 -48 -16q-44 -38 -72 -74l-2 -16q0 -20 7 -38t3 -36q8 -6 9 -17t5 -18t8 -10t7 -7t3 -12t8 -4q8 -6 18 -6z" />
<glyph unicode="9" horiz-adv-x="826" d="M730 636l4 -26l-12 -92q-10 -8 -11 -24t-15 -22q4 -12 -2 -50t-9 -46t-17 -20t-6 -34q-8 0 -9 -6t-13 -4v-6q2 -16 -8 -27t-14 -23q-4 -2 -10 -3t-16 -8t-21 -23t-33 -18q-8 -4 -12 -13t-9 -14t-7 -5q-4 2 -22 -18h-2q-16 0 -21 -6t-13 -14l-8 2q-20 0 -40 -20q-4 0 -5 4 t-7 4q-8 -10 -20 -13t-22 -13q-4 2 -15 2t-23 -6q-10 0 -16 5t-15 7t-20 0t-26 -2t-19 6q-12 18 -36 14q-20 0 -25 15t-9 23l-10 4l4 8q0 4 -6 7t-9 10t-3 19t-4 24t-13 23t-9 23t6 20l10 2q22 0 36 -21t10 -41q4 -12 12 -20t8 -24q14 -4 27 -15t27 -15t26 -2t22 2l46 -4 q18 0 61 20t51 27t14 15t14 15t19 14t14 12t3 8t6 10t12 24t12 25t8 24t6 26t10 16t12 16q-4 4 -4 12q0 10 10 53t20 51l12 120l-8 34l4 24l-10 72q0 30 -8 43t-22 27q-52 -58 -66 -86h-2q-16 0 -27 -13t-39 -19q-8 -4 -22 -12t-22 -8h-12q-6 0 -6 -3t-14 -3l-66 6l-30 -2 q-22 0 -30 11t-17 15t-18 2t-14 2t-9 10t-10 6q-2 4 -3 13t-5 14t-12 10t-11 10t-3 12t-2 11l-8 4v8q-10 20 -10 34v30q0 32 6 45t4 20t-2 16t5 14t8 13t2 16t1 16q4 4 8 7t7 8t1 11q0 8 18 26q6 18 23 37t31 23q18 30 58 41t68 27h2l24 -4l46 16q4 0 4 -4q12 -4 19 -10 t23 -6q4 -10 15 -14t21 -8q8 -22 26 -34t24 -34q4 0 4 -3t3 -5t6 -1t8 -2t5 -9t7 -16t19 -21t16 -33q8 -12 17 -23t16 -21t9 -17t8 -18t15 -26t15 -36t11 -37t7 -21t4 -8t2 -7v-20q0 -10 2 -16q14 -20 14 -108zM346 782l22 -4h2l6 8q4 2 6 1t8 -1t17 7t18 8t11 4t4 6t4 5 t8 1t8 2t7 9t7 10h10q16 10 15 17t5 17l8 4q4 4 3 9t-1 10t5 9t6 10t5 14q-8 14 -15 16t-7 29t-24 65q-6 16 -9 14t-7 2q-24 58 -35 67t-15 14t-8 13t-12 10q0 6 -9 1t-25 -5l-48 4q-12 -10 -16 -20t-14 -18q-2 -26 -8 -49t-17 -65t-11 -109t32 -111q16 -8 32 -6t32 2z" />
<glyph unicode=":" horiz-adv-x="486" d="M188 738q-34 28 -42 30v4q0 10 -10 12q10 104 74 130q18 -4 29 -8t27 -4q16 -18 34 -30t34 -28q2 -6 2 -17t-3 -20t1 -23q-28 -22 -48 -28q-4 -8 -12 -11t-14 -7h-72zM342 166q0 -30 -9 -63t-56 -33t-60 13t-22 14t-7 11l-6 -2q-6 0 -14 4q-8 20 -8 44t4 48q18 10 40 29 t35 19t24 -5t22 -13t23 -16q22 -18 34 -34v-16z" />
<glyph unicode=";" horiz-adv-x="488" d="M258 238l60 -64v-24q0 -30 -10 -60t-12 -32v-6q0 -80 -46 -130h-8q-2 -2 -17 -24t-15 -28q-36 -12 -43 -12t-19 4q-4 18 -4 26q0 12 33 67t33 111v18q-4 8 -12 8h-14q-8 0 -16 4q-4 14 -19 21t-15 24t6 28t8 21q70 42 110 48zM206 870l6 -2q4 0 8 4q14 10 38 10h28 q28 0 49 -28t21 -57t-32 -93q-22 -2 -41 -8t-47 -6t-42 19t-38 33q-4 20 -4 48t8 38l8 4v8q8 10 21 14t17 16z" />
<glyph unicode="&#x3c;" horiz-adv-x="1034" d="M656 816q18 12 40 12q6 6 13 10t11 12q16 4 26 12t26 17t36 18t34 15t16 5t12 9q8 2 15 1t15 -1t20 4q14 -14 14 -30t-2 -22q-18 -6 -32 -4q-14 -8 -25 -19t-20 -16t-12 -5t-5 -2l-4 -8q-16 -12 -34 -22t-32 -26q-40 -4 -48 -34h-20q-14 -8 -18 -30h-22q2 -4 -3 -4t-8 -3 t-2 -6t-3 -5l-30 -16q-26 -14 -53 -36t-45 -29t-25 -5t-18 -2t-21 -14t-26 -8q-28 -20 -48 -39t-56 -25q-14 -18 -42 -26q-8 -10 -12 -20t-12 -18q-10 -2 -19 -2t-17 -4v-6q0 -16 19 -22t29 -16l14 2q4 0 18 -7t27 -10t29 -3t27 -4t16 -9t14 -9t18 -4t17 -4l28 -14 q18 -10 39 -13t44 -13t50 -26t59 -16q2 -10 12 -11t14 -9q4 4 9 4t11 -6t12 -9t13 -2t25 -6t31 -7t27 -4l48 -14q12 -12 12 -36t-24 -44q-28 2 -49 13t-37 11l-16 -2q-10 0 -10 9t-12 9t-26 14h-28q-12 0 -20 6l-22 14q-40 4 -56 10t-18 8t-2 1t-6 -1t-15 8t-21 6 q-12 4 -14 12t-14 8l-28 -4q-16 0 -34 14h-26q0 2 -8 6q-42 18 -52 28q-24 6 -51 10t-45 20h-10l-40 4q-4 8 -11 13t-9 13q-18 4 -34 12q-32 18 -58 17t-26 23q0 18 10 42q26 4 54 24t42 28t20 10t20 11t34 25t44 26q14 12 37 25t46 27t46 26t55 36l20 6q16 10 31 24t35 18 q22 24 102 64v10z" />
<glyph unicode="=" horiz-adv-x="1170" d="M732 372q194 0 232 4q10 -10 24 -21t14 -24t-9 -18t-15 -13q-10 8 -24 7t-28 -1l-30 6q-8 0 -11 -6t-9 -6l-20 2l-46 -2l-28 4q-8 0 -10 -6t-10 -8q-6 4 -16 4l-40 -4q-16 0 -29 8t-36 8t-43 -20q-14 16 -32 11t-34 7q-24 -12 -53 -14t-53 -8l-48 26q-20 -4 -44 -4h-44 q-8 0 -12 6t-11 6t-7 -4l-18 4q-10 0 -34 -12q-4 10 -16 11t-22 5q-4 6 -4 23t12 33l6 -2q6 0 10 6t8 6l22 -6l26 10q10 0 30 -5t74 -5l20 6l42 -10l28 4l24 -4l52 10l18 -6l20 6l64 -10l28 2l40 -8zM666 646l-114 16q-26 0 -43 -8t-35 -8l-58 4l-20 8l-34 -8l-40 8l-24 -8 h-4v2q2 4 -5 3t-10 2t-3 8t-4 5t-4 -2q-12 4 -23 0t-23 -4q-34 12 -34 48q0 6 4 20q18 10 56 10l130 -6q38 0 52 -14l46 10l52 -10l86 6l34 -6q46 0 72 7t38 7l22 -4l90 8l14 4q8 -4 12 -4l30 4q20 0 36 -18t16 -34l-2 -20q-12 -4 -25 -2t-23 -8q-18 4 -36 4t-34 10 q-52 -10 -78 -26h-24q-18 0 -32 -8q-10 8 -22 8z" />
<glyph unicode="&#x3e;" horiz-adv-x="1078" d="M994 556q22 -18 22 -52l-2 -36q-14 -8 -24 -22q-18 -2 -49 -11t-36 -9t-13 4q-18 0 -47 -21t-31 -27h-8l-44 -8q-2 -10 -11 -12t-17 -6q-8 -12 -22 -20t-22 -16h-8q-38 0 -78 -28l-16 2q-36 0 -56 -30l-24 -8t-18 -14h-4l-14 4q-8 0 -12 -10t-21 -10t-25 -8t-17 -12 t-12 -3t-12 -4t-19 -6t-22 -3t-14 -7t-8 -9q-2 -6 -10 -5t-10 -7h-12q-22 0 -32 4q-26 -34 -38 -44h-26q-20 0 -30 4v4l-10 26q0 32 68 44q28 6 45 18t27 16t19 2t20 2t23 15t26 17t28 9t36 12t51 20t53 29q34 2 62 15t60 19q10 8 24 16t19 12t5 7t8 9t24 7t26 17 q58 10 82 36q4 4 15 7t11 13t-12 13t-22 5q-12 14 -28 14h-34q-28 0 -38 8t-29 14t-33 6q-32 0 -39 7t-19 9q-26 4 -37 18t-25 14h-22q-20 0 -30 20l-12 -2q-16 0 -24 7t-22 13q-6 8 -10 19t-16 11l-36 -8q-18 0 -34 15t-42 13q-16 16 -41 21t-41 27q-22 2 -52 16t-41 25 t-13 26t-4 23q14 20 56 20t58 -16q12 -4 30 -6q28 -2 36 -13t22 -14t27 -8t25 -13t32 -17t49 -17t52 -20t39 -21t32 -16t30 -12t29 -14t35 -11t38 -10q24 -24 54 -25t43 -6t18 -8t12 -6t17 -2t27 -3t39 -16t46 -22h30z" />
<glyph unicode="?" horiz-adv-x="756" d="M138 1452l-2 18q0 16 21 47t25 55q18 12 38 32q10 14 25 18t25 8t10 6t6 4t12 1t20 4t29 14t31 9t16 -6q62 -6 90 -20l18 -14q36 -22 54 -43t30 -36t22 -26t11 -22t7 -19l6 -4q14 -28 21 -60t25 -60q-4 -12 -4 -28t7 -34t7 -47t-13 -70t-15 -56t-9 -24t-14 -14t-11 -11 t-3 -12t-4 -13t-14 -12t-16 -14t-11 -17t-14 -18l-2 -10q-4 -2 -8 -1t-8 -5t-25 -21t-31 -13q-6 -8 -13 -14t-11 -16q-16 2 -26 -6t-22 -16h-6q-12 0 -35 -7t-23 -17l8 -12l-6 -14l6 -32q0 -76 -7 -101t-7 -35l2 -34l-8 -56q0 -14 6 -28q-10 -24 -41 -38t-52 -14t-25 19 t-14 29l8 68l-2 38l6 28q2 6 1 12t-1 17t8 24t8 27l-6 30q0 40 10 77t10 75l-6 42l6 30q12 46 24 60l26 4q10 0 25 -16t19 -25t3 -21t9 -16v-6l-2 -26v-8q12 -4 25 -4t29 15t34 19q0 10 7 14t11 11t6 14t12 7q2 16 9 24t13 18v4q0 26 11 52t11 52l-4 8q6 12 6 14l-4 36l2 60 q0 26 -12 50q4 8 4 22t-18 44v8q0 14 -6 26t-8 21t-1 15t-1 13t-12 19t-14 24q-16 2 -21 11t-13 23q-10 4 -27 8t-23 14q-16 -2 -24 -14t-28 -4q-16 -4 -22 -16t-22 -12q-8 -10 -10 -22q-14 0 -21 -8t-19 -14q0 -30 -16 -38t-23 -22t-6 -17t1 -11l-6 -22l2 -28l-2 -46 q0 -22 -9 -33t-9 -25t20 -22q20 16 25 64t13 62q8 4 16 3t15 -1t15 4q2 0 11 -15t9 -17l-2 -10q0 -6 4 -4t4 -23t-17 -48t-33 -47h-2l-26 -4q-12 -6 -19 -18t-26 -12t-32 14t-29 22v12l-2 38q0 22 8 42t8 42l-2 52q0 20 6 42zM292 102l2 -16q14 -4 21 -10t25 -8 q4 -10 11 -19t7 -25t-7 -27t-16 -16t-17 -9t-8 -10l-16 6q-6 0 -18 -14t-22 -18q-18 4 -38 4t-28 16h-4l-18 -6q-14 0 -22 18t-8 34t6 19t14 17t16 21t18 17t10 13t7 10t21 12t24 15h6q12 0 19 -5t17 -9q-2 -2 -2 -10z" />
<glyph unicode="@" horiz-adv-x="1338" d="M746 1272q-16 -6 -42 -6t-56 -30q-8 4 -16 4t-16 4l-24 -8q-4 0 -16 6q-14 -8 -26 -21t-28 -9q-10 -4 -15 -13t-13 -17q-62 -12 -68 -72q-22 -10 -40 -39t-22 -55q-12 0 -18 -9t-18 -11l2 -4q0 -12 -4 -18t0 -18q-10 -6 -15 -15t-19 -11q-6 -28 -18 -47t-8 -51 q-14 -16 -14 -38l-10 -104l4 -32l-4 -20l8 -40q0 -14 4 -22t8 -23t5 -37t17 -34q14 -70 44 -100q2 -4 1 -5t-1 -5t5 -7t8 -7t2 -9t2 -11t10 -12t12 -13t9 -17t21 -23t23 -23q12 -26 31 -33t23 -19q22 -8 45 -24t37 -19t26 -1t24 2l76 -8q12 -2 23 -1t36 1t55 -8l36 16 q12 -6 27 -6t63 12q8 6 14 9t2 15q8 -4 16 -4l36 4q20 -16 20 -32t-4 -32q-10 -4 -23 -8t-17 -14q-4 4 -9 4t-11 -5t-11 -7t-11 -1t-12 1l-34 -10q-8 0 -10 6q-8 2 -7 -7t-9 -5h-10q-18 0 -35 8t-29 8t-36 -12q0 4 -4 4t-5 -2t-9 -5t-20 -3t-22 -10q-14 6 -26 6h-32 q-18 0 -32 6l-34 -8q-16 0 -27 8t-20 8t-21 -4q-14 10 -31 15t-29 15h-4q-24 0 -37 13t-33 17q-14 22 -30 26q-4 6 -6 13t-6 11q-28 4 -38 21t-30 27q0 8 -3 14t-6 13t-17 23t-17 26t-6 12t-6 6t-2 8t-2 8t-9 7t-6 7t4 8q-14 10 -22 24t-18 28v8q0 42 -24 74l-4 80 q0 4 -4 16l12 64l-4 26q0 18 18 66q12 98 48 166q4 6 11 13t10 17t7 15t9 11t5 12v4l2 -2q6 0 7 6t9 2v4q0 4 3 8t9 16t20 29t26 35l10 6q4 6 4 13t7 16t21 19t18 28q16 4 28 15t28 15q6 6 10 16t10 15t8 3t6 2t4 7t4 5l18 12q14 10 30 17t30 17h30q8 0 9 4t5 8l58 8 q6 6 10 6h6q26 0 32 12q4 -2 12 -2l52 10q40 0 78 -13t80 -17q6 -10 18 -12t23 -10t18 -10t13 -6q8 -12 14 -12q12 0 30 -36h4l16 4h4q36 -42 62 -48q14 -2 10 -10q-2 -12 10 -13t12 -23q20 -4 31 -20t21 -30h8v-8q26 -32 34 -52l6 -24l8 -14q6 -26 5 -44t15 -40v-6l4 -18 q0 -6 -6 -8v-2q0 -8 7 -10t5 -8v-4q-6 -2 -6 -20t-12 -18v-4q-2 -6 5 -9t7 -8t-5 -10t-6 -17t-6 -19t-4 -11t1 -11t-9 -13t-12 -11t-2 -9t-2 -8t-6 -4t-10 -8t-10 -23t-17 -25q-2 -6 -3 -16t-4 -14t-6 -4t-6 -4t-1 -8t-2 -8t-21 -14t-25 -6q-4 -28 -38 -36q-32 -52 -41 -52 t-15 -10q-6 -4 -11 -4t-21 -7t-23 -6t-11 1l-28 -8q-42 0 -80 38q-10 10 -26 18q-6 16 -24 30v8q2 14 -9 31t-24 17t-22 -19t-21 -21q-10 -16 -22 -40t-25 -33t-18 -19t-15 -18q-12 0 -18 -8q-16 12 -38 12l-56 56l2 4q0 10 -8 18t-19 30t-11 51t7 48t7 41t3 35t6 20t16 46 t69 111q14 22 22 27t14 9t14 14q12 16 22 15t14 5t10 9t36 8t40 7q16 -6 24 -19t28 -15q4 -12 15 -19t15 -16t7 -9t6 -4t2 -6t2 -7t8 -9t8 -11t1 -22t-2 -25v-8q0 -10 -2 -58q-4 -244 56 -244l18 4l14 -4q18 0 22 10t8 18q120 80 122 112q2 8 18 18v2q0 16 12 26t16 18t3 15 t2 14t5 7t2 6t16 22l-2 8q0 16 7 24t7 18l-4 38l6 18q0 38 -26 64v8l-4 40q-14 12 -25 27t-19 24t-13 13t-7 8l2 12l-2 2l-6 4q-4 14 -4 24q0 22 -26 22q-30 0 -55 19t-29 33q-32 6 -72 46q-4 -4 -11 -4t-12 6t-21 2q-2 6 -26 17t-30 11l-22 -4q-12 0 -58 20zM714 644l-4 18 q10 10 24 36t16 44q36 36 46 120q-14 8 -20 23t-21 15t-24 -4t-17 -6q-6 -12 -14 -22q-12 -16 -23 -47t-10 -39t1 -23t-11 -39t-11 -40t2 -22q-12 -6 -10 -18t-2 -20t-8 -8t-4 -14l2 -40q0 -12 8 -10q2 -2 8 -2q14 0 31 32t17 36q8 4 13 11t11 13v6z" />
<glyph unicode="A" horiz-adv-x="1136" d="M-44 -124q-12 0 -12 22t16 36q12 4 18 4l32 -4l30 4l18 -2q30 0 40 72l8 56t16 40q-4 2 -4 8t4 18t7 24t7 23t6 17t5 11t6 17t3 26t3 25t5 17t9 32t13 71t18 90t26 90t21 75t9 44q4 28 13 44t12 28t10 32t11 53t10 51t7 20t1 12t3 14t7 10l10 56l4 2l-2 8q0 28 23 71 t27 47q2 10 0 20q0 22 10 28q6 6 10 28l8 4v10q0 8 12 14q4 16 7 30t7 28l14 26q4 6 4 13t5 16t15 19t15 29t2 40t9 41q12 6 35 6t39 -27t16 -55q10 -14 15 -30t17 -26v-4q0 -32 23 -78t23 -66q6 -6 13 -34t33 -54l-2 -6q0 -22 10 -40q22 -38 22 -71t32 -118t36 -123l-2 -2 q0 -6 4 -6q14 -4 14 -24t18 -42q10 -18 15 -39t21 -37v-4q0 -14 6 -26t9 -22t4 -17t4 -13t10 -23t14 -37t13 -36t6 -20v-6q10 -10 12 -21t6 -23q12 -16 14 -36t7 -38t12 -30t14 -26t10 -35t7 -36t11 -28t11 -28t2 -31q0 -30 9 -45t15 -39q12 -26 16 -48t18 -34l6 -2 q24 0 35 11t31 13q28 -16 28 -44q0 -6 -2 -10q4 -12 -15 -17t-27 -7q-16 -12 -29 -11t-20 -1t-10 -4t-7 -4h-16q-10 0 -21 -10t-19 -10t-38 4l-62 -12q-10 0 -14 2q-14 -4 -24 -10t-26 -6l-12 20t-6 24q6 18 28 26t42 15t36 14t16 21l-20 72q-4 6 -8 11t-7 15t-3 25t-4 27 l-8 24t-8 22q-10 8 -24 25t-28 17l-26 -4l-24 4q-8 0 -16 -4q-24 -8 -58 -8h-38l-34 4l-10 -4l-32 8l-22 -2q-8 0 -14 6q-24 -12 -32 -12l-46 8l-22 -4l-30 8l-54 -4h-32q-104 0 -142 -26v-8h-8q-14 -14 -34 -86t-20 -82t13 -16t23 -6t34 6q18 -12 32 -30q-2 -16 -8 -28 l-12 -24l-80 10l-14 6l-30 -4l-38 10l-20 -4l-22 2q-16 0 -18 -6q-4 0 -4 2t-4 2l-30 -10q-8 0 -28 5t-20 17q0 6 -6 6q-4 -4 -8 -4zM690 218q8 0 13 2t25 -12q22 8 42 8h46q30 0 60 6q-2 8 10 16v6q0 22 -7 41t-10 33t-2 22t-3 15t-8 13q-10 12 -14 36q-2 14 -9 28t-7 22 t-4 20l-44 94q-2 4 -1 5t1 7t-21 40t-18 44t-3 27t-16 43t-14 54q-10 4 -9 9t-3 15l-8 8q-4 10 -4 22t-2 24q-24 30 -24 82l-20 42q6 12 6 22t-9 15t-9 25t-12 38t-12 44q-2 4 -7 5t-13 10t-15 23t-25 24v4q-6 0 -6 -4q-12 0 -18 -32t-22 -50q-2 -8 -1 -15t-3 -21t-10 -38 q-12 -16 -15 -42t-15 -46q-2 -10 -3 -22t-4 -21t-6 -16t-5 -15l-12 -102q-22 -32 -20 -68q-6 -4 -7 -11t-7 -11q-6 -52 -46 -138v-36q-12 -18 -23 -80t-11 -70q-4 -4 -6 -11t-12 -11q2 -6 2 -16l-12 -86q18 -16 50 -16l144 6h24l84 -10l72 4z" />
<glyph unicode="B" horiz-adv-x="972" d="M926 1158l-4 -18q4 -4 4 -13t-6 -26t-10 -35t-4 -42t-6 -44t-17 -33t-9 -29h-4q-6 0 -7 -7t-4 -13t-13 -14t-14 -14l-16 -26q-4 -6 -11 -11t-7 -13v-4q-22 -8 -30 -36q-14 -2 -34 -28q-4 0 -18 -5t-18 -9v-8q-4 -6 -8 -3t-8 -2t-4 -9t-4 -8h-24q-14 -8 -24 -26l-30 -12 q6 -18 30 -22q10 -18 32 -26q12 -26 49 -51t62 -81t25 -103t-26 -63q2 -2 2 -11t-4 -20t-6 -21q-8 -4 -14 -9t-16 -7q-6 -4 -4 -13t-4 -13q0 -4 -5 -3t-7 1l-6 -2q-2 -2 -1 -5t-2 -7t-6 -3t-6 -2t-2 -6t-4 -9t-16 -10t-17 -18h-4q-18 2 -24 -7t-13 -15t-14 -6t-14 -3t-4 -6 t-5 -3q-12 0 -28 -16q-16 -10 -32 -17t-30 -21h-16q-14 0 -16 -4q-12 0 -15 -8t-9 -14q-4 -2 -16 -10t-37 -19t-33 -19h-6q-6 -4 -14 4q-4 -2 -4 -8t-4 -8q-10 6 -25 6t-32 -13t-41 -13h-12q-12 12 -12 32t7 31t18 16t21 7t18 12l2 98q0 4 2 4t2 4l-6 20q0 10 4 14 q0 24 -11 72t-10 110t-7 100l4 18l-8 20l4 20l-10 106q0 10 6 20q-16 58 -16 94l2 74v20t-2 20l-8 30l4 26q0 28 -9 58t-9 64l6 46q0 6 -3 12t-5 14t-1 18t1 20l-2 42q0 20 6 32q-6 16 -6 32v32l-6 48l8 16v6q-6 26 -5 55t-5 53q-10 52 -80 52l-102 -6h-8q-8 20 -8 46v10 q14 10 32 12q96 4 163 16t75 15t16 3l28 -4l84 4l96 -12q22 0 42 -11t36 -15t24 -3t16 -1q76 -30 96 -50l6 2q24 0 44 -15t27 -27t15 -21t22 -20t21 -19t9 -14t10 -17t17 -19t15 -22t6 -23t3 -18t8 -14t7 -13l-2 -18q0 -12 8 -33t12 -32t8 -15q-4 -4 -4 -10zM788 1074l8 64 l-4 32q4 4 4 9t-3 9t-6 10t-9 35t-6 36t4 19q-20 26 -28 66q-10 6 -13 16t-10 19t-16 17t-9 24q-44 20 -64 46q0 -10 -12 -10q-20 8 -32 17t-36 7q-18 12 -30 26t-29 14t-23 -2q-40 8 -83 8t-54 -5t-17 -4t-17 1t-15 -4q-2 -4 -2 -12l6 -38l-8 -26l4 -92q0 -16 5 -24t5 -16 l-6 -18l8 -16l-2 -14q0 -4 3 -13t1 -22t-2 -23l12 -96q2 -10 1 -19t-1 -19l12 -104l-4 -16l12 -34l-4 -12q0 -18 8 -34t8 -32l-4 -46q0 -34 12 -124q10 -10 19 -9t21 1l22 -4q34 0 138 42q20 10 38 29t40 19q20 28 48 44q8 12 22 28q50 58 64 114q2 4 4 7t4 8t1 11t-1 18 t10 29t10 35zM682 370l4 28q0 16 -9 27t-7 27q-10 8 -14 18t-12 20q-80 72 -80 81t-4 13q-54 16 -78 16t-56 -16h-12q-24 0 -44 -8q-2 -24 -11 -41t-9 -38t3 -40t6 -43t2 -51t1 -45t5 -26t3 -16l-4 -16l4 -14l-4 -40l8 -38l-4 -32q0 -10 10 -22h8q16 0 26 6t28 2 q10 16 29 21t33 13l4 6q8 4 16 5t16 3q26 36 66 56q6 10 14 14q20 10 20 24q0 6 17 31t25 75z" />
<glyph unicode="C" horiz-adv-x="1362" d="M464 1348q-40 0 -40 -18q0 -12 -8 -16l-30 -16q-18 -40 -40 -50l-12 -28q-8 -2 -10 -9t-10 -11q0 -20 -10 -31t-8 -35q-10 -4 -12 -12t-14 -12q4 -2 4 -12t-14 -26q0 -28 -20 -88t-24 -66q4 -2 4 -10l-4 -26l6 -38l-2 -38v-32t3 -27t6 -18t3 -9v-36q0 -26 11 -50t12 -44 t12 -23t11 -17l-8 -14v-4q54 -136 144 -220q22 -22 40 -48q12 0 46 -22l18 -16q18 -10 32 -17t24 -23q16 -2 29 -11t21 -9l18 4h4q4 -8 33 -16t33 -8l20 2q16 0 31 -5t33 -3h8q4 4 10 4l12 -4l36 8l64 -4q32 0 46 8t12 14q38 0 50 10t17 14t12 6t11 5t4 6t4 7t6 3t8 3 q14 8 46 40q40 32 46 32q4 12 10 20t8 20q26 10 36 34t32 34q44 -18 44 -46q0 -16 -15 -25t-23 -18t-10 -18t-8 -17q-26 -10 -26 -26h-4q-6 0 -10 -3t-10 -5q-6 -10 -13 -20t-11 -20q-10 -4 -18 -11t-18 -9q-8 -16 -23 -27t-25 -29q-14 0 -21 -7t-20 -7t-16 -6t-21 -2 q-4 -4 -30 -28l-44 -8l-28 8q-66 0 -86 -8l-30 -12q-18 -6 -52 -6l-56 8q-12 0 -28 -8q-8 6 -18 6h-22q-14 0 -19 6t-25 6h-2l-8 8q-94 36 -142 46q-12 26 -50 36q0 6 -8 8t-8 9t-4 11q-40 12 -70 64q-16 2 -32 10q-4 6 -13 15t-18 21t-16 20t-7 12q-14 6 -30 16 q-32 58 -40 96t-13 49t-12 22t-12 20t-3 17t-2 16l-8 24q-2 6 -1 13t1 13l-12 82l4 72v36q0 34 12 69t22 65q-2 4 -2 10t5 22t12 33t13 32t11 22t13 18t16 34t22 41t14 36q42 26 50 70q14 4 41 34t27 34q6 2 5 6t3 8l8 4q10 18 29 32t19 22q16 4 30 17t26 19t21 10t13 14 l6 -2q12 0 16 9t28 9q2 0 6 8q16 4 30 6t28 18q34 0 66 20q4 -2 14 -2t17 4t20 6t33 1t33 5t14 8t15 2l52 -10l44 6l28 -8l22 2v-2q0 -6 5 -5t13 1t14 -12h10q34 0 106 -52q24 -16 33 -24t39 -14q4 12 8 26q12 68 52 68q14 0 24 -12t10 -24t-4 -24q2 -4 2 -16t-11 -53 t-11 -105l4 -20q0 -42 16 -58q-10 -12 -22 -42q-8 -4 -15 -8t-20 -4t-25 14q-18 20 -18 36v14q0 22 -9 36t-5 26q-12 8 -22 18v12q0 46 -54 74q-10 4 -10 12l-30 10q-6 10 -18 13t-16 15h-4l-20 -6l-30 20q-6 -2 -18 -2t-22 10q0 -4 -5 -4t-5 4l-36 -8q-18 0 -29 8t-35 8 t-40 -16q-62 0 -94 -22h-8q-26 0 -41 -7t-20 -6t-10 1t-9 -3t-31 -13t-77 -56q-2 2 -12 2z" />
<glyph unicode="D" horiz-adv-x="1190" d="M1106 988l-6 -28q0 -8 4 -16t7 -20t2 -30t-1 -72t-10 -54q-4 0 -4 -14t-6 -16t-6 -20l-2 -2l-8 -4q-4 -8 -3 -16t-1 -18q-16 -12 -22 -27t-14 -31l-8 -4l4 -8q0 -4 -5 -7t-5 -10t-8 -9t-4 -14q-4 -4 -12 -4t-12 -4q-30 -56 -94 -102q-6 -10 -7 -20t-5 -18q-10 -8 -20 -9 t-24 -15q-52 -24 -66 -50h-4q-26 0 -33 -7t-21 -25q-16 0 -23 -10t-17 -20h-4q-12 2 -21 -5t-23 -5q-6 -2 -9 -8t-7 -10h-2q-20 0 -52 -22t-36 -26h-22q-38 4 -42 -16q-6 -18 -57 -18t-65 -22l-12 2l-90 -12q-28 0 -42 10q-2 6 -2 26t20 40q12 2 24 5t21 3t21 -4q10 8 24 10 t24 8q0 142 -7 173t-7 35l2 28l-6 32q0 6 6 12q-20 28 -18 69t2 67t-6 34l6 10q0 12 -6 30t-6 40l4 106q0 16 -6 46l2 20l-8 16l6 22q0 6 -2 6t-2 4t2 4t2 4t-3 6t-3 18v2q-14 98 -14 108q-4 8 -4 12l6 12l-8 24l6 30q0 8 -2 16t-4 17t-1 17t-1 16t-5 14t-5 11t-1 9t1 8v2 l-6 10q4 12 4 16l-10 102l6 36q0 20 -12 35t-12 22t4 15q-4 4 -20 14t-22 10t-8 -6t-10 -9t-27 -5t-27 -5t-15 -3t-10 7t-18 7t-28 -14t-35 -14q-16 16 -16 32l2 40q12 12 27 11t27 1t17 6t11 6t12 0t9 -2t19 8l22 -2q6 0 10 2q12 10 66 10l26 -6l22 8l24 -6l16 4l12 -4 l12 6q14 0 26 -4t27 -6t33 -1t36 -3l36 -8q8 -2 15 -1t14 -1t12 -5t13 -5t20 -2t27 -4t32 -10t32 -11t24 -6t22 -7t28 -17t36 -22t48 -25t43 -29t23 -25t17 -21t23 -22t21 -21t12 -18q10 -20 18 -20q2 0 8 -16q4 -4 8 -10t12 -6q28 -68 64 -112q16 -64 31 -90t17 -47t6 -38 t7 -28t3 -23zM694 1460h-14l-20 5t-46 23h-4q-16 0 -56 20q-42 -6 -55 -6t-27 6t-31 9t-37 3h-40l-8 -2v-8t-4 -4v-4q0 -36 5 -59t5 -34t-4 -15q14 -20 11 -44t3 -48q12 -26 12 -82l14 -62l-6 -44q0 -10 4 -18t6 -17t1 -16t-1 -15l4 -26q16 -112 16 -142v-44q0 -14 -2 -28 q8 -12 8 -22l-4 -24l6 -46l-4 -14l6 -32q-4 -4 -4 -12t4 -18t6 -19t1 -16t2 -28t9 -54t6 -67l-4 -82q0 -16 6 -100h12q12 0 41 13t46 18t27 13t32 16l70 48q70 50 149 135t110 178t31 143t-8 100t-10 100q-12 10 -12 26t-3 25t-5 14t-2 9l2 6q-26 26 -26 84q-12 16 -24 29 t-10 35q-26 18 -24 40q-20 8 -34 28q-4 18 -19 31t-19 31q-16 6 -30 14t-14 28q-14 0 -25 11t-19 11z" />
<glyph unicode="E" horiz-adv-x="992" d="M176 766l14 192v66q0 12 -2 28l-6 72q-2 18 -1 38t1 34v24q0 8 -2 20l-6 26l2 20q0 10 -4 16t-7 18t-1 28t-1 25t-8 13t-9 9t-5 11t-8 13t-22 13t-27 16q2 14 1 27t7 29q24 8 51 8t42 -11t34 -11t41 18q18 -6 50 -6l74 2l98 -8l36 4q28 0 54 -8t54 -8l48 2l28 4l34 -8 l36 4l34 -2q16 0 34 6q16 34 21 74t25 68q20 4 31 4t17 -10t6 -16l-4 -12l6 -44l-4 -36l6 -58l-4 -36l6 -32l-6 -40l2 -14q-10 -8 -15 -22t-11 -24q-12 -6 -25 -13t-21 -7t-18 26t-10 42l4 44v12q-16 16 -40 16l-36 -10l-60 14l-50 -4q-6 0 -10 4h-40l-74 4q-22 0 -36 -5 t-30 -9t-39 -7t-46 -5l-46 -4t-33 -2q-10 -10 -8 -25t-2 -24t-6 -9t-2 -14l12 -98v-52l2 -28q-4 0 -4 -9t14 -37q-2 -8 -2 -22l-6 -26l6 -24l-2 -48l4 -60l-14 -226q0 -30 8 -62t2 -60q20 -20 83 -20t77 -2l24 -4l20 4l46 -8l48 -4q26 0 34 22q6 32 16 42q0 28 10 48l30 8 q10 0 19 -17t9 -27l-16 -122l8 -56q-14 -24 -22 -48q-12 -2 -24 -7t-24 -5q-4 4 -7 11t-10 14t-10 24t-7 31q-14 10 -32 7t-30 9q-16 -8 -27 -8t-23 8q-24 -8 -52 -8l-66 2h-18q-14 0 -27 -6t-17 -5t-8 -3l2 -8l-12 -100l4 -58l-6 -34l6 -24l-6 -90q0 -64 42 -64l38 4l48 -6 q16 0 26 10q14 -6 32 -6l74 6h12q8 0 16 -4q22 8 56 8t55 2t40 5t37 3l34 -2q22 0 27 9t15 13q2 8 4 22q8 56 36 56q18 0 23 -10t19 -20q6 -72 6 -98q-4 0 -4 -4l4 -46q0 -22 -10 -38q2 -10 -10 -10t-19 -5t-11 -11t-14 -6l-34 12q-2 18 -4 40t-12 38q-12 -2 -24 -2h-26 q-40 0 -44 -12q-8 4 -17 4t-21 -8q-6 6 -16 6l-28 -2l-22 4l-22 -4l-34 10q-20 0 -64 -30l-52 14q-4 0 -7 -5t-11 -5l-62 8l-42 -6h-32q-52 0 -70 -14q-10 8 -28 8l-14 -4l-10 4q-16 0 -35 -12t-25 -12q-40 0 -40 50v10q8 16 44 24t40 8q8 16 11 38t5 36t2 20l-6 36l6 24 l-6 16l4 20l-6 18l6 52q2 8 1 15t-1 17l6 52l-8 50q0 10 2 18t4 19t1 24t-1 25v22q-4 0 -4 4l6 14l-6 24q-6 22 -5 57t1 59v44z" />
<glyph unicode="F" horiz-adv-x="948" d="M296 226q-2 20 -2 66v24q0 20 -5 27t-9 22t-5 42t-4 44t-8 43t-5 30l4 8l-8 18l4 22l-8 76q-2 24 -2 48v50l2 10l-6 24q-2 8 -1 15t1 23t-6 34q-14 46 -14 100l4 16l-10 26v2q6 8 6 12t-4 11t-7 30t-1 60t-10 77l8 30l-8 32l6 34q0 22 -27 40t-39 18l-48 -4q-10 0 -16 2 l-4 8h-2l-36 -4q-14 0 -34 8q-2 6 -2 16t6 34q34 10 78 10h78q62 0 71 12t21 12t31 -11t25 -19l34 10q8 0 20 -10q8 12 25 11t27 -1h12l2 4l14 -4l36 4l22 -4l30 2q18 0 24 -6q22 14 62 14l80 -2l28 4l34 -4l20 8q2 0 2 -1t5 -1t8 6t5 23t4 33q8 38 38 38q8 0 15 -5t15 -7 q4 -18 10 -36t6 -36l-2 -60q0 -16 3 -25t6 -26t2 -35t1 -33t7 -29t5 -28q0 -42 -72 -42q-14 14 -18 59t-6 67t-14 40q-4 4 -12 2t-15 4t-11 0q-16 10 -21 9t-23 -1l-34 8q-10 2 -17 1t-21 -1t-22 4q-22 -16 -40 -16t-40 4q-48 -12 -59 -12t-27 4l-22 -6q-8 -2 -14 -1t-12 1 h-6q-10 -2 -30 -17t-39 -15t-19 -14t-12 -18q10 -24 10 -42l-4 -26l4 -10l-4 -12q0 -6 3 -12t6 -19t2 -32t1 -38t5 -33t3 -27t4 -18t4 -58t13 -99t13 -58l-4 -2l4 -10q0 -8 -8 -20q8 -48 6 -107t14 -101q-2 -8 -2 -20t2 -20q40 -6 90 -6t108 9t118 9q8 8 13 33t12 34t22 9 t23 -11t12 -27t6 -31t6 -25v-6l-4 -18q0 -24 10 -43t10 -44t-22 -37t-39 -12t-23 2q-18 54 -18 72t2 26q-20 8 -56 8t-52 -16l-42 6q-16 0 -17 -5t-11 -5l-58 8q-6 0 -12 -9t-17 -9t-23 -10t-26 -10q0 -24 12 -34q-2 -6 -2 -18l12 -98q0 -30 -12 -52q4 -10 4 -30t3 -34 t7 -25t4 -26t-22 -15q6 -8 18 -8l38 8q22 -14 34 -48q-28 -34 -48 -34l-32 8l-30 -4q-6 0 -14 4q-10 -4 -15 -13t-18 -11t-29 -2t-32 -4q-24 -14 -33 -14t-23 8l-2 18q0 22 12 24t24 16q6 4 14 3t17 2t16 10t19 9q-8 20 -7 39t-3 39l-6 38l2 22l-2 12z" />
<glyph unicode="G" horiz-adv-x="1018" d="M742 1004l74 2q38 0 74 -9t72 -3q4 -8 10 -15t6 -20t-18 -19t-32 -10q-8 -4 -6 -12t-6 -12q-4 -14 -16 -18t-12 -20l8 -40l-8 -72l4 -28q0 -10 -5 -19t-4 -22t1 -21l-4 -18l4 -14q0 -10 -6 -18t-2 -20l-16 -20l2 -6q0 -18 -7 -27t-5 -27q-6 0 -29 -46t-31 -52 q-4 -10 -4 -21t-6 -26t-23 -24t-27 -27h-6q-8 6 -35 -26t-45 -32l-14 2q-8 0 -10 -4q-12 -2 -18 -9t-16 -13h-6q-24 0 -38 -12q-4 8 -12 7t-14 -1t-8 2h-4l-18 -12h-6q-14 -2 -18 3t-14 9q-16 -4 -30 -4h-42q-18 20 -38 26q-4 4 -7 4t-7 -6t-10 -4h-2q-6 10 -14 12t-16 6 q-4 10 -10 12t-16 8q-14 38 -52 64q0 10 -8 17t-16 31q-6 10 -16 16q-18 16 -18 28v8q0 12 -22 34q-4 28 -11 55t-13 73t-6 115t8 115t8 94l-4 24q0 8 3 17t6 22t6 29t10 29t11 20t9 20t8 32t12 45t28 56t33 62q28 16 42 44t29 39t18 10t5 1l4 8q4 4 10 4q12 0 26 20l18 24 q30 10 48 40q20 4 39 17t41 7q4 4 22 12t22 8l22 -4l30 8l32 -4l34 2q24 0 38 -10t14 -13t4 -7q6 -2 8 -1t12 -7t18 -24t30 -20q12 10 10 30t-2 35t11 32t25 17t21 -11t17 -15q2 -20 3 -39t5 -35t11 -31t7 -35t-10 -46l-8 -4q-4 -10 -4 -12t-10 -2t-11 -8t-15 -8l-32 2 q-6 36 -22 52l-20 22q-14 12 -18 12q-12 -4 -16 7t-30 19q-4 8 -9 12t-5 14h-4q-10 0 -13 4t-11 8q-36 -10 -69 -8t-57 -2t-28 -14t-14 -14q-30 -2 -43 -17t-25 -23t-15 -7t-7 -1q-8 -6 -10 -15t-20 -5q0 -4 -8 -21t-10 -23q-4 -4 -20 -14t-18 -18t-12 -10v-32 q-10 -4 -12 -14t-10 -14q-2 -4 -1 -9t1 -11t-4 -8t-8 -6q-4 -20 -9 -29t-7 -17t0 -20t2 -22l-8 -48l4 -50l-8 -52l8 -74l-4 -58l4 -10l-8 -66q0 -26 4 -50l8 -28l-4 -26l8 -40q10 -52 27 -73t21 -31t3 -16t-1 -10t3 -6t6 -8t3 -13t2 -12t10 -17t18 -30l24 -40q4 -4 9 -4 t9 -4t4 -6t3 -5t11 -2t12 -3v-8q18 -6 24 -12q6 2 51 2t51 22q4 -4 22 -4t25 10t24 18t29 8t30 18v8h8q4 4 4 11t10 21t32 42t30 48q14 40 29 96t25 66l-2 34q0 70 18 110v2l-8 46v12q0 14 -9 18t-14 11t-4 10t-13 17t-33 14t-32 -7t-29 -11q-70 24 -98 28q2 2 2 6t-6 4 t-6 17t28 39q30 -4 62 -4h60z" />
<glyph unicode="H" horiz-adv-x="1178" d="M230 156l-14 120l4 66l-4 12l4 14v6q-4 0 -4 4l4 4l-10 70q0 14 1 27t-1 27t-5 19t-3 27l-12 56l4 30l-14 66l4 24l-8 84q-10 24 -10 42l4 54l-8 58l4 34q0 2 -2 2t-2 4l6 14q0 16 -7 22t-11 18q4 8 4 21t-5 25t-8 25t-1 28t2 27l-8 72l4 80q0 54 -54 50q-16 0 -32 -2v6 l-8 34l2 12q2 2 22 9t24 7l16 -2l46 14q8 0 12 -2q6 4 12 11t18 7l20 -4l44 8q10 0 24 -19t14 -30t-12 -17l-6 2q-48 0 -44 -78q2 -18 2 -32l8 -40l-2 -30l8 -36l-4 -26q0 -30 8 -65t10 -65l-2 -12q0 -4 4 -9t3 -10t-1 -13v-30q0 -90 18 -120q-2 -6 -2 -19t4 -27t7 -31 t2 -37t5 -49t7 -65t7 -76q16 -24 58 -27t61 -3t30 -4t30 -6t49 -1t58 1l106 -6l56 4l60 -6q12 0 18 2q22 28 22 56l-4 26q0 16 8 48t7 57t1 45t4 33t2 25l-2 38q0 52 14 133t14 115l14 116q0 8 4 17t7 19t2 18t2 17t6 16t13 65t15 77t5 33t-5 21t-19 4t-29 -3t-15 9t-12 17 v2q0 10 6 14t6 14q10 2 22 2h22l192 -12q4 -4 3 -9t2 -10t7 -11t4 -14t-8 -20h-10l-42 8q-10 0 -16 -5t-14 -9q-2 -2 -2 -8v-6q-6 -20 -9 -41t-7 -37t-8 -26t-12 -42t-7 -81t-3 -85t-6 -46t-2 -36l-8 -34q-4 -40 -4 -60v-98l-8 -158l2 -68q0 -70 -21 -142t-21 -146l2 -38 q0 -10 -2 -18q-28 -112 -28 -214l-12 -58v-10q14 -6 25 -6t15 4l30 12h6q16 -16 16 -38t-15 -30t-29 -18l-12 -2l-58 8l-52 -10l-22 4l-40 -10q-20 0 -40 4q-8 14 -8 38t24 24l32 -2q8 6 8 12t2 12t5 11t5 11v30l10 78v28l14 118l-2 36l4 42l-2 32q-2 4 0 10t2 12l-2 10 q-14 10 -32 7t-28 11h-6l-18 -10l-42 10l-22 -6l-36 10l-46 -8q-8 -2 -16 -1t-20 1t-22 -8q-24 8 -49 8t-39 -10q-30 8 -58 6t-58 4q-10 -8 -9 -24t1 -26l-4 -64q0 -18 6 -26l-4 -42l6 -36l-4 -28q0 -18 5 -36t8 -30t9 -12l20 4q10 0 10 -23t-28 -36t-46 -25q-40 0 -66 -20 t-50 -20t-32 2q-4 8 -4 17t4 19l8 20q46 18 53 27t7 25v50z" />
<glyph unicode="I" horiz-adv-x="566" d="M310 1172l18 -192q0 -68 4 -116l8 -38v-38q0 -16 4 -30t7 -31t2 -32t2 -36t8 -46t7 -51q4 0 3 -6t-1 -8l4 -20l-2 -22q0 -10 3 -17t8 -38t7 -83t14 -106q18 -36 15 -66t5 -50q4 -2 12 -2l64 8l18 -2q6 -10 13 -18t11 -18q-4 -14 -14 -20t-14 -16l-40 8l-20 -4l-20 4 q-16 0 -24 -9t-26 -14t-34 -3q-62 4 -92 -30l-78 -14q-16 0 -30 14v8q0 24 2 27t11 10t9 11t5 9t25 9t59 15t39 33q0 10 -4 18t-7 24t-4 41t-3 47q-24 48 -24 90l4 34q0 10 -4 21t-8 32t-3 53t-2 56t-7 37t-6 26t-1 24t1 28t-11 39t-11 44l4 36q0 6 -4 16l4 46l-4 28l4 32 l-14 166l4 12l-8 58q0 18 8 28q-10 14 -9 40t1 42v12q-4 6 -18 16t-20 10t-10 -7t-16 -3h-6l-56 -8q-44 0 -44 25t7 33t28 13t45 9q66 10 98 26q12 2 25 1t26 2t23 9t26 6l52 -8l24 6q8 0 14 -4t14 -2q28 -28 28 -44t-9 -25t-21 -9l-36 6q-22 0 -44 -18q-6 -10 -9 -42 t-6 -50t-3 -52z" />
<glyph unicode="J" horiz-adv-x="820" d="M34 146q32 40 81 40t64 -4t23 -20q16 -2 31 -4t19 -24v-4q2 -8 -7 -15t-11 -20t-37 -13t-44 8t-18 8t-18 -5t-20 -6t-17 -5q-28 -14 -35 -33t-27 -33q2 -6 2 -14l-12 -56q0 -4 6 -3t9 1t5 -16q8 -54 52 -66q6 -10 14 -16t14 -16q14 0 24 -8l98 -16l40 4q10 0 16 -2 q22 12 49 13t49 13v8q4 2 13 3t16 6t13 14t20 17q60 32 88 82q12 22 18 24v6l16 62l8 10l-2 16q0 8 9 21t9 59l-12 86q-4 2 -4 8q4 4 4 11t-5 20t-7 23t-1 17t1 23t-6 40t-9 43t-2 38t-2 33t-8 24t-5 22l4 24l-14 44l4 14l-4 18v32l-6 24q0 4 3 4t3 5t-6 19t-9 23t-2 21 t-1 24l-8 20q-4 16 -4 30q0 28 -8 47t-8 29v16q0 66 -10 81t-14 35t-5 50t-4 53t-7 35t-7 27t-4 43t-6 39t-17 17t-16 22h-2q-22 0 -46 -9t-42 -9t-35 8t-17 24q0 26 40 32q12 8 20 20q22 4 58 17t54 13l2 2l4 6q4 2 7 1t10 -1t23 10t26 14l4 -4l58 14q8 0 10 -2 q56 24 79 24t45 -16q4 -20 4 -28q0 -38 -25 -50t-46 -15t-25 -12t-10 -12t-9 -3t-9 -4t-15 -19t-9 -30t6 -27t10 -30t5 -40t7 -33t10 -15t4 -8l-4 -8q6 0 6 -20t2 -26t5 -7t5 -8t1 -20t1 -23l14 -38q4 0 4 -4q-4 0 -4 -4t9 -36t9 -54v-4l8 -8v-2l-4 -10q0 -22 9 -41t13 -34 t3 -22t3 -13t8 -20v-28l6 -68l8 -20q4 -22 4 -42t6 -42l8 -20l12 -94l-4 -16l8 -34l-10 -66l14 -68l-12 -122q0 -18 -8 -28t-8 -24q-18 -6 -18 -38q-16 -6 -21 -26t-9 -29t-16 -13l-6 -40q-10 -6 -20 -10t-16 -11t-7 -15t-5 -14q-18 -6 -17 -10t-5 -9t-8 -3t-6 -4l-4 -6h-10 l-4 -8q-22 -12 -26 -24q-12 -4 -17 -6t-9 -16q-16 -12 -39 -21t-41 -17q-8 4 -16 4l-50 -6q-10 0 -13 -7t-11 -9h-4q-4 0 -10 -3t-12 -2t-12 1l-44 -12q-6 0 -12 3t-11 5t-12 1t-12 -1t-55 20l-20 -2q-12 0 -33 16t-33 23t-16 11q-2 14 -14 26q-22 20 -23 46t-15 44 q-6 24 -6 67t12 69t17 28t8 7t3 14t4 17q14 4 18 8l4 8h8z" />
<glyph unicode="K" horiz-adv-x="1286" d="M1356 218l10 -40v-2q0 -20 -12 -30q-24 -20 -24 -38q4 -16 -6 -12q-12 0 -10 -5t-4 -12t-34 -26t-42 -17l-24 -22l-26 4h-6q-26 -16 -62 -16t-50 14t-28 26t-22 18t-10 18q-6 2 -13 4t-5 12q-42 10 -56 42q-6 12 -10 24t-16 18l2 24q0 6 -12 7t-16 7q0 18 -6 24t-9 5 t-5 3q-8 16 -13 28t-23 18q-4 20 -21 47t-27 37t-18 14t-12 8q-4 8 -8 19t-12 23t-13 26t-11 30t-27 44t-31 34q-56 34 -80 34h-34q-22 0 -26 -8q-16 4 -31 4t-43 -12t-45 -15t-22 -9t-9 -10l-4 -16l10 -52l-4 -48l6 -78l-2 -62v-26q0 -24 5 -34t5 -22t-2 -23t-4 -23 l-4 -172q6 -4 16 -4h22q22 -4 22 -22l-4 -32l-20 -12q-24 -14 -47 -13t-38 -6t-32 -12t-35 -9t-34 -8t-25 -4t-18 7t-15 3q-4 16 -4 28q0 18 36 31t44 25q8 22 8 50l-4 76l6 94l-10 56l4 22l-8 120l4 38l-8 34l2 36q0 8 -2 14t-4 13t-1 12t1 15t-3 9t-3 21t-8 46 q-14 42 -14 112v72l2 106q0 38 -9 74t-9 76l12 66l-8 62l4 30q0 14 -2 18l2 34q0 16 -8 34t-10 29t-8 15t-8 10q-22 6 -44 6l-48 -8q-8 0 -11 5t-9 5l-6 -2q-4 14 -9 24t-5 24v8q24 14 84 20t80 20q18 0 33 -1t28 2t25 7t22 4l48 -10q6 0 20 4q10 -12 18 -20t8 -26 q-12 -12 -30 -18q-12 -10 -30 -14q-36 -12 -36 -120v-38l12 -56l-6 -24l4 -8q0 -4 -4 -8l8 -24q2 -24 0 -49t-2 -45q0 -28 8 -58t7 -66t-1 -73t7 -80t11 -85h10q32 0 45 17t29 39q36 20 76 66q54 60 64 63t10 10t18 25t40 32q16 36 46 63t54 55l16 24q4 4 12 11t12 13v8 q4 10 11 17t11 17q42 28 74 76q10 4 17 14t19 23t26 25t20 38q8 10 17 12t9 14t-6 17t-12 11q-20 12 -20 34q0 34 52 34l82 -4q18 0 34 -8t34 -8l38 6q14 0 30 -10t16 -32q0 -34 -70 -34l-42 4q-24 -4 -28 -16t-16 -24t-22 -26t-22 -28l-24 -30q-4 -6 -9 -14t-15 -8 q-4 -22 -19 -32t-22 -20t-7 -12q4 -8 -10 -13t-17 -17t-12 -9t-22 -18t-9 -25q-16 -8 -34 -29t-18 -25t-8 -11t-16 -12t-14 -19q-8 -6 -16 -9t-13 -8t-6 -11t-6 -14t-17 -18t-12 -26q-6 -6 -30 -18q-28 -44 -58 -58q-4 -26 -25 -39t-27 -31q10 -10 30 -11t32 -5t21 -9t17 -8 t14 -2t10 -3l4 -8h12q14 -8 35 -31t26 -25t8 -2t5 -3t1 -6t5 -10t19 -17t19 -19t5 -13t2 -9t8 -11t10 -16t8 -22t12 -28t27 -30t28 -33t23 -40t22 -38t14 -23t9 -12t4 -11t20 -25q2 -4 2 -10q0 -10 48 -58l12 -24t15 -27t31 -28t36 -29q10 0 14 7t14 7q0 -4 13 -4t15 1t13 7 t17 6t10 4l16 14q4 4 9 6t12 9t11 18t16 19q-2 2 -2 26l-10 8q-2 4 -1 7t1 10t-11 21t-15 26h-6q-10 0 -14 4t-10 8q-4 -6 -12 -6t-16 -4l-4 -8q-20 -8 -30 -8t-14 2q-8 10 -8 33t18 53q4 6 16 7t21 4t15 7t16 4l50 -14q4 -4 3 -8t5 -7t9 -2t6 -2t9 -19q30 -76 40 -80v-10z " />
<glyph unicode="L" horiz-adv-x="808" d="M190 1490q-10 6 -33 6t-35 10v18q2 26 28 32t59 6t66 -2t47 8q12 -4 33 -9t20 -20t-11 -19t-31 -8t-31 -16q-6 -10 -5 -17t-11 -15q12 -78 1 -181t-4 -177t9 -152q-6 -4 -6 -6l4 -4q6 -16 3 -67t9 -75q-4 -4 -4 -10l2 -20l-6 -8q0 -6 7 -14t-5 -20q2 -12 7 -23t-5 -29 l4 -52q0 -46 -3 -97t3 -109l-6 -14l8 -4q2 -16 2 -46v-134q0 -50 -7 -67t-7 -33l-2 -44q34 -14 64 -12t46 2l36 6l148 -14l16 -6q12 6 44 -2q28 -2 41 21t15 37t0 22q-2 24 18 52q36 42 60 -4q16 -24 10 -34q-18 -36 -12 -46t8 -16q-8 -14 -12 -34l2 -26l-6 -20 q-2 -10 4 -22q8 -24 -6 -58l-16 -30q-24 -10 -48 -10q-20 4 -34 14q-6 8 -6 19t6 15q-12 6 -10 12t0 18q-6 10 -52 22t-50 12t-148 8l-94 -10q-10 0 -31 2t-34 -7t-25 -12t-26 -1q-32 8 -48 0l-6 6q-16 2 -30 0t-25 0t-18 3t-15 5q-12 46 24 58q12 2 23 3t22 5t21 7t20 7 q6 12 6 32l10 58q0 6 3 11t1 9q-14 24 -5 76t5 88l-6 32q0 4 2 4t2 6q-12 26 -4 91t7 100t-3 47t2 40l-4 44q-2 24 2 49t-2 47l-12 208q0 6 6 12q-4 12 -2 23t0 25t0 25t-2 12t-4 11l8 48q2 18 -1 45t5 63q20 110 10 214z" />
<glyph unicode="M" horiz-adv-x="1780" d="M258 1384l6 36q-2 16 5 29t9 20t1 12t-1 9l8 22l-4 38q0 78 12 110t12 48q10 6 20 15t22 13q10 -4 18 -7t19 -13t23 -47t25 -79t26 -83t31 -61q0 -54 18 -76q-2 -4 -2 -11t6 -35q32 -142 48 -158v-12l24 -86q6 -24 10 -47t22 -41q0 -36 20 -58q4 -22 9 -54t21 -48 q10 -82 27 -103t15 -37q-6 -22 8 -46t15 -38t11 -24q22 0 39 18t21 40q6 0 22 22q82 128 106 140q4 22 17 33t11 33q8 6 13 13t15 11q14 42 42 60q2 6 3 13t5 13q12 4 17 13t15 13v2q0 12 11 19t16 16t10 29t13 24l10 4q14 16 21 39t25 39v12h8q4 4 5 14t11 12l-2 4 q0 28 16 45t14 49l16 12q4 4 4 11t2 11l20 30q10 16 16 35t24 29v8q0 16 11 31t15 26t5 20t4 13t5 4q12 0 8 14t7 14t11 10l8 54q0 12 -2 18q12 8 12 18t-4 14q2 8 8 11t10 7v8q0 16 13 25t23 17q14 -2 22 -11t18 -19q-10 -12 -10 -43t-7 -49t-7 -34t6 -27t6 -21l-4 -30 l4 -62q0 -18 -4 -28q2 -12 6 -21t6 -20t1 -22t-1 -21l12 -38q0 -4 -2 -4t-2 -8t9 -41t9 -61v-4l-4 -2l6 -22l-6 -28l12 -40l-4 -46q0 -6 8 -46l-2 -30q0 -20 7 -29t11 -25l4 -44q2 -10 4 -19t4 -22t0 -28t-2 -37t10 -62q6 -84 19 -133t13 -68t-8 -33q18 -32 17 -74t4 -65 t9 -34t4 -28t7 -40t9 -45l16 -2q32 0 57 8t33 14t18 5t16 -1l26 4q10 0 14 -7t14 -9q4 -4 4 -15t-4 -23q-18 -12 -27 -12t-13 4q-20 -18 -27 -19t-29 -1l-8 -2q-14 0 -27 -6t-27 -8l-32 -4q-18 -6 -34 -17t-36 -11l-44 4q-12 0 -42 -12l-24 2q-16 0 -33 -8t-37 -8h-10 q-20 16 -20 34t4 30q12 10 67 18t73 20q-4 14 -3 27t-2 29t-5 19t-2 19t-7 34t-11 37t-3 44t-1 49l-8 50l4 14q0 22 -9 54t-12 47t-1 22t2 15t-6 14q4 8 4 17t4 15q-12 50 -13 101t-7 99l-8 24q-2 8 -1 17t1 17l-8 36l4 16v18q0 54 -10 60q6 6 3 19t3 19q-6 14 -6 32l2 56 q0 14 -5 43t-4 37t-1 20l-14 26v24q0 18 -8 24h-2q-12 2 -24 -22q-28 -16 -28 -32t-6 -16t-10 -4t-2 -8t-6 -15t-10 -20t-6 -16t-9 -12t-8 -11t-2 -14t1 -16t-12 -24t-16 -30q-6 -2 -9 -5t-13 -3q-4 -32 -20 -50t-30 -44q-10 -8 -26 -14q-2 -6 -7 -17t-14 -30t-5 -29 q-2 -4 -6 -4t-8 -4t-4 -11t-12 -11q-22 -10 -19 -22t-7 -26q-6 -26 -24 -39t-23 -21t-7 -15t-6 -15l-8 -4q-28 -56 -34 -62q-8 -8 -36 -50l-22 -34q-10 -14 -10 -16q-46 -14 -56 -74q-24 -14 -34 -24q-40 -86 -74 -86q-22 0 -31 9t-23 13q-12 34 -22 42v16q0 26 -6 34 t-14 30l-20 100q-2 10 -10 15t-10 28t-12 29l2 12q0 20 -19 66t-27 50q2 2 2 14t-8 47t-16 51t-10 34t-8 38t-6 32v2l-8 10l-4 28q-2 10 -6 22l-8 24l-4 28q-6 12 -14 23t-16 23v32t-10 28v16q0 40 -24 40q-6 0 -5 -11t1 -15v-4q-8 -6 -8 -27t12 -29q-10 -24 -9 -58t-3 -62 l-4 -28l4 -20l-8 -36l4 -42v-28q0 -14 -4 -26l-8 -24q-4 -18 -2 -37t-2 -34t-4 -19q-4 -16 -4 -24v-18q0 -18 -5 -36t-7 -37t-1 -37t-2 -33t-4 -21t-2 -11t-1 -11v-20l-8 -40q-4 -12 -3 -24t1 -31t-4 -29q-16 -26 -13 -56t-5 -57t-8 -71t-10 -94q26 -30 39 -30t13 -12 q0 -4 8 -8q-2 -14 -6 -19t-2 -21h-4l-14 -4h-4q-2 2 -6 2l-6 -10q-8 4 -29 4t-27 -8q-16 8 -41 8t-28 -9t-13 -11q-2 2 -8 2l-90 -12h-38q-34 0 -39 7t-7 10t-10 5q-2 2 -2 6l8 16q-6 6 -6 11t4 13q26 18 57 18t59 12q6 -2 21 -2t27 4l24 8q2 8 2 20l-2 44l8 58l-4 30 q0 10 5 29t4 31t1 25t5 23t7 22t4 47t11 70t11 69l-4 24q0 6 3 8t5 16t3 35t6 48t5 41l-4 22q0 10 2 20q16 44 16 92v28q0 6 -2 12q12 36 12 50v30l8 36l-4 22l4 24l-4 26l8 36l-2 50l10 70q0 4 -3 8t-1 7t2 9z" />
<glyph unicode="N" horiz-adv-x="1108" d="M1088 1570q42 0 42 -22q0 -14 -8 -24l-22 -20q-12 -12 -25 -12t-17 5t-12 9q-18 -10 -38 -15t-36 -17q-10 -22 -9 -47t-2 -40t-11 -26t-8 -13t2 -40t-9 -61t-11 -41l6 -44v-6l8 -8v-2l-12 -72l4 -14l-6 -22q-4 -22 -4 -42v-44q0 -26 -8 -45t-8 -35l4 -56v-22 q0 -12 -4 -18t-4 -10l4 -4q-4 -20 -4 -30l4 -28l-12 -92l4 -18l-4 -16l12 -32q-2 -2 -2 -23t-6 -27q6 -18 6 -36l-4 -66q0 -18 2 -26q-4 -8 -4 -14l8 -20l-10 -14l12 -32t10 -32q-20 -16 -24 -36q-2 2 -10 2t-18 -8t-22 -8l-2 2q-16 2 -26 24t-21 37t-19 39q-10 14 -23 31 t-13 33q-16 4 -19 21t-11 27q-14 2 -8 16q-6 6 -13 7t-14 15t-13 19t-10 12t-3 11t-10 20t-29 30q-14 16 -19 36t-31 38q-4 22 -22 39t-14 41q-20 16 -24 25t-8 15t-9 14t-9 14t-4 10t4 8q-2 4 -4 7t-5 9t-7 10t-7 9t-2 9t-3 8q-14 6 -18 25t-14 31q-10 26 -23 47t-17 39 t-7 18t-7 4t-2 8t-4 8q-6 10 -15 15t-17 19t-14 34t-30 22q-8 -6 -8 -16l12 -44l-4 -52l12 -102l-4 -38l10 -40l-4 -18q0 -44 10 -82q14 -50 14 -122v-110l4 -26l-2 -46l8 -294q0 -48 38 -48l38 6q34 0 34 -32q0 -10 -14 -22q-20 -18 -34 -18h-12l-64 4q-60 0 -90 -24 q-6 -2 -12 -1t-12 1l-38 -8l-72 -10q-28 0 -28 22q0 8 8 18t16 10l12 -2q4 0 8 3t14 7t27 7t33 9q16 12 28 26q-8 38 -8 84l4 44q0 2 -3 8t-5 22t-3 34t-3 36t-2 24l6 58l-6 96q0 30 3 60t-3 58l-8 98q-2 8 -4 14t-2 16l2 46l-8 62l4 26l-8 56l4 40l-8 182l-6 174v36 q0 16 2 32q4 4 4 8l-4 8q0 8 6 23t3 36t17 25q4 0 2 10q4 2 26 2q36 0 56 -72q8 -10 32 -28q2 -20 14 -35t19 -29t10 -22t7 -16l22 -28q4 -8 4 -16t5 -19t18 -31t21 -35t14 -29q6 -18 19 -36t13 -27t6 -20t16 -24t15 -23t5 -17t3 -10t5 -4t5 -5t3 -10t4 -12l8 -4 q4 -8 11 -31t22 -42t28 -49t27 -48l14 -22q4 -8 6 -16t6 -14l16 -18q6 -10 9 -20t9 -18l8 -4q4 -8 18 -30t36 -59t37 -53t22 -35t27 -25q10 4 8 13t-2 17l4 54l-4 134q0 28 5 54t7 46t1 32t-1 24l8 46v32l8 50l-4 60q0 44 4 88q4 0 4 2l-4 50l4 68l-2 62q0 32 7 63t10 53 t6 29t3 14t-4 11l10 32q0 24 -12 29t-23 9t-15 8t-13 2t-17 -2t-12 10q0 8 -8 10q2 18 16 24t22 18q12 -4 22 -4l34 8q16 0 28 -8t23 -12t20 -3t19 1h8l2 -4l10 2l38 -6z" />
<glyph unicode="O" horiz-adv-x="1262" d="M1114 1120q0 -54 28 -78v-6q0 -16 11 -44t11 -64t16 -48q-4 -6 -10 -12t-6 -12t5 -7t5 -7l-2 -4q2 -16 -2 -30t-4 -27t2 -19l-16 -34q2 -8 2 -20q0 -36 -36 -50q2 -8 2 -26t-5 -37t-7 -39q-24 -12 -22 -34q-18 -6 -29 -21t-21 -25t-16 -13t-12 -10t-10 -17 q-6 -16 -18 -28q-12 -8 -12 -15t-12 -22t-41 -28t-49 -35h-6l-22 -8q-6 -6 -12 -18q-10 -14 -46 -8q-12 -6 -27 -15t-32 -9t-17 -7t-13 -7t-19 -4h-2l-28 8q-20 -8 -36 -8l-50 12q-4 0 -12 -4q-8 10 -20 12t-20 8q-6 -2 -16 -12h-4l-38 -2q-22 0 -26 14q-20 -6 -49 15 t-33 39h-6l-24 8q-6 8 -12 15t-8 17q-16 4 -26 15t-30 11q-4 12 -13 18t-17 12q-12 40 -48 74q-38 102 -49 126t-11 28l6 20l-4 10q0 4 2 4t2 4l-8 46l4 30l-10 22l14 56v24q0 10 4 19t8 26t4 42t6 46t15 28t5 31q24 32 33 61t9 33q0 12 6 18q10 6 9 16t5 14t12 12t12 22 t16 28l8 4q6 18 74 66q6 6 7 12t5 10q8 2 32 14l4 8l32 16l2 8q4 2 10 1t27 8t49 26t53 17t30 6t16 9t25 1t24 10h2q10 0 16 -12q24 12 44 12t20 -3t4 -5t8 0t12 2t23 -15t41 -15l38 2q24 0 38 -9t32 -11q4 -2 4 -7t4 -9h8q8 -6 13 -13t11 -11l20 -12q8 -6 14 -13t16 -13 q6 -4 11 -12t11 -15t12 -11t10 -13t4 -17t4 -17t6 -7t2 -9t5 -24t13 -28t14 -29t12 -16v-16zM250 922l-10 -102q0 -14 3 -23t5 -28t1 -46t3 -61t24 -68t24 -76q16 -22 31 -46t31 -46q40 -56 88 -68q22 -40 82 -40q18 0 20 -4h30l94 -10q12 0 23 5t21 3q16 14 30 15t34 7 q4 2 3 9t5 9t18 2q8 22 32 30t43 25t37 33t33 43t25 37l22 20q4 4 4 11t13 13t16 11t2 9t3 8q12 4 11 13t-1 20t7 18t1 19q14 10 16 27t7 30t12 20t11 17q-4 4 -4 24v20q18 28 18 53t-10 45q-12 26 -12 67t-12 51t-12 16v14l-8 44q0 10 -9 20t-12 20t-1 20t-4 26t-15 22 t-9 34q-22 8 -26 32q-22 6 -32 25t-19 23t-10 3t-5 -1h-2l-4 10q-12 8 -24 8l-34 -8q-18 0 -34 14t-30 14t-24 -6q-6 6 -8 13t-8 11q-16 2 -24 8t-22 12l-8 -2l-40 8q-4 0 -9 -5t-15 -4t-18 -1t-14 -5t-14 -5t-20 0t-21 -2t-14 -10t-15 -2q-12 -4 -17 -13t-47 -9 q-32 -50 -82 -68q-4 -16 -16 -25t-22 -21q-12 -14 -30 -58t-18 -62l4 -16q0 -14 -8 -26t-12 -23t-2 -22t-1 -22t-9 -23q-14 -24 -10 -54z" />
<glyph unicode="P" horiz-adv-x="920" d="M200 1368l-8 28q0 28 -16 44l-8 4q-6 8 -10 17t-12 17h-16l-90 -8q-36 0 -44 20t-12 52q20 22 54 22l96 -12l42 4l44 -6q16 0 28 6q20 -10 57 -10t60 -3t51 -5l46 -4q12 -2 18 -5t15 -6t34 -3t29 -5t18 -11t22 -5t14 -3l4 -10h8q6 -4 10 -10t9 -10t13 -8t13 -8t9 -9t9 -9 t13 -6q18 -6 48 -42q4 -8 7 -17t7 -14t8 -4t10 -5q22 -20 48 -84q32 -64 32 -76t4 -20q12 -14 12 -44v-28q0 -58 -12 -82t-12 -30t2 -6t2 -14t-19 -44t-23 -40t-14 -16q-4 -24 -20 -39t-22 -39q-16 -6 -43 -28t-43 -22q-4 -8 -7 -15t-12 -11t-16 -3t-19 -5t-24 -20t-36 -14 l-40 4q-20 0 -40 -14h-28q-54 0 -82 -12q-16 -46 -16 -144l4 -62l-4 -64l8 -50q0 -10 -4 -14l4 -14q-2 -6 -2 -40l-4 -96v-22q0 -10 2 -20q12 -4 16 -4l32 4l12 -2v-4q0 -8 6 -11t6 -14t-10 -19t-16 -18q-4 -2 -14 -2l-36 6q-14 0 -27 -11t-27 -15q-2 4 -4 4t-13 -4t-24 -3 t-29 -1t-33 -5t-35 -1q-4 10 -10 20t-6 21t8 17t20 9t25 5t21 6q8 14 8 30l-6 36l2 48l-4 134l4 56v58q6 4 5 16t-1 30t6 84l-4 4l4 40l-10 42l10 12l-4 16q0 6 6 8t4 7t-2 17l8 94l-4 46l8 56l-8 46l4 36l-8 60l4 28l-4 34q-2 16 -1 36t-13 34v12l-14 106q0 14 -8 22 q-2 6 -1 12t1 14zM360 846l16 -124q12 -2 24 -7t24 -5t22 3t26 6t35 3t39 6q12 10 17 9t18 4t27 19t32 14q12 20 32 28q12 24 27 43t21 37t6 30t4 26t8 22t7 20t3 36t6 40q-6 28 -6 54t-8 50t-18 38t-8 36q-24 26 -30 56q-10 10 -20 18t-16 26h-8q-20 0 -21 12t-11 22 q-10 4 -33 26t-35 32t-14 14q-72 28 -108 28l-82 -4q-20 0 -32 2q-4 -16 -4 -31t9 -27t12 -25t2 -23t-1 -20v-6q0 -8 5 -22t4 -27t2 -23t10 -17t7 -39l6 -38q0 -12 -2 -20v-6l-2 -2q8 -8 8 -36v-44l8 -46q0 -8 -4 -12q2 -2 2 -8l-2 -6v-2l4 -2v-56l-4 -16l4 -26z" />
<glyph unicode="Q" horiz-adv-x="1262" d="M1280 26q-16 0 -16 28t8 36t12 20q12 4 25 7t27 7q16 -4 29 -12t29 -14q8 -8 11 -16t8 -14t9 -7t8 -5l4 -12q16 -12 14 -23t3 -24t5 -23t-6 -24t-2 -30q-10 -16 -20 -31t-18 -35q-16 -4 -31 -15t-33 -17l-2 -2q-6 6 -12 6t-8 -6l-22 2l-14 -2q-26 0 -52 7t-50 11 q-10 12 -21 20t-20 18t-26 13t-22 25t-21 22q-8 0 -14 7t-20 18t-18 23q-30 0 -48 36q-10 18 -26 24v8q-10 8 -19 11t-13 15q-22 2 -33 12t-27 20q-16 -4 -23 -13t-19 -19l-20 -2l-16 2l-20 -12t-22 -10l-28 -4q-6 -2 -6 -8t-12 -6t-18 -4h-2l-28 10l-34 -10l-50 12 q-10 0 -14 -2q-10 10 -20 12t-20 8q-6 -2 -16 -12h-4l-40 -2q-20 0 -24 14q-20 -6 -49 15t-33 37h-6l-24 8q-6 10 -12 17t-8 17q-18 4 -27 15t-29 11q-4 10 -13 16t-17 12q-14 42 -48 74q-36 100 -49 126t-13 30l6 18l-4 12q0 4 2 4t2 4l-8 46l4 30l-8 22l12 54v26 q0 14 14 38q4 22 4 48t6 47t15 28t5 31q20 28 30 59t10 39t5 11t11 7q2 4 1 13t5 13t12 12t12 22t16 26l8 4q10 28 74 68q6 4 7 10t5 10q18 6 34 20t28 21t19 7t16 4t21 12t21 13t16 5t20 5t20 9t23 4t21 6t15 9t25 1t25 10h2q10 0 16 -12q24 12 44 12t19 -3t16 -3t30 -16 t43 -16l38 2q22 0 37 -9t26 -11t11 -6t4 -8h8q6 -6 11 -13t11 -11l22 -12q8 -6 14 -14t15 -13t18 -19t16 -18t11 -13t4 -18t4 -18t6 -8t2 -9t5 -22t13 -28t14 -29t10 -15v-16q0 -54 30 -78v-6q0 -16 7 -35t11 -36t4 -45t16 -40q-4 -6 -10 -12t-6 -12t5 -7t4 -5t0 -14t-3 -23 t-4 -26t2 -19l-16 -36q2 -6 2 -18q0 -36 -38 -52q2 -8 2 -25t-4 -37t-6 -40q-22 -10 -22 -32q-18 -6 -30 -22t-26 -30l-20 -14q-2 -4 -1 -6t-3 -6l-8 -4l-30 -52q8 -28 38 -42q6 -30 30 -48t38 -34t23 -29t18 -20t16 -7t11 -4q2 -4 1 -6t6 -12t22 -19t23 -31q32 -12 56 -38 q6 -2 11 -1t9 1t16 -4l4 -8q40 0 51 8t20 16t16 13t13 13l2 32q0 32 -12 42t-23 15t-23 15q-12 -4 -23 -12t-21 -8t-12 2zM672 106l50 8q22 20 62 24q0 12 18 18t18 20t-15 27t-17 33q-20 14 -26 19t-20 27v8l-8 4q-4 8 -7 20t-11 12q-14 0 -14 46l-6 18q0 2 11 14t33 12 q46 0 64 -44l8 -4q12 -14 23 -31t20 -26t17 -13t15 -11t14 -20t21 -15q22 8 44 56q2 2 2 5t3 6t5 2t6 1q2 4 1 7t8 10t39 36t26 40t-4 19t6 14t2 18q14 12 16 29t7 29t12 19t11 19q-4 4 -4 24v20q16 26 16 52t-8 44t-10 37t-2 39t-5 31t-12 17t-7 12v14l-8 42q0 12 -10 22 t-13 20t-1 19t-4 26t-14 23t-8 34q-22 6 -26 32q-22 6 -31 23t-19 23t-11 5t-5 -1h-2q-8 16 -26 16l-34 -8q-20 0 -30 8q-18 20 -31 20t-33 -6q0 12 -4 16t-8 10q-14 2 -23 8t-23 12l-10 -2l-42 8q-6 -10 -18 -9t-21 -1t-14 -5t-13 -5t-20 0t-20 -1t-17 -9t-13 -6l-6 2 q-16 -22 -21 -24t-35 0q-48 -52 -84 -66q-4 -18 -17 -27t-20 -17t-9 -16t-7 -13t-18 -35t-13 -44v-26q0 -18 -8 -29t-12 -23t-2 -23t-1 -23t-8 -22t-8 -24t-2 -31t-1 -34t-5 -35t-3 -32t3 -23t5 -29t1 -46t3 -60t24 -69t24 -75q16 -22 30 -46q58 -98 118 -114q8 -14 32 -30 t33 -16t9 4q4 0 12 -4l14 4l22 -6q8 0 12 2t12 -2q20 -2 40 -5t36 -3z" />
<glyph unicode="R" horiz-adv-x="1224" d="M1224 -24l-12 2q-16 26 -16 36t7 25t12 18t7 2t7 6t27 21t39 14t34 -12t37 -14q10 -4 11 -16t7 -22h8q4 -4 5 -14t4 -16t9 -10t9 -11t0 -18t7 -17q-2 -6 -2 -20l2 -54q0 -36 -13 -43t-20 -25t-14 -28t-17 -9t-10 -9q-8 -12 -20 -20h-6l-22 4q-8 -6 -17 -9t-13 -7t-8 -4 l-18 4q-4 -10 -13 -9t-21 1t-16 -7t-27 -7t-49 26q-28 4 -46 25t-29 32t-15 11t-8 4t-3 8t-2 7t-5 2t-6 4t-5 7t-11 6q-4 6 -3 12t-4 11t-13 17q-26 46 -38 58q-4 12 -7 25t-13 19q0 20 -10 36t-22 71t-62 169l2 26q-4 6 -15 25t-15 25t-3 14t-3 16l-6 4q-6 16 -6 30v2l-8 4 q-2 8 -2 16q0 14 -11 29t-29 57l-8 4q-4 10 -4 21t-4 21q-10 28 -35 55t-49 27h-2l-4 10q-8 4 -17 7t-15 9q-6 -2 -18 -2l-54 4q-18 0 -30 -6q-16 0 -19 7t-13 11q-26 -28 -64 -26q-18 -40 -18 -87t9 -74t9 -37l-6 -20l8 -28l-2 -26l10 -70l-6 -114l-12 -172q0 -52 12 -96h4 l44 4q16 0 24 -8q2 -8 2 -22v-14q-2 -2 -14 -6t-27 -11t-30 -12t-21 -11q-12 4 -18 4l-48 -8l-44 4q-14 0 -18 -5t-16 -5t-13 -4t-7 -6t-12 0t-12 2h-2q-2 -8 -14 -8h-10q-6 24 -6 40q0 28 48 33t58 17v6l-8 112l8 74l-6 36l6 24l-4 20l4 68q0 64 -6 96l-8 44l2 28 q0 10 -4 21t-6 25t-1 30t-5 32q0 20 8 28q-10 20 -10 54l6 90l-8 70l2 132l-4 56l2 42l-6 40q0 22 4 42t7 51t5 71t7 67t8 39t3 28l-2 18q-8 18 -33 18t-34 -4l-18 -8t-27 -7t-50 -8t-50 -5t-26 2q-12 12 -12 36t25 32t57 11t64 23q4 -2 12 -2l56 8q4 0 5 4t14 7t34 4t45 5 l24 8q10 2 18 1t22 -1t26 4l24 8q12 -6 24 -6l78 10h58q44 0 109 -19t73 -19t17 -3t14 -8t14 -9t16 -4t15 -4l4 -8q36 -18 46 -32t22 -16l34 -56q4 -4 8 -7t8 -8t3 -11t2 -11t8 -8t9 -8t3 -11t2 -12t6 -10l6 -8t2 -11t2 -20t12 -31t9 -45t-8 -58t-12 -61q-12 -10 -13 -24 t-7 -22t-13 -12t-11 -9t-6 -12t-6 -11l-8 -4q-6 -12 -12 -23t-10 -21q-14 -12 -29 -21t-29 -20t-26 -22t-24 -18t-19 -7t-17 -4t-20 -14l-20 -20h-14q-22 0 -32 -6q4 -6 21 -22t28 -27t16 -10t7 -1q2 -4 1 -6t5 -13t18 -22t26 -33t27 -54t22 -50t12 -21t14 -23t32 -80 t34 -96t21 -61t10 -39t6 -26l8 -4q4 -6 6 -28t6 -32l6 -2q2 -6 2 -22t7 -23t11 -18t5 -19t6 -20t16 -27t11 -33l36 -50q4 -6 7 -13t13 -21t41 -31t50 -17t27 4t33 12t49 36q6 18 18 30t12 26l-6 28v4q4 4 4 6l-10 26q0 2 4 12q-10 14 -18 26t-28 16l2 2q0 8 -10 7t-10 7 q-4 -6 -8 -6h-10q-12 0 -22 -20t-32 -20zM890 1040q-6 4 -6 39t8 51q-10 6 -10 18l-14 58q0 6 2 10q-12 16 -17 34t-13 34q-8 6 -14 12t-18 10q0 34 -28 48q-12 6 -26 11t-26 13q-8 -2 -24 -2t-33 9t-61 9t-102 -12t-116 -16q-6 -20 -13 -39t-7 -27q-14 -20 -14 -68l-8 -140 l10 -64l-4 -42q0 -82 7 -124t7 -54l-4 -38q0 -4 5 -26t9 -24l16 -2q16 0 30 6t48 14t71 8t53 -4q24 20 56 26q48 6 80 38q12 16 34 26q4 4 4 8t4 8t8 4t14 7t29 36t27 47l8 20q18 10 16 26t-2 24z" />
<glyph unicode="S" horiz-adv-x="814" d="M616 1498l14 2q8 0 8 -4q12 -8 14 -19t16 -11q18 0 25 21t13 27t22 11t23 5t17 -16t10 -33t-10 -29q-18 -26 -16 -38t-8 -22q-52 -66 -58 -114l-16 -18q-52 -50 -64 -50t-22 16t-10 20t5 11t5 15q-4 16 28 48v12q0 6 15 19t15 31t-15 27t-15 19t4 18q-62 16 -68 16 l-14 20q0 4 -4 7t-8 2t-8 5q-4 0 -4 2t-4 5t-8 2t-14 9q-12 4 -23 4t-14 -3t-11 -6t-21 -6t-25 -8t-12 -10t-13 -5t-18 -13t-17 -9v-6q2 -16 -9 -23t-15 -17t-3 -20t0 -15t-5 -9q-8 -8 -8 -28v-20q0 -8 5 -17t8 -18t1 -20t1 -18t6 -10t3 -5v-16q0 -6 20 -39t36 -69l42 -82 q8 -10 15 -17t13 -19t12 -26t16 -26t22 -26q24 -24 24 -34t20 -24q38 -50 60 -109t58 -109v-6q-2 -10 5 -18t12 -18t7 -23t6 -21l6 -12q22 -28 22 -100v-68q0 -20 -4 -36l-8 -12q-8 -36 -18 -44q-2 -4 -1 -6t1 -6v-4l-8 -2l-14 -30q-12 -22 -36 -52t-31 -35t-11 -5t-7 -4 t-2 -9t-9 -9q-4 -4 -4 -8t-9 -9t-12 -9t-3 -8t-4 -8q-10 2 -13 -5t-15 -3q-14 -30 -59 -46t-53 -28h-6q-20 0 -37 -8t-35 -8l-26 4l-30 -2l-16 2q-8 10 -16 14t-18 14q-6 2 -16 3t-14 7q-10 0 -9 10t-3 16q-10 4 -30 8q-4 18 -20 20q-28 8 -40 40q-18 78 -40 96q-4 28 -4 56 t7 67t13 75q2 4 8 7t8 7v8q6 6 13 10t14 9t11 12t15 13t40 13t47 7t29 -6t21 -12t16 -4t10 -4q44 -18 53 -32t13 -17t3 -6t1 -5l8 -4q2 -4 6 -17t13 -33t9 -38t-12 -28q-14 -4 -27 -6t-27 -6q-36 20 -36 46v2l-8 4q-6 28 -14 40t-10 28q-12 0 -14 12h-74q-36 0 -36 -14 q0 -4 -4 -12q-22 -14 -22 -23t-11 -29t-11 -54t20 -64t27 -52t15 -25t11 -9t3 -9t4 -9t12 -12t14 -16h2q10 0 17 -5t21 -3q8 -14 24 -19t30 -17q24 12 48 14t39 9t20 11t16 8t21 12t19 14t16 7t14 7t16 24t16 25t14 16t12 19t15 20q6 26 20 45t14 37l-4 40l4 44q0 16 -4 18 q-14 2 -14 29t-10 39t-17 25t-15 37t-24 40q0 16 -19 63t-35 66t-16 41q-4 4 -14 13t-14 13q-16 36 -48 68v18q-12 14 -21 30t-25 26l2 4l-8 26l-2 2l-8 4l-16 30q-4 6 -7 8t-5 6v10l-8 4q-46 84 -62 143t-16 81l4 18v38q-4 32 1 46t7 15t5 9t3 22t5 21t14 17t9 16t12 12v6 q10 14 18 22t12 26q10 4 19 11t17 12t16 13t15 7t19 11l34 16q20 16 27 22t35 6q50 0 70 -20q30 -16 59 -39t35 -26t4 -13z" />
<glyph unicode="T" horiz-adv-x="1070" d="M132 1352q48 0 108 -4t106 8h28l12 2h12l30 2q14 2 30 -4q14 8 29 7t31 -1l52 12l54 -6q22 2 59 7t65 3t52 0l42 6q12 2 26 0q34 -2 74 8q10 10 11 27t7 29q34 78 64 78t30 -38q2 -16 -4 -31t-6 -31q4 -4 -4 -17t-6 -33t3 -43t11 -39q0 -8 -18 -31t-24 -26t-8 -3t-6 -2 q-28 -2 -42 27t-16 51q-2 2 -23 0t-32 6t-21 4q-16 0 -28 -9t-44 -11t-72 16l-30 -14l-28 2l-30 -6q-4 -18 3 -59t9 -65l-2 -44l6 -38l-2 -14l8 -60q4 -32 1 -59t-1 -32t4 -11l2 -28l4 -20l-2 -42q10 -48 6 -64t-2 -28l6 -68l-2 -46l8 -64q2 -14 -1 -23t-3 -19l2 -56 q2 -22 -1 -51t4 -71t9 -66l-4 -24q-2 -8 4 -38q0 -28 -8 -36q6 -30 6 -36l2 -64q0 -22 4 -42q4 -2 12 -2l52 18q22 0 24 -23t-8 -47l-20 2q-28 -2 -55 -10t-55 -14q-22 0 -40 8q-28 -18 -70 -22l-56 4l-36 -8q-18 0 -18 18q0 6 4 25t8 19l10 -2q4 0 8 3t8 5l30 6q16 4 32 11 t36 13q10 28 6 57t-6 59l4 40q-4 8 -4 12t3 6t2 9t-4 14t-5 25t-3 50t-4 69t7 63q-8 8 -8 20l4 50q-4 16 -4 29t4 21l-12 62v40l6 12l-10 26l4 30q-2 16 -4 30q-6 46 -3 78t-1 59t-2 31q-4 4 -4 9t-2 9l4 56l-8 56v36l-2 12l2 8l-8 14l6 38q-2 16 -4 30q-6 46 0 66t-6 40 h-10l-40 -12l-22 2l-32 -10q-26 0 -92 12q-16 -10 -34 -10h-32q-32 -6 -48 -18q-6 2 -15 2t-15 4q-10 -6 -19 -9t-19 -13q-10 -24 -13 -56t-21 -50l2 -2q0 -22 -20 -24q-14 0 -22 10t-16 16q-4 22 -4 32l12 62q-4 6 -4 14l4 14l-8 42q-2 14 4 29t4 31q-4 30 8 75t38 45 q6 2 11 0t13 -2q0 -10 5 -14t7 -12v-6q-6 0 -6 -6l8 -18q2 -4 -5 -8t-13 -10q8 -16 12 -31t14 -27z" />
<glyph unicode="U" horiz-adv-x="1122" d="M968 1128l10 -64l-8 -50l4 -20l-6 -20l2 -20l-2 -18l6 -24l-4 -20q0 -4 2 -4t2 -4t-2 -4t-2 -4l8 -20l-4 -28l2 -36q0 -20 -6 -24q0 -4 2 -4t2 -8t-9 -23t-13 -26t-2 -21t-10 -18q4 -4 4 -16v-20q-10 -12 -16 -28q-24 -80 -40 -94q4 0 4 -6t-3 -10t-1 -14 q-12 -22 -22 -28l2 -14q0 -12 -8 -19t-6 -25q-10 -4 -20 -6q-20 -4 -20 -20q2 -10 -4 -16t-6 -10l2 -4q-18 -4 -25 -20t-29 -18q-12 -24 -33 -32t-39 -20h-4q-8 0 -13 -3t-15 -1q-22 -18 -57 -20t-61 -20l-30 8l-54 -10q-30 0 -58 23t-50 23q-36 38 -47 63t-16 28t-11 19 q-36 48 -39 77t-13 37v10q0 8 -4 34t-11 75t-15 67q4 8 4 16l-10 36l6 18q0 8 -6 16t-6 20l4 38l-8 36l4 8l-8 42v28l-8 36q4 0 4 6q-8 0 -8 34l-2 38q-2 16 -7 33t-8 38t-1 46t2 49l-8 48l4 22l-4 24l4 22l-4 30l4 26l-8 34l4 22q0 4 -2 4t-2 4l6 60q0 24 -10 38 q-14 0 -24 -9t-27 -9t-18 5t-11 5l-20 -2q-8 0 -10 2l12 54h8q10 -2 18 2t17 4t21 -6q12 10 28 12t27 4t25 5l28 6t26 6t16 3l22 -4l66 12q6 -10 15 -14t9 -20t-17 -25t-27 -19l-38 10q-16 -8 -36 -8q-6 -4 -4 -17t-8 -17q18 -36 18 -75t-4 -59q14 -18 14 -30t-4 -26 q10 -10 10 -30t2 -37t6 -33t4 -29t-2 -19q10 -16 12 -35t4 -35l6 -96q12 -48 12 -70l-4 -24l12 -56l-4 -14q0 -6 3 -13t5 -16t1 -16t-1 -15l8 -34l-4 -28q0 -8 3 -14t6 -18t2 -25t-1 -30t10 -27v-14q0 -20 8 -44t6 -36t6 -29t14 -37t11 -48t15 -46t17 -24t7 -16 q20 -4 30 -19t54 -15t88 16q6 -2 38 -2t80 38q4 4 7 11t13 5q14 32 40 44q18 28 38 62t20 28q8 10 7 30t17 32q0 22 8 35t4 35q14 20 15 50t15 48l-8 38l8 32l-8 62l8 36l-4 30l8 98l-4 36l8 22q0 44 -12 48q4 6 4 18l-4 38l8 24l-4 26l2 212q0 32 -18 40t-40 11t-40 10 t-18 31t12 42q12 4 24 3t28 -1t30 8t30 8t26 -7t24 -15q6 4 34 4t76 18q6 -8 9 -14t13 -8v-12q0 -54 -58 -78q-26 -8 -35 -22t-19 -20q-4 -8 -4 -14l6 -50l-8 -34l6 -32l-4 -24l10 -44l-6 -36l2 -26l-2 -12v-28z" />
<glyph unicode="V" horiz-adv-x="1066" d="M1114 1548l24 8q4 0 8 -4q28 -8 28 -40q0 -8 -4 -22q-28 -12 -91 -15t-87 -21q2 -4 2 -26t-14 -33t-20 -25t-6 -20t-5 -9t-7 -7t-12 -8q-4 -34 -21 -62t-21 -62q-24 -18 -27 -47t-8 -32t-11 -11q-4 -18 -6 -39t-7 -34t-9 -19t-8 -13t-3 -15t-9 -14l2 -24l-2 -6l-10 -8 q-4 -10 -3 -32t-3 -34t-13 -19t-15 -17q2 -4 2 -10l-8 -42q0 -8 2 -12q-10 -8 -12 -22t-14 -20q-8 -36 -8 -57t4 -39q-12 -8 -16 -18t-14 -16q-2 -10 -4 -22q-2 -22 -14 -52q-10 -34 -16 -40q2 -4 2 -17t-9 -28t-5 -31l-54 -88v-18q0 -4 -9 -24t-15 -45t-10 -51l-8 -52 t-6 -44q-18 -12 -42 -12h-2l-4 8h-6q-12 10 -13 37t-11 41l-8 4q-8 16 -10 34t-6 34l-12 42q-2 6 -4 10t-5 15t-3 25t-4 30l-12 48q-2 10 -8 18q-16 18 -17 45t-9 55q-16 44 -15 52t-4 13t-5 9q-4 4 -2 15t-2 11t-4 4t2 4t2 4l-8 28q0 4 4 8q-24 34 -46 126q-6 8 -6 17 t-4 19l-12 30q-4 16 -7 34t-13 34l2 12q0 28 -16 48q-4 42 -23 80t-26 64t-13 31t-10 13v26q-4 8 -7 16t-7 18q-2 32 -12 55t-22 53q-14 10 -31 8t-27 8v10q0 10 3 17t5 15q10 8 23 10t24 4t19 9t14 9t17 4t23 3l24 2t16 1q20 0 32 -32v-2q0 -12 -7 -18t-11 -11t-4 -11 t-4 -10t-8 -3t-4 -3l30 -110q28 -34 24 -60q16 -4 14 -15t4 -23l8 -6q4 -10 6 -22t12 -20q2 -14 3 -31t13 -25q6 -22 10 -42t10 -37t12 -29t10 -23t3 -19t2 -15t6 -12t6 -12t2 -15t3 -17t15 -32t9 -32t1 -16t7 -14t6 -14t1 -15t2 -17t6 -15t6 -17t6 -27t7 -32l24 -90 q4 -16 7 -31t8 -28t8 -24t7 -23l-4 -4q0 -4 6 -4t6 -18t13 -18t23 10q18 20 18 37t12 31t12 30l-4 14v4q12 12 12 23t8 15v10l4 46q0 8 7 6t7 6t6 34t12 26h4q-8 24 -8 26l6 34q0 6 -2 8q10 4 11 16t5 22l8 4v8q0 20 13 47t9 49q8 6 12 15t10 17v12q0 32 13 56t9 58 q12 18 19 42t13 36t5 18t6 16t12 26t6 32t23 52t34 98q14 8 20 42q10 8 27 34t17 41t-16 22t-37 11t-37 13t-16 28t6 24t10 15l82 2h20q22 0 50 -14q20 -4 41 -3t43 -1z" />
<glyph unicode="W" horiz-adv-x="1534" d="M276 1276l16 -52q0 -12 -2 -18q10 -10 11 -25t11 -25q2 -26 7 -51t8 -47t9 -38q14 -32 14 -60v-24l-2 -12l6 -26q8 -28 11 -63t19 -57v-30q16 -24 19 -55t19 -57q-2 -6 -2 -24t7 -37t11 -37t6 -36t18 -22q14 2 22 27t24 31l-2 10q0 16 11 26t7 32l22 18q-2 10 2 22t0 22 q18 26 16 41t2 32t8 22t7 14t3 33t14 28l-2 18q0 20 7 39t11 32t2 20t2 14t8 10t7 10t1 16t1 18t8 16t5 16t-4 17q4 12 4 24v20q0 26 19 60t21 58t14 32q4 22 6 46t10 44q14 10 28 10t24 -11t18 -29t12 -35t14 -47t10 -70l12 -62q0 -10 -8 -26q10 -4 11 -14t5 -19t8 -15 t7 -19t3 -32t4 -32t9 -19t9 -15t4 -18t4 -19l10 -30q4 -10 10 -18t6 -28v-2l16 -42q0 -8 4 -16l6 -4q6 -14 8 -28t6 -28q8 -12 12 -28q18 -64 34 -78l-2 -6l14 -44q0 -20 6 -24q14 -6 14 -28t4 -30t7 -12t6 -12t6 -31t21 -23q12 0 13 9t1 21v8q0 10 6 11t10 7v10q0 6 12 36 q-2 8 -2 19t6 22t10 25t3 33t11 33v2q0 14 -8 16q16 14 18 38t5 38t10 20t7 16l-6 22v2q0 2 1 2t5 5t5 19t13 20q-10 28 -10 59t14 47v32q6 4 11 17t15 21v4l-2 14q0 2 2 4q0 10 9 11t13 7v8q0 20 8 38q22 50 22 122l12 24l-2 18q0 18 6 35t2 35q10 12 14 40t9 33t9 13l-2 8 q0 28 10 50t10 46v6q-16 18 -46 13t-48 3q-4 12 -4 29t16 33q42 0 90 18h2l52 -4q46 0 96 -18q12 4 24 4t27 -4t31 0q4 -10 12 -19t8 -21q0 -26 -20 -22q-8 -18 -28 -16h-6q0 4 -5 3t-17 -1t-22 10q-34 -12 -72 -8q-20 -12 -27 -38t-13 -42t-9 -23t-3 -17l2 -14 q-16 -10 -16 -29t-4 -31t-12 -17t-8 -19l4 -20q0 -16 -6 -21t-6 -12t8 -7l-4 -14l8 -36q0 -24 -18 -42q-4 -32 -13 -63t-11 -67q-18 -10 -24 -28t-16 -34l-2 -16q0 -10 2 -12l-28 -46q2 -2 8 -28l-4 -6l8 -14q-6 -24 -6 -44t-8 -31t-12 -23q0 -24 -11 -47t-11 -47l6 -26 q0 -2 -5 -10t-14 -28t-13 -20l2 -14q0 -16 -6 -32t-9 -32t-1 -28q2 -40 -22 -108q8 -20 8 -30t-7 -36t-11 -34l8 -26q0 -8 -12 -20q4 -12 4 -27t-10 -34t-4 -37q-4 0 -4 -8h-8v-4l2 -20q0 -14 -16 -14t-23 -2t-15 -5t-17 -3t-17 8q-14 20 -22 64q-8 24 -13 47t-8 27t-3 6v20 q0 10 -8 23t-7 24t-2 27t-11 37t-20 76t-28 77q2 4 2 10t-2 11t-4 11q-8 6 -6 11t2 9t-7 17t-11 17q-6 30 -21 70t-15 84q-2 4 -11 19t-13 23l-4 26q-8 32 -22 56v12q0 40 -19 77t-23 77l2 28q0 18 -6 22t-11 17t-5 31t-10 34q-20 -4 -20 -20q0 -4 8 -36q-10 -10 -10 -24 t-6 -19t-6 -9l6 -20q-10 -10 -11 -23t-13 -23q8 -8 8 -19t-8 -23t-4 -32q-4 -6 -6 -13t-10 -11q4 -8 4 -18l-18 -52q0 -12 4 -20q-18 -36 -27 -76t-9 -45t-2 -12t-8 -18t-10 -21t-4 -20t-4 -16t-9 -10t-5 -8v-4q0 -2 2 -2q-8 -4 -10 -8t-12 0l-10 -50q0 -6 6 -18 q-12 -12 -16 -28t-18 -28q4 -16 4 -48t-22 -62q4 -8 4 -18t-8 -19t-4 -29q-6 -6 -10 -15t-14 -13q4 -4 4 -9t-4 -17q-10 -8 -19 -19t-21 -11h-4q-10 4 -22 23t-11 27t1 21t-20 53q8 18 8 43t-11 58t-11 61q4 8 4 15t-5 22t-8 30t-5 34t-5 34t-7 24t-4 17t2 12q-10 10 -15 41 t-9 48t-7 26t-7 16t-7 18t-3 25t-3 25t-7 18t-6 20t-1 32t-1 39q-4 2 -4 6t2 4t2 4q-10 16 -9 22t1 19t-8 36t-7 41t-13 34v10q0 70 -32 122q-6 12 -5 19t1 16t-3 11t-6 15t-2 31t-11 38q-6 2 -22 2t-38 -12q-26 14 -54 10q-4 12 -4 19t4 19q18 14 43 17t41 9t25 4t19 1 t19 6t20 7t23 1t24 3q24 4 39 13t37 3q10 10 19 10t21 6q8 -8 19 -17t11 -24t-13 -17t-27 -6q-14 -12 -31 -18t-28 -13t-16 -6t-13 1t-10 -6v-12q0 -30 18 -36q-2 -4 -2 -14z" />
<glyph unicode="X" horiz-adv-x="1182" d="M1172 204l6 2q6 0 7 -6t7 -10t19 -25t13 -27l-6 -24l6 -24l-12 -42q0 -10 2 -14q-12 -22 -22 -28l2 -6q0 -6 -4 -9t-8 -8t-5 -11t-10 -17t-33 -14t-40 -13h-4l-12 6q-36 -18 -62 -18t-42 16h-8l-54 6q-36 40 -66 46q-4 10 -11 17t-9 17q-6 0 -22 11t-20 17l2 8q-4 4 -8 5 t-8 4t-12 14t-30 37t-18 30t-2 11t-5 12t1 12t-2 9q-10 4 -8 8t-4 18t-16 21t-15 28t-23 33v6q0 4 -3 5t-8 8t-8 22t-8 23t-11 13t-6 9l2 14v2q-8 8 -19 29t-13 31q-16 18 -23 42t-31 24q-10 0 -10 -11t-8 -15q-10 -14 -20 -31t-26 -23q-2 -22 -13 -32t-13 -34 q-12 -10 -18 -26t-22 -24l-8 -26q-10 -12 -17 -21t-17 -17v-4q2 -14 -6 -22t-6 -22q-12 -12 -27 -21t-15 -27q-12 -12 -11 -20t-6 -19t-20 -16t-13 -19t5 -16t15 -5t8 -13q2 -2 6 -2l12 4q4 0 6 -2q2 -8 6 -16t6 -18q-4 -6 -13 -6t-13 -10q-4 -4 -11 -7t-13 -7l-20 10 q-10 0 -11 -5t-13 -5l-14 6l-16 -6l-20 10l-112 -12q-12 -4 -16 -4l-16 2q-6 12 -6 35t11 26t30 3t27 10t17 13t21 3q24 0 32 34q8 20 32 38q4 8 8 18q10 32 44 76l2 8q4 2 8 2t8 4q10 38 46 74v4q0 30 112 188q6 8 13 12t11 11t5 14t8 19t17 26t10 33t-11 29t-19 22 q0 38 -28 66q-8 68 -19 69t-15 5q-4 22 -12 33t-8 29t-14 32q-10 18 -14 40t-9 34t-3 16q2 8 -13 22t-15 28q4 40 -20 56q-4 6 -3 13t-2 12t-6 6t-1 5q4 0 4 5t-9 14t-18 25t-9 34t4 30q-4 10 -10 15t-10 13q-2 16 -1 34t-3 32t-7 14t-3 14t-24 62q-10 10 -24 10l-54 -6 q-24 -18 -47 -18t-35 6q-2 4 -2 20t8 25t20 12t21 4t13 11q14 2 27 1t31 3t23 8t23 4t24 4t19 6t27 0t44 6q22 10 56 10t54 -8q6 -6 6 -26t-16 -36q-20 -6 -45 -6t-43 -12q-4 -20 -4 -34t9 -30t15 -32t8 -29t9 -36t21 -42t12 -57q58 -100 71 -144t17 -53t6 -10t6 -9t6 -22 q0 -18 8 -31t7 -16t1 -7l8 -4q2 -4 1 -9t-1 -13t4 -9t11 -16t16 -40t25 -47q26 0 33 22t12 30t10 12t12 15t15 31t24 30q4 6 6 13t6 13l8 4q8 16 13 33t15 31q8 14 15 18t15 10t14 48q20 16 28 41t18 38t17 17t11 9t4 8t3 11t11 17t8 23q16 8 32 40t16 34q8 4 13 10t15 10 q2 10 10 26q20 14 38 44t18 38t-9 10t-9 10q-8 0 -32 -12q-14 4 -41 10t-27 26t9 26t23 18h4l24 -4l24 6q4 0 10 -2t13 -4t13 0t12 2l132 -14h26q10 0 22 4q8 -10 7 -28t3 -30q-12 -10 -20 -17t-28 -5q-4 -4 -17 -12t-17 -8l-16 6q-6 0 -25 -12t-21 -23t-4 -17l-8 -6v-8 q0 -12 -15 -15t-15 -23q0 -4 -38 -42l-8 -26q-16 -10 -26 -41t-28 -37q0 -22 -24 -32q-10 -42 -27 -63t-23 -19q-6 -20 -32 -67t-26 -63q-8 -4 -12 -12t-12 -12q-8 -40 -22 -45t-14 -27q-20 -14 -28 -33t-19 -34t-9 -25v-6q-8 -4 -26 -8q-4 -12 -7 -27t-13 -25q2 -2 2 -6 l-6 -24q0 -14 11 -36t18 -28t11 -15t6 -20t5 -18t6 -11t7 -14t8 -24t12 -30l20 -28l28 -54q2 -4 1 -7t9 -11q8 -16 14 -35t22 -29q2 -20 12 -35t13 -25t2 -14t1 -8l14 -24q2 -4 1 -7t8 -29t43 -56q2 -8 9 -13t7 -15q8 -4 28 -21t20 -27h4l20 -6q10 -22 25 -24t33 -2l10 -4 q36 0 62 11t32 17q6 26 16 40t10 26l-4 38q-12 4 -20 13t-20 9l-30 -8q-14 4 -26 14t-26 14q-4 4 -4 7t2 5t6 11t11 16t17 11t19 6t15 8q62 0 63 -10t9 -14z" />
<glyph unicode="Y" horiz-adv-x="1132" d="M500 954l12 -36q16 -2 28 -22t22 -30q30 8 41 36t22 44t19 28t24 35t32 62t38 75l10 4q4 10 7 18t9 18l22 32q20 20 24 43t8 30t10 5q6 0 6 16l8 4q18 30 34 58t36 56q6 4 9 5t6 5t3 7t4 10t12 17t11 19t3 12t6 11t26 19t20 30t-13 24t-23 8t-13 6t-10 5t-16 0t-23 -2 q-22 0 -22 28t10 42q22 6 40 6t26 -5t23 -10t30 -3t80 -9t105 -29q4 -4 3 -10t7 -4q22 -10 26 -20q-4 -10 -5 -19t-5 -17q-6 -2 -16 -2l-74 12q-28 0 -60 -10q-6 -6 -6 -19t-7 -21t-15 -23t-22 -19l-2 -6l4 -18q-30 -12 -46 -68q-12 -4 -20 -12q-4 -14 -11 -25t-12 -24 t-9 -26t-14 -21l-4 -26q-14 -8 -19 -22t-17 -24v-4q2 -8 -2 -15t-4 -15q-16 -18 -22 -36t-18 -36q-36 -30 -43 -65t-23 -47q0 -16 -18 -34q-2 -6 -11 -19t-25 -39t-24 -32q-10 -34 -29 -59t-35 -53v-6q0 -4 -7 -74t-7 -270l2 -24l-14 -166l6 -28l-6 -22l4 -36l-4 -16l4 -28 l-4 -66q0 -14 2 -20q6 -6 14 -6t20 6q10 -6 27 -6t29 -2q14 -16 20 -42q-4 -14 -16 -18t-22 -14q-10 2 -13 8t-11 10q-4 -2 -14 -2l-50 6q-18 -14 -48 -14l-70 6q-30 0 -46 -16h-12l-56 -4q-26 0 -44 16v4l10 40q4 4 12 4t12 6v8q16 6 34 4t46 8l14 -2l22 8q6 0 8 -2 q10 20 10 36l-6 32q8 24 7 32t-1 24t8 30q-14 20 -14 86l10 44l-2 48l8 40l-6 32l12 42l-6 60l12 62l-10 66q0 24 8 44t8 37t-10 36t-24 23l2 4q0 8 -5 12t-8 10t-2 10t-2 8t-5 5t-8 8t-12 20t-12 25q-24 18 -37 42t-31 42q-4 26 -16 47t-21 62t-40 92t-38 84t-13 33t-6 22 q-4 8 -8 13t-2 17q-22 24 -44 86q0 14 -7 17t-11 8t-4 11t-2 11t-5 8t-3 7l2 6q-20 10 -45 15t-43 21q-4 16 -4 25t4 25q10 4 54 16q0 -4 4 -4l42 20l14 -2l56 2l58 10q16 0 18 -8t12 -12q0 -36 -19 -46t-47 -18q6 -26 26 -66q0 -8 2 -12l8 -4q10 -20 16 -40q14 -42 28 -60 q16 -14 22 -46l8 -4l-2 -8q0 -20 28 -59t32 -50t4 -22t15 -60t38 -82t35 -59z" />
<glyph unicode="Z" horiz-adv-x="1014" d="M260 1330l-60 -26h-26q-8 0 -9 -10t-13 -8q-12 -18 -14 -20q4 -16 4 -35t-3 -37t-5 -38q-14 -6 -18 -20t-18 -20q-10 4 -17 2t-19 -2h-8q-14 16 -14 42l12 56l-4 44q0 16 7 29t7 51t9 57t9 37q2 2 11 2t19 10q16 -2 23 -14t21 -19t26 -4t24 -9q108 18 250 18l48 4 q10 0 26 -4q4 4 9 4t1 8q18 -10 48 -10l84 6l40 -4q10 0 22 4q36 8 86 8l12 -4l52 12q22 0 52 -5t34 -7q10 -24 10 -45t-21 -26t-45 -9q-12 -28 -33 -47t-33 -53v-4q0 -10 -8 -13t-16 -14t-14 -32t-24 -37v-32q-10 -2 -15 -10t-13 -12q-6 -52 -36 -80l2 -6q0 -10 -7 -14 t-7 -15t-7 -18t-6 -14t-3 -14t-9 -13t-9 -13t-3 -14t-3 -14t-10 -11t-10 -10t-5 -11t-6 -9t-7 -5t0 -10t30 -9t56 8l8 -16t14 -8q-2 -4 -2 -10l4 -20q0 -14 -15 -25t-29 -11l-18 8l-30 -4h-30q-22 0 -25 -13t-11 -20t-11 -7t-9 -12t-12 -35t-11 -38t-8 -25t-16 -24t-27 -45 t-18 -48t-9 -27t-13 -14q-18 -14 -12 -24q0 -2 -10 -18t-15 -30t-21 -18v-6q0 -30 -32 -66v-4q0 -22 -14 -33t-12 -37q-18 -12 -30 -28q-6 -36 -24 -65t-18 -33q0 -14 10 -14l24 4l12 -4q4 0 7 4t19 4l72 6q2 6 8 6l14 -6l18 8l30 -4q4 0 8 3t10 5t11 1t9 -1l62 14 q14 0 20 -2q26 20 79 20t71 4t35 6t34 3t29 19v8l4 30q2 16 2 33t10 31q10 4 18 4t16 4q8 -12 16 -22t8 -28l-8 -50l4 -38l-8 -44l8 -58q-10 -10 -16 -25t-21 -15t-19 14t-14 22v40q0 8 -9 8t-11 8q-22 -2 -41 -9t-43 -7l-46 4q-34 0 -52 -18h-4l-18 4q-16 -10 -36 -13 t-36 -13q-6 4 -19 2t-19 4q-20 -10 -30 -10t-14 4q-10 -4 -16 -9t-20 -5l-46 6q-24 0 -50 -9t-48 -3q-10 -4 -21 -10t-21 -6l-24 4l-68 -12q-8 0 -20 4q-4 16 -4 29t9 30t17 30t18 34l30 63t36 58v4q-2 16 11 29t17 25t2 19t2 15l16 18q4 10 6 20t10 21t15 23l14 24t10 20 t9 19t14 24t11 22t2 15t3 15t11 20t12 22l10 22t15 19q2 42 18 74t20 72q-10 14 -29 15t-31 13l-10 -2q-14 0 -36 18v26q0 24 8 32q14 6 32 6t23 -6t16 -10t19 -3t15 -1t13 -4t17 -2t20 10t17 23t15 28t17 23q2 20 43 92t47 116q24 28 36 60q18 16 34 50t44 60t32 50 q-10 8 -30 8l-34 -8q-4 0 -8 8q-4 2 -19 -3t-25 -5h-2q-2 4 -10 4l-48 -12l-24 4q-2 -2 -22 -2l-66 -8q-18 0 -30 8q-34 -12 -65 -12t-57 12q-16 -6 -37 -5t-37 -6t-21 -6t-11 1z" />
<glyph unicode="[" horiz-adv-x="594" d="M396 -10l82 6q16 0 32 4l32 8q6 -12 23 -18t17 -18q0 -22 -32 -36q-30 -16 -46 -16l-38 4l-18 -4l-14 4l-26 -8l-32 2l-42 -12l-12 4l-34 -10q-4 0 -16 8q-22 8 -20 52q2 14 -5 50t-7 58l4 38l-8 32l4 34l-4 52q0 4 4 12l-16 110q-2 4 -5 7t-6 16t-3 41t-10 48l4 10 q0 8 -8 18t-8 44l4 22q0 14 -6 30q-18 48 -18 102l4 20l-12 88q0 26 8 42q-12 30 -18 34v14l-14 204q0 22 10 46q-4 8 -4 18v20l-4 122l4 46l-10 34q0 20 7 40t10 36t2 29t3 29l46 32q16 -6 29 -15t29 -13q20 8 42 9t42 11q6 -4 13 -4t13 -4q30 8 58 6t58 6q26 -26 29 -26 t3 -2l-6 -14v-2l8 -10q0 -2 -4 -2q-4 -20 -40 -23t-46 -5q-16 16 -26 16t-9 -6t-9 -2q-16 -4 -33 -2t-33 2l-24 -4l-22 4l-16 -6l-4 2q-10 -10 -10 -32l2 -40l-8 -44l4 -22l-4 -20l8 -42l-4 -32l8 -38l-4 -38l8 -30v-34l6 -48l-4 -16l14 -80q0 -8 -6 -10q10 -8 10 -25 t10 -27l-8 -32q0 -28 20 -62q-4 -12 -4 -16l10 -54q0 -10 -6 -16q16 -38 16 -59t5 -27t2 -11t-3 -40t7 -52t7 -23l-6 -18l20 -34q-2 -8 -2 -24l8 -48l8 -26q4 -16 2 -32t-2 -32l4 -38l-10 -64l4 -22l-4 -22l6 -26l-6 -34l2 -18q0 -10 -6 -12q8 -6 8 -15t5 -14t9 -4t8 -1 l8 -8z" />
<glyph unicode="\" horiz-adv-x="686" d="M520 410v-12q4 -6 16 -22t19 -29t20 -34t20 -53t13 -52q-8 -22 -32 -28t-44 -10q0 10 -22 24q-4 4 -2 10q2 22 -62 104v4q0 6 -3 10t-1 14q-16 12 -25 37t-9 35q0 26 -42 92q-12 28 -23 59t-23 46t-8 29q-4 8 -5 16t-9 23t-15 19t-7 23t-6 37t-12 37t-31 89t-25 78 q0 28 -16 36q-10 8 -16 34q-12 74 -48 110v12q0 6 4 6q-16 26 -27 49t-11 59v10q18 14 38 14t35 -16t13 -40q6 -4 10 -11t10 -11q4 -26 26 -61t27 -57t11 -36t14 -23t8 -17t4 -14l8 -4q4 -10 5 -23t13 -21v-8q0 -58 22 -78v-4l2 -16q0 -4 -2 -8q44 -74 50 -142q10 -4 11 -15 t11 -15v-6q0 -22 11 -37t18 -30t13 -28t18 -19q0 -22 11 -38t17 -31t8 -25t6 -18t5 -6t1 -12z" />
<glyph unicode="]" horiz-adv-x="478" d="M218 1058l20 266q0 32 -4 48q-6 6 -19 4t-15 8q-42 -12 -54 -12l-38 8q-32 0 -40 6t-8 24q0 48 156 42q34 0 61 2t45 -22q2 -4 2 -10l-10 -34l8 -96l-2 -22l4 -12l-8 -24l2 -12l-2 -90q-4 -52 -4 -108l-6 -56l4 -54v-4l-8 -12v-4l6 -44q-6 -4 -6 -12l2 -88l8 -18l-6 -24 l10 -62l-2 -44l4 -22l-6 -20l6 -42q0 -16 -8 -26q6 -24 6 -44l-2 -54l-6 -44l8 -42l-4 -48l4 -12l-4 -16l6 -36l-6 -46l4 -30l-6 -22l4 -20l-4 -74l6 -60q0 -16 -5 -33t-1 -33q-8 -12 -20 -19t-18 -19q-16 -4 -31 -4t-31 -2l-44 -10l-38 2l-44 -8l-10 2q-12 24 -12 32 q0 32 38 28h34q12 4 18 4l8 -4q8 0 8 3t4 5l12 -2q8 0 11 8t11 8l2 28l-4 26l4 10l-8 14l6 64l-6 62l4 94l-4 82l8 80l-6 90q0 28 3 52t5 43t4 28t2 22t-4 32t-6 42t-2 51v60q0 110 5 140t5 40l-2 32l8 34z" />
<glyph unicode="^" horiz-adv-x="738" d="M78 602v12q0 8 3 14t7 25t16 35l28 96q6 20 10 41t10 33t8 18q10 14 10 29t11 39t13 45t6 35t7 20t7 15t3 16t2 16t9 15t10 15t2 17t3 21t11 21l6 28l20 52t16 47t6 33t10 22q0 74 32 74q18 0 35 -18t23 -30t6 -20t2 -16q4 -16 31 -94t36 -88t16 -48t16 -51t8 -17t-1 -13 t16 -41l8 -8q4 -12 2 -24t1 -24t9 -24q12 -28 12 -48t14 -50t15 -49t6 -32t16 -32t15 -33t2 -29t-2 -29t4 -20q-16 -38 -62 -38q-10 0 -28 4q-2 6 -9 11t-7 7t4 6l-8 14l4 12q0 10 -16 47t-26 69q-2 22 -10 43t-8 47q-4 8 -8 15t-7 18t-5 26t-7 32t-7 40t-11 40t-15 33 l-10 32q-6 18 -12 33t-8 25q-10 12 -16 27t-26 15t-20 -18v-12t-6 -8q-10 -28 -18 -58t-24 -56v-4l-4 -44q-12 -10 -15 -34t-15 -34v-8q2 -10 0 -17t-4 -17q-6 -6 -10 -14t-14 -12q4 -18 4 -28v-8q-4 -4 -8 -16t-9 -25t-15 -43l-4 -34q-4 -20 -12 -40t-14 -38q-8 -6 -8 -18 v-24q-14 -6 -22 -18t-22 -16q-4 4 -12 4q-22 0 -22 41t14 41q2 0 2 4z" />
<glyph unicode="_" horiz-adv-x="948" d="M736 74l100 2q42 -4 60 -32q-2 -14 -9 -18t-15 -12v-2q2 -12 -6 -14t-12 -10h-20q-36 0 -44 10t-26 10l-72 -16l-48 8l-32 -4l-38 4l-46 -4q-18 0 -28 8q-14 -2 -22 -9t-18 -11q-40 8 -44 8l-20 -4l-16 8l-32 -4l-64 8h-32l-38 -8q-10 0 -19 3t-26 6t-49 4t-54 13l-6 38 q0 24 26 20q12 -2 24 -2l10 4q16 0 32 -2q64 -14 144 -14l26 -4l42 12l44 -8l50 4l34 -8l12 4l10 -4l50 12q12 0 14 -4l42 4q72 4 116 4z" />
<glyph unicode="`" horiz-adv-x="412" d="M153 1631q37 -25 45 -41q20 -14 38 -28t28 -36q28 0 102 -74q0 -8 4 -8q-8 -16 -12 -41t-26 -31q-2 -2 -5 -2t-15 12t-19 18t-9 12q-22 6 -36 23t-38 21q-4 8 -10 12t-6 14h-24q-2 16 -11 18t-14 6t-3 6q4 8 -12 12t-19 13t-7 13q-28 4 -40 24t-24 42q6 4 5 6t9 6 q2 4 6 16t30 12t63 -25z" />
<glyph unicode="a" horiz-adv-x="778" d="M176 524l64 12q16 0 21 3t43 13t72 10h48q24 0 36 -7t22 -7t34 18q2 8 2 16v18q0 50 -7 89t-4 85t-6 57t-13 18t-2 15t-5 19t-6 16t-2 9t-6 5t-6 5t-2 6t-2 8t-10 11t-9 15q-26 12 -44 40q-10 2 -21 1t-20 2t-15 6t-14 3l-46 -12q-2 0 -14 4q-10 -2 -10 -13t-4 -17 q-18 0 -18 -14q-10 0 -14 -6t-16 -2l-16 -28t-22 -22q-6 -32 -6 -60t12 -40t12 -25t-10 -32t-24 -19t-19 8t-8 18t-5 21t-14 23q6 0 6 10t-6 18t-6 44t16 46q-2 0 -2 4l4 18q-2 0 -2 4l8 12l-2 4q2 8 9 7t11 4t18 33q14 4 19 13t15 17q16 6 22 15t15 13t20 6t15 14l6 -2 q10 0 14 7t23 7t21 4t16 4t43 -14t35 -14h6q14 -16 38 -20q28 -22 55 -41t43 -49q4 -4 3 -6t5 -9t12 -17t12 -17t7 -6t1 -15l2 -2l6 -4q12 -30 20 -92t8 -71t3 -14t7 -20t3 -42t2 -44t6 -28t3 -23l-6 -30l6 -130l-6 -28l2 -44l-6 -66l14 -64l-12 -54l8 -42q0 -8 -6 -12 q20 -16 48 -16l62 12h56q4 -4 4 -8t5 -8t9 -6t4 -10t-4 -13t0 -15q-12 -2 -15 -9t-10 -11t-21 -4t-34 -10q-8 2 -20 2l-24 6q-4 0 -5 -5t-7 -5l-16 6q-16 0 -31 -8t-23 -8t-20 4l-26 -6q-6 0 -16 8t-29 22t-19 38l4 28l-8 22l8 132l-2 56q0 14 -22 14q-6 0 -13 -6t-14 -10 t-14 -4t-15 -4t-13 -9t-17 -7q-16 -22 -42 -22h-6q-6 -2 -10 -8t-11 -11t-18 -8t-17 -15l-68 -12q-10 0 -18 6q-16 -16 -32 -16q-80 0 -106 28q-10 12 -24 22l-6 28q-4 10 -9 16t-8 18t-1 27t2 29l-4 22l8 22v20q0 8 4 12t8 10t2 13t10 19t12 17t7 16t24 19t27 24q18 2 34 2 zM482 382l16 -4q4 0 7 5t7 5l-14 42q-24 4 -47 18t-37 14l-36 -4l-52 2l-80 -14l-26 4q-16 0 -32 -6t-32 -2q-4 -12 -18 -28t-11 -38t3 -36l-4 -18q0 -4 3 -8t5 -9t1 -11t-1 -14t9 -18t13 -20l2 2q4 0 7 -6t19 -6q68 0 140 36l26 12q20 14 43 20t31 22q32 54 56 60h2z" />
<glyph unicode="b" horiz-adv-x="904" d="M252 620q0 -30 22 -30q10 0 16 9t25 22t48 30t53 39q4 -2 14 -2t20 6t33 14t71 8t67 -1t33 -7t18 -5t8 -2t6 -6t6 -6t8 -2t7 -1t13 -12t20 -21t20 -23t17 -19t13 -25t16 -26q4 -14 7 -27t7 -25l8 -10q2 -6 8 -21t9 -30t6 -29t3 -30v-36q0 -22 -4 -44l-8 -6q-4 -10 -4 -20 t-18 -28q-10 -20 -21 -47t-33 -37q0 -10 -4 -17t-6 -17q-12 -4 -16 -8t-14 -2q-8 -4 -9 -13t-8 -9t-16 -10t-25 -10q-6 -22 -23 -30t-25 -30q-80 -40 -97 -40t-33 10q-8 0 -18 -6t-23 -10t-34 -4t-27 6t-15 6t-15 -9t-16 -15q-24 8 -57 8t-63 -16q-8 6 -16 6l-34 -6l-16 6 q-14 0 -30 -10t-16 -13t-6 -3t-30 8l-2 14q0 34 66 50q18 4 28 10q-14 32 -14 60v64l-4 8l4 14l-8 32l4 28l-4 28l4 28q0 8 -3 17t-6 27t-2 47t-1 57l-4 30l4 30l-8 122l8 96l-4 12q4 4 4 11t-3 14t-6 29t0 64t-13 76v28q0 22 -8 38q6 20 6 50l-2 54q-2 22 -7 42t-5 44l8 30 l-4 24l8 70l-8 46v26l-8 38l4 22q0 4 -4 16l4 14q0 40 -2 80t2 82q-10 4 -25 7t-23 13q-18 -4 -34 -13t-30 -9t-20 4t-8 3t-8 4t-6 27t17 36t34 12t39 -2l12 4l40 -2q30 0 38 14q10 -2 18 -2h20q44 0 94 6l36 8q10 0 17 -8t17 -12l-12 -52q-16 -8 -29 -15t-28 -7t-27 4 q-10 -4 -17 -12t-17 -12q-2 -6 -1 -12t1 -14t-4 -10q16 -32 16 -54v-4l-4 -2v-2q8 -24 7 -47t2 -50t8 -53t5 -56l-4 -34l4 -56l-4 -58l8 -90l-4 -26q0 -18 6 -34q16 -46 16 -90l-4 -30q0 -16 4 -30t7 -27t2 -25t-1 -22l8 -68q0 -4 -3 -9t-2 -12t1 -13l-6 -30q0 -8 6 -8 q-8 -12 -8 -24zM662 166q44 68 38 122q10 18 10 38l-2 78q0 22 -9 49t-15 49l-4 22q-4 16 -11 32t-9 32q-22 14 -58 50q-24 -4 -46 0t-38 -2t-28 -14t-23 -12t-20 -4t-18 -4t-13 -11t-16 -3q-6 -10 -11 -19t-21 -9q-4 -18 -15 -29t-15 -29q-8 -6 -16 -10t-16 -10 q-2 -28 -18 -50q-24 -30 -24 -72v-24l6 -20l-2 -28q0 -12 6 -42q-4 -8 -4 -24l4 -64l-4 -62q16 -4 24 -17t26 -15q2 -4 6 -7t8 -7q16 -2 26 -8t24 -10q50 14 82 14q8 -6 14 -6t9 4t9 6t11 0t9 -2l4 2q4 0 6 4q4 8 36 18t36 24q6 22 32 36q6 4 20 20l8 4q2 2 2 10z" />
<glyph unicode="c" horiz-adv-x="734" d="M404 1006l40 -2q0 2 6 2t10 -7t11 -10t14 -3t15 -6l4 -8q8 -4 11 -3t15 -15t23 -16t19 4q6 14 9 29t13 29q12 8 30 8t29 -22t11 -44t-10 -36q4 -22 4 -54t-18 -64q4 -16 4 -29t-8 -29t-11 -26t-3 -16t-10 -22t-52 -16h-10q-12 18 -12 30t8 28l-4 12q0 12 6 34t6 46 q0 36 -13 50t-16 20t-9 11t-14 7t-20 14q-10 6 -21 9t-19 7t-7 7t-33 3t-52 -18q-12 4 -29 4t-29 -22t-26 -38q2 -2 2 -11t-7 -18t-13 -27t-4 -41t-10 -45q2 -4 2 -16l-12 -72v-20q0 -106 10 -126q0 -4 -2 -4t-2 -6q0 -20 14 -60t19 -43t8 -7t3 -9t14 -20t18 -26t15 -20 t25 -14t25 -11t18 -12t21 -6t27 7t29 3q8 10 18 10t24 6t25 16t26 18t15 12v12q0 6 2 8q8 -4 12 -4l40 8h8q8 -6 8 -12v-16l4 -8q0 -12 -27 -36t-34 -27t-9 -9t-12 -11t-23 -5t-26 -4t-30 -16t-27 -12l-20 6l-26 -12q-8 4 -12 4h-10q-8 0 -20 8l-34 -6q-10 0 -14 2l-4 8 l-14 -2q-14 0 -21 14t-27 14t-31 13t-27 17l-44 46q-4 4 -11 4t-18 7t-11 22t4 23q-10 22 -14 48q-6 38 -20 58q-8 18 -8 26v16q0 80 19 153t23 83l8 20t7 24t9 22l8 4q4 12 5 21t5 17l10 4q8 12 15 27t19 30t34 29t43 26t38 21t22 12t12 2t17 3t12 8t20 4z" />
<glyph unicode="d" horiz-adv-x="892" d="M770 88l58 18q38 -16 38 -38q0 -44 -122 -44q-10 0 -22 -3t-25 -5t-26 -1t-24 -2t-27 -11t-28 -8t-22 14t-10 28t9 20t20 12t24 11t19 13q-4 54 -10 108l-12 108q-10 10 -18 10t-20 2q-8 -10 -8 -40q-8 -6 -20 -22t-37 -48t-37 -28q-6 -16 -31 -33t-31 -17l-24 4 q-6 0 -4 -10t-2 -14q-10 -4 -14 -12l-44 -12q-48 0 -128 36q-8 2 -14 13t-16 11h-8q-10 22 -26 33t-20 41q-12 0 -11 9t-3 15l-6 4q-2 6 -2 19t-2 19l-8 4q-2 4 -1 11t1 11l-8 24l8 50l-4 40q0 28 21 83t27 61q-2 30 13 45t17 45q12 14 22 28t25 30t33 32t34 36q12 0 45 24 t37 28q22 0 58 10t90 10t96 -14q12 22 12 46v46l4 22l-4 26l14 52l-10 54l4 64q0 16 10 26q-6 8 -6 20t5 21t5 13l-4 24v52q0 18 4 27t8 23l-2 30l8 42q2 10 1 22t-1 24t3 24t5 21t1 16t-1 16t3 12t6 17t1 30t2 32q-16 6 -30 6l-78 -8l-26 2q-10 0 -18 -6t-22 -6l-34 8 l-6 42l2 10q16 10 37 9t37 -1t27 3t23 5t19 1t27 -1t48 8t60 8h12q10 -14 17 -21t7 -27l-8 -36l4 -18l-4 -44l4 -94q0 -26 -8 -44q4 -8 4 -16t4 -18q-12 -36 -12 -52l4 -12l-8 -42l4 -36l-2 -120l-8 -56l2 -24l-2 -26l8 -56l-12 -162q0 -10 4 -18q-8 -24 -8 -30v-16 q0 -10 2 -22l2 -26l-4 -22q0 -50 4 -94l6 -80l-2 -54q0 -30 14 -56q-8 -16 -8 -18v-6q10 -100 10 -136v-46q0 -8 -2 -18l-8 -26q0 -16 6 -32t2 -32q12 -4 22 -4zM596 616l-2 22q0 12 4 24q-2 10 -8 14t-6 14l2 48q0 12 -6 22q6 12 6 20l-2 8q-44 10 -109 10t-75 -4t-13 -8 t-7 -7t-10 -3t-13 -4t-13 -13t-16 -11q-8 -10 -13 -21t-19 -15q-2 -22 -16 -38t-18 -28t-3 -17t1 -9l-8 -20l4 -12q0 -44 -13 -88t-13 -90l8 -46l-4 -24q0 -10 3 -19t5 -25q8 -54 20 -80q20 -50 64 -50h6q14 2 30 12t36 18t24 12q6 8 10 16t8 14q6 4 9 4t14 13t19 33l22 14 q8 28 26 50q-8 8 -8 20q4 8 14 25t12 33q10 2 14 10t10 12q0 56 12 68l-2 14q0 42 7 56t7 26z" />
<glyph unicode="e" horiz-adv-x="676" d="M524 802l58 -82v-4q0 -30 17 -50t27 -48q-6 -8 -12 -14t-10 -16q-14 -4 -20 -4l-32 2q-12 0 -20 -6q-10 6 -24 6h-24q-20 0 -34 6q-8 -2 -12 -12t-28 -9t-35 -2t-17 -6t-18 -3l-40 4h-48q-18 -28 -18 -148l14 -88l-2 -42q0 -22 4 -26q14 -18 14 -39t11 -43t14 -35t11 -33 t29 -37t48 -17t46 15t30 21t13 5t9 3t24 20t21 22t8 17t11 31t21 20t29 -21t15 -42t-23 -33t-29 -34q-32 -14 -37 -27t-10 -16t-7 -2t-6 1t-4 -8q-12 -8 -24 -20q-24 8 -48 -9t-46 -17t-40 16q-10 -4 -22 -4t-24 -4q-16 16 -36 24t-40 18q-4 12 -9 13t-1 15q-8 4 -15 8 t-15 8q-6 14 -22 30v26q-16 6 -21 25t-21 29q-2 24 -9 47t-7 47v36l-14 84v16l6 18l-6 18l14 84l8 12q10 52 17 94t28 81t43 74t28 65q60 48 122 82q10 -4 16 -4l32 6q18 0 42 -24l22 4h8q4 -6 5 -14t9 -10q22 -18 27 -43t29 -39v-18zM468 634l68 14v8q0 12 -3 24t-5 24 q-12 14 -23 22t-9 30q-18 6 -23 26t-9 38q-4 0 -4 8q-14 10 -20 16q-22 22 -69 22t-60 -11t-27 -60t-25 -82t-11 -67v-12l64 -8l46 4l16 -4l32 8l28 -4l16 8z" />
<glyph unicode="f" horiz-adv-x="546" d="M126 824q-130 0 -130 44q0 18 23 25t37 7l96 -12q24 0 25 13t1 31v2l14 200l-4 28l6 16l-2 14q0 16 4 34t7 42t7 67t24 69v8l14 74q12 12 16 25t14 25l8 2q4 10 8 12t9 7t6 9t5 6l6 -2q14 30 33 36t19 14t6 8t13 4t17 11t28 17t42 19t46 21q2 -2 12 -2l36 6q2 0 14 -2 t41 -6t31 -12q6 -4 15 -7t15 -7q4 -14 16 -18t22 -8q4 -12 13 -19t13 -19h2q6 0 8 -4t6 -7t8 -4t8 -4t3 -7t1 -6l8 -4q10 -10 16 -21t16 -21v-8q-2 -16 3 -30t5 -27t-2 -19q-20 -26 -48 -26q-12 8 -11 18t1 21t-4 13t-4 18v2q-2 6 -15 18t-17 17t-13 17t-13 16l-14 4 q-8 6 -15 13t-19 5q-12 16 -32 22t-36 20q-42 -12 -57 -12t-28 6t-18 6t-7 -4t-9 -11t-21 -15t-24 -18h-8v-8q-6 -4 -29 -14t-29 -16q-4 -6 -2 -13t-12 -3q-4 -108 -30 -174q4 -20 4 -33t-6 -27t-6 -18l4 -12l-8 -34l2 -24q0 -10 -6 -16q6 -10 6 -18l-6 -42l8 -42l-4 -40 l8 -96q0 -18 -4 -38q10 -8 30 -8l182 20q20 -20 24 -44q-22 -22 -32 -23t-27 -6t-22 -7t-15 -2l-30 4q-22 0 -42 -10t-44 -6q-2 0 -8 -19t-9 -28t-3 -11l4 -14l-4 -36l8 -96l-4 -44q0 -10 3 -22t6 -40t3 -75t4 -82t8 -57t7 -44t2 -46t1 -48l6 -44q0 -4 -6 -4q10 -26 10 -51 t8 -40t8 -31l-4 -38l8 -56v-22l-4 -82q0 -24 10 -26t18 -6t9 -6t9 -2l70 12l8 -2q22 -22 22 -36q0 -28 -31 -41t-65 -13l-28 4q-12 0 -25 -3t-29 -5t-40 -3t-40 -15q-4 4 -12 4t-12 4q-8 -4 -18 -6t-16 -10h-6q-8 0 -22 4q0 -8 -8 -8h-10q-16 0 -20 -12h-12q-14 -2 -31 5 t-17 29t16 24t32 8l8 10q38 12 60 16t34 15t12 91l-12 104l8 44l-12 46l4 18l-8 20q-2 4 -1 10t1 18v32q0 20 -4 38l-8 10l4 20l-4 2l4 10q0 10 -2 18q-10 24 -8 52t-2 44t0 32l-12 66l4 28l-6 90l-4 70l4 92q0 74 -26 134h-40z" />
<glyph unicode="g" horiz-adv-x="818" d="M794 866l28 8q4 -10 14 -15t8 -16t-7 -21t-11 -24q-22 -18 -47 -14t-49 -3t-40 -25t-42 -18q-2 -18 -6 -31t-2 -29q-10 -6 -10 -14q0 -12 -9 -21t-8 -17t-3 -12l-8 -4v-8q-6 -10 -16 -15t-20 -16t-16 -27t-22 -20q-14 -34 -24 -42q4 -18 8 -23t4 -25l12 -52v-26 q0 -14 4 -21t8 -19l-2 -26l8 -26q4 -16 4 -36v-34q4 0 4 -4l-2 -24q0 -84 52 -114q14 -8 22 -28q18 -8 40 -30t26 -44q38 -32 32 -62q10 -6 8 -18q0 -22 12 -38t12 -30t4 -25t8 -18t4 -17v-2l-4 -28l4 -48q0 -28 -10 -54t-14 -52q-18 -12 -26 -30l-18 -34q-10 -2 -19 -9 t-19 -11q-4 -4 -5 -11t-23 -24t-54 -51h-4q-18 0 -46 -16l-30 -16q-2 -2 -7 -2t-17 8q-12 -6 -19 -16t-17 -18l-50 -12l-28 4l-74 -14q-46 0 -54 8l-36 -2q-26 0 -46 9t-50 3q-12 8 -18 24h-6l-18 -4h-6q-2 12 -11 15t-19 7q-28 36 -58 42t-36 28q-10 34 -20 34t-14 16 t-22 20v2q0 8 -3 12t-1 14q-12 10 -16 23t-14 23q-2 26 -6 52t-4 54t9 52t9 46q12 20 29 62t29 50q4 6 4 13t4 14t11 12t13 11l18 28l42 42q20 20 38 44l32 40q12 18 34 36q6 2 16 8q40 24 64 30h16q10 0 14 -4q30 14 47 14t21 -2q2 4 10 3t4 9q8 -6 20 -6l44 6h12 q6 -4 12 -7t8 -13q2 2 10 2l40 -16q16 0 16 12l-12 26l4 26q0 16 -4 36l-6 28l4 18q0 8 -5 15t-8 18t-2 24t1 29l-10 60l-4 4l-18 -6l-20 4q-10 0 -22 -7t-64 -7t-96 24v10q-8 4 -19 8t-9 16q-4 -2 -9 1t-15 7t-15 7t-8 7t-6 9t-10 13t-15 15t-12 14t-7 20t-10 39t-7 62 t10 54t16 32t10 28q4 28 42 72l20 28q10 12 24 22t20 24q8 2 13 7t15 10t19 13t22 16t33 16t36 18h20q50 0 96 -32q4 -2 6 -4q6 -10 20 -10q8 0 26 -14q16 -8 25 -22t21 -24h8v-8q4 -4 10 -6t2 -10q12 -4 18 -14t18 -14q4 -10 6 -20t10 -14h2q2 0 6 -4l20 -2q72 0 134 36 q4 -4 10 -4zM708 -376l4 32l-8 22q4 6 4 26v30q0 22 -8 43t-4 43q-10 10 -10 17t-5 24t-18 34t-19 39l-6 -2q-8 0 -24 10q-26 10 -30 16t-6 13t-10 18t-15 18t-11 17q-46 20 -70 52q-10 0 -14 4t-14 8h-2q-10 0 -10 9t-10 7q-24 4 -49 13t-42 9t-31 -6t-42 -6t-42 8 q-14 -14 -34 -26q-8 4 -14 4h-6q-4 -10 -19 -16t-24 -19t-19 -15q-4 -10 -4 -18t-4 -16q-8 0 -8 -5t-7 -12t-19 -13t-22 -16v-8l-8 -2q-30 -44 -31 -77t-6 -66t-9 -50t-4 -44t14 -55q28 -52 28 -70t11 -29t17 -19l16 -30q10 -14 22 -26t16 -28q18 -10 41 -26t41 -24 q20 -6 65 -17t85 -11t114 20h12l8 8l12 -2q54 26 60 24q0 12 26 28t32 32q6 4 14 7t14 9l44 48q10 12 18 27t20 25v10zM570 686l6 70q0 42 -11 57t-17 22t-12 23q-10 4 -18 9t-18 7l-40 44q-8 6 -12 6t-14 18q-22 4 -42 11t-42 11q-6 -6 -17 -7t-23 -5h-2q-6 2 -4 -6t-10 -8 l-34 -12q-4 -4 -4 -9t-3 -10t-9 -7q-4 0 -14 -24q-6 -28 -14 -37t-12 -19l-14 -84q0 -12 4 -28l-2 -26q0 -14 4 -12t4 -10t6 -20t2 -18q16 -14 23 -37t29 -37q4 -4 4 -7t4 -6t23 -9t24 -6t5 2t4 2l36 -4q6 0 11 3t11 5l28 4q28 8 50 24t48 32q8 14 12 30h2q8 0 8 6 q2 8 15 18t11 20t9 13t5 11z" />
<glyph unicode="h" horiz-adv-x="850" d="M272 670l-12 -26q4 -18 4 -26l-4 -46q4 -4 4 -8l-4 -8l6 -28q10 -40 9 -80t-1 -82l4 -30l-4 -24l8 -40q0 -10 -2 -16t2 -14l-4 -34l4 -22l-8 -30l4 -24l-4 -26l12 -46q20 0 34 10t38 10t24 -24t-22 -37t-36 -19t-25 -7t-25 -4t-18 -5t-23 -2t-51 -9t-42 -23q-4 -2 -6 -1 t-7 1t-19 -9t-30 -7h-6q-22 10 -22 56q6 -2 8 5t7 10t11 2t29 8t59 17q6 16 6 32t-4 31t-2 31v70q0 46 2 50l-6 18l4 12l-8 32q-4 34 -4 70v70q0 32 -6 62t-10 62v42l-8 60l2 66l-2 58v42q4 12 4 18l-8 20q0 4 4 12q0 30 -4 62l-8 32l4 12l-10 140l8 74l-4 26l6 24l-8 72 l6 94l-8 86q-4 48 -4 91t-28 43l-40 -4q-22 0 -34 18t-12 24l2 8q6 18 31 18t47 3t62 13t65 10t31 -16q-4 -28 -14 -36t-16 -28l4 -56l-6 -46l8 -54q0 -10 5 -13t5 -15l-4 -38l4 -12l-4 -8q10 -32 9 -73t9 -69q-4 -10 -4 -64l-4 -66q0 -24 3 -49t7 -61l6 -84q4 -48 8 -98 q4 -2 25 -2t31 26q10 0 16 8q14 20 20 14t12 5t11 13t7 1t6 -1t6 2q2 10 54 20t58 10t18 -2t39 -6t34 -16t22 -28t37 -39t40 -53q6 -4 9 -11t9 -11q-2 -4 -2 -12l16 -64q0 -12 4 -22t5 -23t3 -25l8 -28q4 -20 4 -42v-40q0 -4 -2 -4t-2 -4l12 -56l-8 -50l8 -70q0 -34 -4 -68 t0 -70q-12 -22 -12 -50v-40q0 -12 4 -24q12 -4 30 -4l80 16q4 -8 15 -13t11 -13q0 -24 -18 -24q-40 0 -74 -34q-6 2 -18 2l-54 -10h-14q-12 0 -13 -5t-17 -5l-50 -6l-16 2q-14 0 -16 -9t-14 -9l-8 2q-8 16 -8 34t7 26t16 12t20 8t17 14l10 50q2 8 2 18l-6 54l4 40l-4 34 l8 40l-4 36l4 78q0 34 -9 68t-9 70l4 28q0 2 -8 50l4 6q-12 14 -11 17t1 16t-5 25t-8 26t-5 32q-4 28 -15 41t-14 21t-9 16t-15 13t-19 15q-16 -10 -43 -9t-39 1t-13 -4t-6 -11t-14 -14t-15 -17q-38 2 -52 -20q-24 -40 -38 -50q-6 -18 -15 -19t-5 -11l-2 -6l8 -24v-12z" />
<glyph unicode="i" horiz-adv-x="492" d="M204 498q8 72 8 101t-6 49q10 20 9 41t2 37t6 23t3 15l-4 42q4 6 4 18v30q0 20 -8 34h-12l-52 -2q-16 0 -34 6q-4 12 -10 15t-6 13t2 14q34 28 172 28q26 0 36 -5t17 -26t7 -31l-4 -24l8 -26l-4 -58l4 -58l-4 -54l4 -28l-12 -94l4 -90q0 -18 -4 -33t-8 -35t-2 -42t2 -35 t-2 -13t-2 -10t6 -23t2 -27q24 -16 26 -16l38 12q0 16 22 16q6 0 5 -8t7 -12t13 -9t8 -16t7 -19q-2 -14 -17 -23t-30 -9t-23 12q-16 -18 -37 -18t-35 6q-18 0 -60 -14h-12l-26 -2q-12 0 -20 6q-28 -8 -48 -8q-32 -16 -56 -16t-24 20q-18 0 -18 18t10 26q22 20 47 23t43 11 t30 8t20 4v20l-4 74l14 138zM198 1324l-28 4q-4 6 -10 12t-9 16t-6 10t-3 20t10 40t41 37t55 17t31 -16t12 -32t11 -25t6 -19q0 -20 -29 -51t-46 -31t-27 18h-8z" />
<glyph unicode="j" horiz-adv-x="504" d="M378 884l-8 -24q0 -6 2 -10q4 0 4 -4l-4 -2l8 -24l-8 -52q4 -8 4 -13t-4 -9l4 -12q0 -4 -2 -4t-2 -6l8 -18q0 -8 -4 -12q2 -16 2 -31t3 -27t6 -17t3 -13l-4 -46q0 -34 4 -66l8 -34q4 -16 3 -32t1 -37t5 -45t3 -50l-4 -32q4 -4 4 -7t-2 -3t-2 -4l12 -48v-28l10 -82l-2 -20 l10 -130q0 -28 -8 -50q12 -28 12 -64q0 -60 -10 -121t-32 -99l-8 -4l2 -10q0 -8 -12 -13t-12 -21v-2l-10 -4q-14 -28 -26 -42l-28 -28q-40 -38 -40 -50h-8q-10 0 -20 -11t-30 -15q-12 -10 -23 -17t-21 -19q-14 -4 -27 -4t-26 -3t-24 -8t-23 -5t-20 7t-30 3q-22 16 -42 31 t-48 23q-6 14 -20 21t-22 23q-6 6 -7 15t-9 15q2 34 1 68t7 70q16 10 26 36q26 6 49 20t54 14t47 -20q4 -2 3 -5t3 -10t9 -14t5 -21t-8 -16q-24 -12 -36 -24l-54 32l-18 -10l-10 4q-4 -2 -6 -2q-8 -14 -12 -27t-14 -23q4 -10 4 -35t6 -31t22 -15t16 -25h6q16 0 24 -17 t19 -20t18 -1t13 2t14 -4q12 8 26 9t42 4t56 27t42 50t26 40t22 28t10 31t12 27q-2 6 -2 18l6 50l-4 30l8 86q0 16 -3 33t-5 34t0 33t2 32l-10 68l4 12l-8 30l4 24l-8 60l-8 26l4 36l-8 64l4 16l-8 94l4 44l-8 94v54l-8 68q0 6 8 70v38l10 108q0 18 -2 28h-2q-20 0 -33 -15 t-28 -20t-26 -3t-20 -1t-15 -6t-18 -6t-28 -2t-26 -13q-8 4 -12 4l-36 -8q-12 12 -12 36v6q8 2 8 12q18 4 31 8t25 7t20 3q8 -2 40 14q16 4 30 6t31 7t27 10t22 5t17 7t12 6t16 3t15 11t22 7t42 -26v-10q0 -4 6 -7t8 -7zM256 1470l44 -10h34q2 0 9 -7t22 -20t15 -24t-5 -17 t-7 -14q-6 -6 -16 -6q-28 4 -18 -16l-4 -6q-18 -6 -42 -10t-34 -12t-23 -8t-30 7t-35 5q-18 22 -18 56t58 60q34 22 50 22z" />
<glyph unicode="k" horiz-adv-x="890" d="M94 48q10 10 12 10l14 -4q10 0 23 10t23 16l2 24l-8 32q0 6 2 8q4 0 4 4l-4 18l4 56q0 6 -2 13t-9 36t-7 117l-4 28l4 12l-6 12l2 34l-4 96q-2 4 -2 12l4 12l-8 64l2 38v60l-4 12v4q6 2 6 10l-8 40l2 44l-8 46l4 40l-6 52l10 128l-10 62l10 58l-6 28l6 24l-4 24l10 106 l-2 12q0 8 8 10q-6 6 -6 18l6 60l-4 118l6 48l-6 28l4 32l-6 24l-16 2l-74 -12q-20 0 -30 8q-2 4 -2 10q0 28 90 44q34 8 68 15t48 21q6 -2 20 -2l76 10q14 0 20 -2q4 -6 15 -13t11 -16t-6 -15t-13 -9t-16 -6t-13 -11h-4q-18 0 -30 -7t-28 -13l2 -8q0 -16 -7 -29t-7 -27 t6 -44l-2 -28l8 -26l-6 -66l4 -78l-6 -48l6 -48l-6 -32l8 -40q0 -22 -10 -48q8 -14 8 -32l-4 -40q4 -8 4 -12l-6 -12q2 -6 6 -10t4 -28l-6 -120l2 -10l-4 -12l8 -56l-4 -24l8 -44q4 -24 4 -50v-48l-4 -48q0 -26 18 -36q48 10 62 44q18 6 28 20q22 28 52 31t47 30t35 29 t25 11t12 13t9 2t8 1t4 6t8 9q84 60 84 96q0 20 -15 28t-15 22q0 22 36 22l46 -2l128 4h18q18 -24 18 -37t-16 -21q-24 -16 -35 -15t-33 1q-42 0 -62 -44q-40 -24 -47 -38t-16 -18t-9 -14q-16 -4 -33 -20t-27 -16q-34 -28 -62 -32q-14 -24 -46 -40l-2 -14q0 -26 14 -37 t24 -27q6 -32 22 -42l-2 -4q0 -10 9 -17t13 -16t5 -17t6 -20t15 -23t15 -19t4 -10t1 -6l8 -4q10 -16 18 -34t24 -28q0 -16 12 -28t17 -25t7 -22t4 -15q12 -16 21 -44t9 -32q16 -16 22 -36q14 -48 26 -56q12 -18 34 -86l6 -4q4 -8 7 -17t13 -23t25 -38t31 -48q36 -52 88 -52 q10 0 13 6t17 6t32 20t24 26q16 40 16 64t-24 54q-2 2 -10 2t-16 -4t-17 -6t-15 0t-12 2l-20 -4q-16 0 -23 15t-7 27t3 13t13 1q28 28 54 28l62 -6q40 0 46 -19t13 -37t9 -24q6 -8 6 -18v-20l10 -52q0 -8 -7 -20t-17 -30t-19 -26t-35 -26q-4 -14 -15 -18t-21 -14h-4l-22 10 q-14 0 -21 -7t-17 -11q-10 4 -20 4h-20l-42 4q-10 0 -31 12t-26 19t-9 7q-22 0 -44 56q-4 10 -4 18q-8 6 -16 9t-15 7t-12 11t-10 12t-6 12t-5 12t-9 7t-5 6l2 10q-4 6 -22 18q-8 44 -31 79t-28 59t-25 46q0 34 -18 56t-24 52q-8 16 -18 18v4q0 8 -3 11t1 13q-6 8 -15 12 t-15 14v2q0 16 -14 33t-22 51t-30 59t-28 40t-7 29t-13 20h-6q-14 0 -28 -12t-22 -18t-24 -6q-40 -36 -40 -94l8 -114l-6 -42l6 -38l-2 -94l4 -20l-6 -18l10 -46l-4 -20q0 -10 10 -14q-2 -6 -2 -10t3 -8t5 -8q12 -6 48 -6t46 -14l-2 -28q-22 -24 -56 -18q-20 -6 -33 -11 t-42 -5t-61 -18h-14q-8 0 -12 4q-18 -6 -29 -12t-33 -4q-10 -10 -30 -10t-26 2q-8 16 -8 31t17 24t33 9z" />
<glyph unicode="l" horiz-adv-x="424" d="M164 -106l-12 136v36l4 4l-8 12l4 38l-2 42q0 20 6 38q-8 8 -8 16l8 40l-4 38l2 46l-10 58l4 30l-4 34l2 104l-10 196l4 36l-6 28q0 10 2 17t0 17q-4 10 -3 19t1 21l-4 58l8 66q-2 16 -2 34v34l4 110l-4 38l8 54l-4 62q0 4 6 17t7 22t4 23t2 33t-1 34t-10 29l-12 2 l-56 -6q-26 0 -26 12v30q14 16 43 17t47 13h12q12 0 18 -6l38 24h8l60 8q8 4 15 9t20 5t19 -14q0 -28 -15 -32t-24 -7t-13 -8t-10 -1q-4 -16 -18 -22q2 -8 2 -24t-6 -36q14 -26 14 -54t-5 -28t-5 -6l6 -22q2 -22 1 -43t-1 -43l4 -22l-10 -30l10 -42l-10 -72l10 -36l-4 -32 l4 -22l-4 -20l4 -18l-4 -22l8 -42l-4 -26l8 -46l-4 -18l4 -20l-4 -10l4 -6l-4 -16l8 -38l-4 -48l8 -42l-4 -22l4 -34l-4 -28l6 -40l-2 -46l2 -22l-2 -14l6 -34l-4 -28l4 -18l-4 -10l8 -32q4 -16 4 -34v-76q0 -20 -4 -40l-8 -38l8 -30l-4 -30l4 -22l-4 -34l4 -30l-4 -44 q0 -18 8 -28h8q22 0 34 15t28 13h6v-8h10q6 0 8 -4q-4 -42 -48 -78q-16 -4 -28 -4t-18 4q-10 -10 -33 -8t-38 -13t-28 -19t-26 -1t-26 -1t-24 -15t-27 -11l-10 2q-10 -4 -9 5t1 15v4q-8 2 -8 18v4q12 20 34 25t30 11v4q0 8 13 6t21 10z" />
<glyph unicode="m" horiz-adv-x="1438" d="M142 916l-52 -16l-18 4l-26 -10q-20 0 -20 22l2 18q0 6 -2 8q12 4 17 9t21 3l32 16q22 -4 41 -4t37 14t42 14h38l62 8q24 -18 24 -33t-15 -21t-23 -16l-4 -2q-10 0 -14 6t-16 6q-2 -8 -2 -35t8 -58t8 -67l-4 -32q0 -20 20 -74q2 -2 11 -2t12 7t7 12t5 5t3 6t3 12t5 13 t8 10t19 22t31 27q2 10 8 14t4 16q4 0 25 13t24 17t2 7t1 5q4 2 6 0t8 11t17 12t29 9q58 36 107 36t58 -6t8 -9t3 -5l12 -4q12 -12 21 -40t17 -45t12 -18t4 -13t3 -15t6 -13t1 -27t16 -27h2q26 0 32 30q22 14 34 52q2 4 6 6t8 6q4 12 8 25t8 23q6 6 13 11t13 13v8h8 q10 14 21 33t19 26t15 11t27 18q86 62 154 62h8q58 -38 90 -174q8 -32 16 -60v-4q-6 -30 0 -32t6 -26t10 -54t10 -64l-6 -124l4 -38q0 -6 -4 -11t-6 -16t0 -24t2 -31l-10 -86v-46q0 -22 4 -46q2 -12 29 -12t48 8t39 12l20 -14q0 -6 9 -5t9 -5v-26q-10 -14 -29 -16t-31 -16 h-14q-12 0 -39 -5t-50 -8t-51 -21q-4 2 -19 2t-21 -10q-4 2 -13 2t-18 -4t-19 -6l-42 -4q-10 -2 -20 -6t-22 -4t-20 10v4q0 18 8 27t16 23l38 14l16 8l20 -2q10 0 16 8t20 4l12 228l-4 56l8 22l-4 4l4 18l-4 38l2 128v34q0 40 -7 62t-7 40l2 32q0 20 -5 40t-9 43t-8 33 t-28 24q-22 -4 -46 -12t-30 -34q-30 -10 -47 -35t-47 -37l2 -6q0 -4 -2 -9t-4 -13q-14 -10 -27 -37t-21 -38t-7 -14t1 -7l-2 -10q-10 -4 -13 -13t-7 -17q-12 -4 -13 -14t-11 -14q-2 -24 -9 -37t-3 -37q-30 -28 -32 -85t-6 -88t-26 -49q-16 -4 -33 -2t-33 -6q-2 6 -13 18 t-9 46t2 48l-8 74l4 22l-8 58q0 14 8 22q-8 28 -8 66l4 54q0 14 -6 25t-10 26t-3 33t-15 28h-12l-34 -4q-8 0 -10 6t-12 6h-4q-6 -6 -8 -17t-12 -15q-8 0 -12 -3t-16 1q-18 -6 -20 -13t-6 -25q-14 -4 -22 -14t-24 -12q-12 -20 -34 -28l-14 -26q-6 -14 -20 -22l-4 -34 q-16 -10 -26 -26q2 -72 -48 -124l-2 -4q0 -4 12 -22q-4 -40 -4 -76v-330q8 -2 22 -2l90 10h6q22 -22 22 -38v-10q-26 -18 -48 -18h-40q-34 0 -48 -10t-24 -14t-18 -3t-17 -2t-16 -6t-22 -9t-40 -8t-47 -14l-20 64q20 6 50 26q10 4 29 12t19 22l-6 26l6 64l-6 86v42l4 32 l-12 44l10 52q0 34 -7 65t-12 68t-5 88t-8 87l4 14q0 8 -8 24q-8 34 -6 70t2 72q-8 4 -20 4z" />
<glyph unicode="n" horiz-adv-x="978" d="M968 308l-12 -30q-24 -2 -72 -26q-44 -4 -89 -7t-91 -9l-12 46q2 8 23 20t25 16q4 64 4 121t-6 95t-9 59t-2 57t-19 52l6 22q0 6 -5 21t-15 49t-22 54t-35 37t-38 17t-44 -17t-46 -24t-17 -10t-3 -6t-6 -2t-8 -4t-9 -15t-8 -14t-7 -3t-7 -3t-11 -10t-11 -12q0 -14 -6 -14 t-12 -3t-11 -8t-13 -9v-8q0 -8 -4 -26q-12 -8 -18 -19t-18 -15q-4 -26 -17 -43t-23 -39q4 -6 4 -20l-8 -52l4 -12l-16 -84l4 -44l-12 -82l4 -34l-4 -38l4 -12l-4 -16v-4q6 -2 4 -3t-2 -14t16 -29q-6 -12 -6 -16l12 -62q0 -14 -4 -20q4 -2 8 -2l40 10q16 -6 32 -26v-10 q0 -18 -10 -24q4 -4 4 -8t-4 -8t-4 -12l-4 2q-10 0 -17 -7t-14 -7t-28 7t-23 9q-16 -8 -29 -8t-13 3t-4 1l-4 -8q-10 -4 -20 -2t-17 0t-7 -4t-2 0t-9 2t-15 -8t-34 -8l-42 -8q-14 0 -20 4q-8 18 -8 44v16q32 16 69 20t69 24q-12 162 -12 218l4 60q0 4 -2 4t-2 4l4 20v20 q0 2 8 50l-2 64l12 136l-4 36l10 76l-6 46l8 116q0 108 -22 144h-6l-26 -8h-34l-22 4q-4 0 -5 -3t-6 -6t-15 -2t-19 1t-15 -2q-14 12 -14 28t4 32q18 10 41 10t40 4t28 8t26 4t23 -4q16 12 66 12q8 -10 25 -23t17 -23l-2 -16q10 -12 10 -20v-12q0 -22 -6 -28q10 -14 10 -82 l-2 -90q0 -20 8 -28q6 4 14 3t14 3q12 16 38 42t32 42q54 34 63 46t13 14l8 -2q4 0 11 7t13 10t13 7t14 7t13 2t10 3t6 8t6 6l8 -2l22 4q18 0 38 -19t40 -25q10 -18 27 -30t33 -24q4 -16 15 -26t22 -25t22 -36t25 -39q0 -36 9 -72t13 -74l8 -76t4 -76l-4 -52l4 -20l-8 -32 l4 -26q12 -12 30 -12l56 8q4 -12 12 -18t8 -16z" />
<glyph unicode="o" horiz-adv-x="840" d="M666 966q14 0 14 -12q0 -4 9 -14t16 -13t7 -29v-6l8 -8q8 -22 10 -45t12 -47q-4 -4 -10 -19t-6 -21t6 -8t6 -15t-9 -28t-9 -31l2 -18q0 -16 -11 -33t-27 -21q-4 -4 -3 -7t1 -9t-6 -8v-2q0 -4 -11 -10t-20 -16t-19 -18v-8q0 -12 -7 -17t-9 -15q-40 -20 -60 -40h-32 q-8 0 -18 -8t-19 -12t-22 -5t-23 -3l-4 4q0 -4 -6 -4l-28 8l-52 -4l-52 12q-4 8 -10 14t-10 16l-34 10q-4 4 -7 11t-10 7t-13 -2q-6 6 -4 12t-8 6t-10 8t-10 6q-2 8 -6 14q-18 26 -18 44q-4 8 -10 10t-10 6q-40 88 -40 134t5 67t12 39t17 36t18 44q16 6 21 22t12 20t10 4 t6 3t2 6t2 8t18 18t20 17t12 5t15 5t19 10t32 11t49 7t54 18q24 -10 50 -15t50 -11q2 -10 6 -15t6 -15l68 10q10 0 36 -23t22 -33q4 -4 10 -4zM484 510q22 16 42 14q4 10 13 13t22 14t23 30t28 29q4 16 14 27t19 22t12 28t7 45t4 56t-9 38t-11 22t-1 19t1 17v6 q-12 12 -23 19t-21 17q-46 2 -85 18t-83 22q-22 14 -40 14t-24 -1t-10 -3t-8 -5t-11 -6t-14 -2t-16 -2t-20 -11t-21 -12q-4 -14 -13 -23t-18 -38t-9 -48t14 -89l-4 -4q4 -18 9 -31t8 -23t2 -15t-1 -11l8 -32v-2l8 -8v-8q0 -4 6 -11t6 -23q12 -8 24 -23t25 -23t39 -11t48 -13 q32 8 60 8z" />
<glyph unicode="p" horiz-adv-x="956" d="M176 -654q-48 6 -48 22q0 20 30 40q28 14 39 14t15 -2q10 10 23 12t25 12v4q-2 10 4 19t6 22t-4 13q-10 0 -8 17t2 25l-10 34l6 34l-6 34l6 22q0 20 -11 51t-11 60t-3 46t-7 28t-4 19v50l-8 58q-2 10 -1 17t1 17l-16 138q0 42 -16 106q-10 74 -10 105t-6 44t-9 39t-3 74 t-8 68l4 12l-8 80l4 116l-8 40l4 44l-8 138l4 64q0 64 -4 132q-2 2 -4 2l-14 -10l-58 -16q-10 0 -17 8t-15 12q-4 4 2 4q2 4 -3 10t-5 9t6 7q14 10 60 20t68 28h4q24 0 44 16q64 0 67 8t15 8q24 0 38 -32q-8 -28 -31 -42t-47 -24q-6 -14 -6 -38l2 -80v-48q0 -26 3 -43t4 -27 t15 -12l4 -2q12 0 10 8q0 10 16 18v8h8q8 10 14 21t12 21q14 4 19 14t11 14t9 3t7 1l2 8q4 2 7 2t5 2l4 8q16 12 36 20t36 22l28 4t46 18q12 2 40 1t67 -1t61 -11t34 -25t30 -20q4 -10 11 -16t13 -14l4 -14l8 -4l4 -12q68 -112 68 -211t-50 -209q-14 -30 -33 -57t-37 -57 q-16 -2 -24 -13t-38 -29t-72 -22q-20 -14 -32 -18l-34 -4q-14 -4 -23 -10t-29 -6t-34 12h-4l-16 -2q-14 0 -26 9t-28 9l-32 -6q-6 0 -6 8t-6 8q-4 6 -12 5t-16 4t-10 18t-18 13q-8 -6 -8 -25t7 -58t6 -53t2 -26t8 -22t5 -18l-4 -10q0 -8 4 -17t5 -20t8 -39t1 -34 q0 -34 9 -67t9 -69l-4 -38q0 -18 12 -48q6 -28 6 -58t4 -51t8 -31t4 -26v-18q0 -4 -2 -4t-2 -4l6 -44q2 -24 1 -48t1 -50q4 -12 4 -18l-4 -20q0 -24 8 -50t12 -52q8 -4 20 -4t23 15t21 15l10 -2q8 -16 8 -39t-5 -23t-9 -5t-2 -7q4 -8 -11 -11t-27 -9q-20 -10 -30 -10h-12 q-36 0 -60 -9t-44 -11q-80 -8 -106 -26zM330 910l-16 -48l4 -10q0 -20 -14 -40t-17 -32t-2 -27t1 -32t6 -25q16 -26 12 -55t13 -49t29 -39t19 -30t13 -14t19 -4t36 -6t35 -10t30 -5l78 10q4 2 10 8t16 6t16 3t16 13t16 12q14 2 38 48q38 76 38 108v30l4 48l-8 42q0 6 4 10 l-8 72l-6 28q0 12 -6 20t-2 20q-18 26 -18 43t-6 35h-10q-2 4 -2 11t-2 9q-16 2 -31 10t-31 8l-28 -4l-24 4l-22 -8q-8 -2 -16 -1t-17 1t-20 -11t-21 -19q-14 0 -22 -7t-22 -7q-10 -30 -50 -56q-8 -28 -34 -46q2 -4 2 -14z" />
<glyph unicode="q" horiz-adv-x="936" d="M778 432l-26 -162l2 -42l-12 -80q0 -4 -4 -4l4 -14l-8 -40l4 -34l-12 -58l2 -34q0 -14 -3 -26t-5 -25t-1 -24t1 -25l-4 -28q0 -18 18 -18q10 0 22 10t16 20q16 8 25 33t37 43q8 24 24 44l8 4q14 44 42 44q34 0 34 -38t-24 -62h-10q-4 -4 -2 -8t-4 -11t-13 -7t-7 -12 t-6 -18l-16 -16q-24 -28 -26 -38q-6 -4 -10 -4h-14q-4 -36 -21 -52t-29 -24t-26 -22q-4 -8 -13 -33t-18 -39t-11 -45t-8 -51q-30 -40 -54 -40t-36 7t-14 39t-4 49t-4 32t-2 29l10 44q0 2 -3 2t-3 6q4 4 4 45t4 64t8 35t4 28l-4 34q0 10 5 24t4 30t-1 27t2 21q10 34 10 88 l-4 38l8 42q0 12 8 14q-2 10 -2 54t11 91t11 51l-2 26l8 46l-4 22l4 18l-4 36q0 24 -8 40q-16 0 -22 -8t-20 -12v-2q0 -8 -10 -7t-10 -5l-16 -14q-16 0 -35 -12t-35 -12l-18 4q-6 0 -10 -3t-9 -5t-12 -1t-15 1l-26 -2q-16 0 -32 -10q-24 6 -32 6t-16 -6q-12 20 -46 20 q-2 10 -8 9t-15 5t-17 17t-24 11q-16 24 -34 41t-34 39q-16 30 -30 56t-14 78t4 82t15 51t29 44t44 79q20 14 40 26t40 30q22 4 42 14t39 19t40 11t41 4l22 -14q4 2 10 2l76 -14l4 -8q26 -10 28 -32q18 -6 31 -17t22 -18t15 -9t15 -10t16 -25t23 -27q10 4 10 15t2 22t10 48 t23 105t32 86t32 18t27 -11t12 -21l-22 -176l4 -24l-12 -42l4 -20q0 -14 -5 -44t-7 -45t-6 -41t-3 -67t-4 -67t-8 -39t-3 -23l6 -52q0 -16 -6 -82q4 0 4 -4l-6 -44q2 0 2 -14zM244 852l-4 -28q0 -10 8 -25t13 -30t6 -36t7 -35t11 -15t5 -17t18 -33t22 -23t3 -8t4 -9t15 -13 t18 -14h16q90 0 166 54q14 10 34 12q16 22 29 44t29 42v6q-2 16 5 29t12 27t5 28v24q0 16 -16 55t-32 47q0 10 -9 12t-7 12q-36 12 -44 32h-4q-10 0 -21 5t-21 7q-32 24 -79 38t-58 14t-17 -14q-8 -2 -12 -4t-14 0q-4 -14 -23 -17t-29 -9l-4 -8h-8v-8q-6 -12 -13 -52 t-11 -61t-4 -25q4 0 4 -4z" />
<glyph unicode="r" horiz-adv-x="780" d="M254 946l-6 -30q0 -22 24 -34q6 2 20 15t44 38t34 39q16 10 38 29t26 25h8q38 38 93 53t73 15q58 0 96 -44q8 -12 17 -25t25 -29q12 -8 17 -37t13 -41q-4 -8 -11 -23t-16 -30t-16 -28t-12 -17t-23 -15t-24 -23q-2 -2 -19 -6t-21 -8h-4q-6 -2 -7 4t-5 10h-8q-16 0 -22 8 l-18 16q12 32 32 52q16 -4 30 -4q32 0 50 56q-12 20 -17 38t-17 41t-51 23t-63 -19t-30 -41q-18 -8 -32 -25t-36 -31t-22 -17t-1 -5t-6 -4t-17 -8q-4 -6 -6 -13t-6 -15q-10 -2 -17 -9t-17 -9l2 -18q0 -26 -36 -62l8 -26v-2q-8 -12 -11 -28t-15 -26q-10 -50 -10 -116l2 -158 q0 -10 2 -31t5 -61t11 -54l-2 -8q2 -4 2 -23t7 -40t1 -45q6 -16 32 -16t36 8h2q8 0 7 6t3 12q8 4 21 4t21 -16t8 -29t-2 -19q-18 -14 -40 -12q-6 -4 -13 -11t-19 -13t-48 -5t-51 -4t-18 -7t-14 -5t-29 -3t-32 -12h-4q-6 0 -8 3t-6 5q-20 -4 -32 -4t-18 4q4 54 84 72 q0 10 8 12v4q0 22 -8 44t-8 46l4 26l-12 64l4 36l-12 116l4 82v24l-12 56l4 34l-4 64l4 48l-6 70q-2 24 -1 48t1 48l-6 38q0 24 -4 56q-12 -4 -27 -1t-23 -13q-8 6 -10 6l-30 -12q-2 10 -11 8t-15 -2h-2q-4 18 -4 24q0 32 32 32l24 6q64 18 93 28t37 8t16 -14t12 -26t5 -29 t3 -29z" />
<glyph unicode="s" horiz-adv-x="668" d="M644 1162q26 0 26 -34q0 -16 -15 -31t-21 -22t-8 -7q0 -26 -22 -34l2 -4q0 -8 -12 -16q2 -2 2 -13t-9 -20t-9 -23q-10 -2 -16 -8t-16 -8q-4 -10 -10 -17t-12 -15q-8 -4 -10 -14t-14 -10h-4q-16 16 -16 39t13 48t35 31q-2 14 -2 27t-5 26t-16 19t-13 20q-16 0 -30 8t-30 8 l-50 -8q-6 0 -18 4q-20 -6 -29 -25t-29 -25q-8 -18 -20 -32t-18 -32q8 -24 6 -46t-2 -44l2 -26q16 -62 43 -128t29 -69t2 -10t8 -21t17 -29t19 -29t19 -33t19 -50t19 -50t14 -24t10 -13t4 -16t3 -21t11 -24t7 -29q6 -6 9 -15t11 -15q4 -32 17 -62t13 -51t4 -23t4 -21 t-10 -59t-10 -73t-12 -50t-8 -35q-10 -4 -14 -15t-16 -15q2 -2 2 -4t-13 -14t-17 -12q-6 -18 -6 -24q-16 -8 -28 -19t-28 -17q-12 -12 -27 -22t-23 -26q-18 -4 -36 -12t-31 -8t-25 4q-10 -2 -19 -8t-23 -6l-26 2l-32 -6q-12 0 -22 12t-18 22h-6q-20 0 -29 12t-25 18 q-12 26 -28 47t-22 42t-15 28t-9 19l2 26l-6 46q0 18 10 33t10 31q4 0 68 64q16 0 26 6t26 10l38 -18q32 -16 43 -37t23 -36t12 -28t-13 -24t-26 -11t-28 11t-31 17q-10 10 -13 25t-15 19l-52 -24l4 -28v-4q-10 -8 -6 -28t-12 -28q12 -10 12 -22t7 -29t24 -35t27 -38h4 q18 0 26 -18q30 -6 44 -6h10l4 4l12 -2q22 0 40 7t38 9q16 8 28 18t24 18t24 14t24 14l4 8h8q2 4 1 6t2 7t9 9t9 12t3 25t2 27t6 19t4 15l-6 26l2 30q0 34 -14 67t-12 67l-16 24l-6 16l-10 6l-4 28q-4 10 -14 23t-12 27t-5 23t-3 21t-2 20q-4 8 -7 5t-3 11v2q-6 16 -22 38 t-23 39t-9 26t-12 15q2 2 2 8q0 32 -28 46v14q0 8 -3 8t-5 4l-12 26q-20 34 -24 59t-7 42t-2 28t-2 24t-7 29t-4 31t5 42t2 50t1 45l8 10v8q0 8 31 64t33 60q4 4 11 8t11 8l54 58q22 4 44 9t44 5l20 -4q4 0 4 3t4 1l4 -6q8 -4 18 -3t17 -3t14 -13t11 -8t6 1t6 2l4 -4 q2 -10 8 -14t14 -14v-8l8 2q20 -26 31 -26t16 7t11 15t13 16t25 8z" />
<glyph unicode="t" horiz-adv-x="664" d="M536 334l34 4q10 0 19 -8t23 -4q6 -14 30 -24q2 -18 24 -28q2 -16 8 -27t4 -27v-4l-6 -4q0 -4 3 -4t3 -11t-9 -35t-19 -38q-4 -28 -16 -45t-22 -41q-18 -2 -32 -16t-20 -13t-17 -5t-17 -20l-10 4q-6 0 -10 -7t-16 -10t-32 -2t-40 -9q-26 22 -46 20q-4 14 -20 19t-29 12 t-24 17t-25 16q-2 12 -10 17t-6 21l-22 10v8q0 30 -7 40t-10 24t-2 25t1 24t-8 35t-7 39t-2 41t-9 60t-10 65t-2 50t2 41v34q0 26 -5 38t-5 18l8 42l-8 22l8 56l2 74q0 60 -15 82t-26 22t-23 -8t-29 -6t-27 2l-14 -2l-30 6q-12 24 -12 36t6 20t10 18q14 4 37 4t33 12 q6 -6 16 -6t20 4t22 2q18 28 18 74l-10 134l4 32l-4 30q4 12 4 16l-4 12q0 6 9 33t13 40t7 19t9 12t6 14h8l12 4q42 0 42 -50v-26q0 -18 10 -38q2 -70 12 -139t14 -141q18 -12 42 -12l74 8q30 0 38 -11t16 -11l-2 -6l6 -22q0 -22 -18 -30t-32 -18q-56 22 -76 22t-32 -6 q-6 -12 -6 -22l10 -46l-8 -84l8 -40l-4 -40l4 -70l-8 -66q0 -62 16 -70q2 -2 2 -10l-2 -68l16 -210l-4 -34q0 -14 8 -38t12 -38t8 -19t12 -7t13 -6t5 -8t4 -10t20 -14t33 -8t36 8t33 17t26 18t26 11l-2 4q0 8 9 15t13 19l6 52q0 46 -25 46t-30 -16t-15 -32q-10 -6 -22 -6 q-34 0 -56 34v18q0 12 8 12q-4 4 -4 10v26q4 14 27 26t34 18t17 8z" />
<glyph unicode="u" horiz-adv-x="988" d="M842 130l-50 -12q-16 0 -31 -10t-23 -13t-13 -2t-9 1l-32 -10h-12l-6 2q-8 -4 -7 2t-2 12t-5 8t-2 12v22q14 2 22 9t24 7q0 12 11 13t15 9l-8 146l4 20q0 12 -7 24t-7 28l6 34q0 28 -5 55t-9 59t-5 68t-17 70h-4q-4 0 -6 -8t-6 -12q-16 -10 -18 -28q-8 -4 -14 -10 t-16 -10v-4q2 -10 -5 -14t-13 -8v-4q0 -22 -15 -33t-21 -21t-5 -15t-1 -10t-4 -7q-22 -34 -22 -88l-26 -6q0 -16 -10 -22t-6 -24q-12 -4 -18 -16t-18 -18v-6q0 -10 -6 -13t-6 -13t-12 -20t-15 -18t-7 -12l-24 -16q-16 -12 -25 -20t-38 -8t-47 13t-29 23t-27 20 q-10 16 -30 32t-25 25t-4 15t-5 14t-6 32v32q-8 48 -8 52l4 34l-8 38l4 4l4 178q0 116 11 199t11 102t-4 29q-26 4 -53 5t-51 13q-2 4 -2 14q0 34 74 30q18 -2 28 -2h18q8 0 18 2l8 8l36 -4l44 4q34 0 34 -30q0 -16 -22 -22q2 -2 2 -10t-12 -15t-12 -13l6 -100l-10 -60 l4 -24l-4 -34l8 -140l-4 -164q0 -94 30 -178q4 -14 8 -29t18 -23q38 16 56 41t27 42t18 30t16 18t15 13t14 20t16 22q4 20 6 41t8 31q36 60 36 76q28 12 44 44q28 64 52 80q4 30 17 62t13 49t24 49q-2 2 -2 15t8 25t8 35t5 32t9 23t4 24t2 18q0 16 32 36q38 -10 41 -37 t3 -57l4 -18l-8 -52l8 -48l-4 -20l8 -56l-4 -26q0 -34 7 -78t10 -53t3 -15t-4 -8q20 -156 20 -256l-4 -22l12 -64l-8 -28l8 -62q8 -8 22 -8l68 12q10 0 26 -9t16 -23t-18 -18t-25 -7t-10 -6t-7 -3l-24 4z" />
<glyph unicode="v" horiz-adv-x="914" d="M88 1028l-52 -12q-14 0 -20 2q-10 14 -10 29t7 23t17 11t21 5t17 6h12q16 0 28 12h8q8 0 27 8t39 8t32 -8q-6 -42 -6 -59t7 -29t13 -25t6 -21t3 -13t10 -14t7 -17t4 -16t5 -5t1 -9q0 -16 8 -32l4 -28q4 -16 16 -34t16 -26t3 -14t2 -14t7 -20t8 -23t7 -28t10 -28t14 -29 t13 -44t24 -50q0 -22 7 -44t11 -44l4 -30q18 -38 24 -40q4 -12 5 -33t23 -21q4 0 4 4v8q10 0 13 14t8 26t18 23t21 24t10 26t16 19v6q0 8 24 68q26 64 34 72q14 8 12 16t6 17t9 34t6 40t13 27q12 22 17 57t17 49t6 30q8 2 10 10t16 21t18 44t16 53q0 12 -10 15t-15 8t-9 5 l-34 -10h-6q-18 28 -18 46t6 30q28 4 62 10t62 6l40 -12l16 4q4 0 4 -2t4 -2t4 2t4 2l22 -4h90q2 -14 10 -18t8 -18t-12 -29t-28 -15l-12 4q-6 0 -15 -6t-25 -6l-70 6h-6q-16 -16 -14 -37t-3 -32t-3 -14t-9 -10t-14 -12t-2 -6t1 -5v-2l-8 -4q-4 -12 -4 -20v-20 q-14 -18 -22 -41t-24 -39q0 -12 -12 -42q4 -12 4 -26t-13 -28t-9 -40q-16 -14 -20 -34t-11 -33t-16 -23t-13 -21t-4 -22t-4 -21l-10 -10q-4 -10 -4 -20v-22q-28 -20 -28 -34t-5 -25t-18 -19t-13 -24q-14 -14 -13 -21t-2 -12t-11 -21q-6 -22 -8 -41t-7 -36t-8 -24t-3 -19 l-2 -2l-6 -4q-6 -10 -7 -22t-9 -22q-18 -8 -39 -6t-39 -2q-8 12 -20 22v10q0 34 -14 63t-18 63q-4 12 -10 14t-20 50t-52 144t-32 106v8q0 4 -8 8q-2 8 -1 14t-3 14q-20 16 -38 95t-24 91t-17 50t-33 64q2 4 2 12t-10 48q-12 32 -18 44z" />
<glyph unicode="w" horiz-adv-x="1328" d="M1102 978q-26 20 -50 20t-31 18t-17 34q2 10 8 16t10 16q18 4 36 4t36 4q4 -4 12 -5t10 -11l4 2q4 0 4 -4l90 -14l12 4l26 -8q22 0 42 7t44 13q8 -2 19 -15t11 -21v-4q-12 -22 -33 -35t-37 -31h-6l-24 -6q-8 0 -10 6q-22 -16 -52 -16q-6 0 -9 -11t-7 -15t-3 -6t1 -5 t-7 -15l-14 -24t-7 -40t-5 -30t-5 -6v-28q0 -12 -2 -13t-7 -10t-5 -27t-42 -68v-10q0 -18 -12 -26v-10q0 -26 -12 -28q4 -6 4 -24t-14 -36t-14 -28l4 -18q-12 -6 -16 -17t-12 -21q4 -8 4 -16t-4 -17t-7 -20t-2 -22t-3 -20t-13 -16t-14 -19t-6 -28t-6 -28t-7 -14t-2 -16 l4 -50q0 -12 -8 -13t-14 -7l-2 -4l6 -22v-2q-8 -6 -12 -15t-12 -17q-2 -8 -1 -15t-3 -15l-8 -4q-12 -30 -32 -30q-14 0 -42 22q-8 24 -25 47t-23 51t-13 46t-7 27t-10 15v4q0 10 -8 31t-16 25v12q0 10 -5 19t-3 21q-4 10 -10 16t-12 20t-7 29t-15 29v4q0 4 4 12l-30 76v14 l-8 4q-4 12 -6 29t-4 22t0 5t2 4t-12 30t-11 38t-2 23t-7 23t-8 23t-6 25t-17 14t-15 -14l2 -20q-6 -8 -7 -21t-13 -19v-10q0 -18 -11 -32t-13 -28q-6 0 -7 -8t-4 -13t-6 -9t-6 -14t-3 -24t-5 -33t-15 -34t-8 -39q-10 -2 -11 -9t-9 -11v-8q2 -10 -4 -20t-6 -20v-12l-22 -74 l8 -10v-4q-4 -18 -5 -47t-9 -41q10 -8 10 -30t-10 -46l-52 -26q-16 0 -21 10t-19 12v26q-22 48 -22 126q0 2 4 6q-2 10 -8 16q-10 14 -8 32q2 22 -10 46q-2 16 -2 26t-3 13t-8 17t-8 35t-9 41l-8 8v8q0 4 -3 9t-6 13t-1 21t-2 20t-3 11t1 8t-8 16q-2 12 0 26t-10 24t-16 20 l-16 64v8q4 0 4 2l-4 12q0 4 4 8q-4 4 -7 19t-7 31t-6 32q-6 28 -12 34t-4 10t2 10t-6 12q-12 14 -8 38t-7 41t-15 29h-8l-80 -8h-6q-16 26 -16 44q20 14 26 16l4 -4l8 4l22 -4q42 0 58 20q36 4 77 7t69 29q26 -8 44 -26q-4 -12 -4 -17t4 -13q-4 -4 -6 -4l-16 4h-4 q-22 -28 -37 -28t-23 4q-10 -12 -10 -22t5 -27t11 -39t12 -43t8 -33q10 -8 11 -27t13 -37l-2 -14q0 -8 5 -13t11 -20t2 -31t16 -38q4 -38 21 -78t17 -60l8 -44q0 -20 9 -38t11 -36q14 0 23 5t21 9q0 46 13 74t21 32v8q0 12 5 17t3 23q4 4 10 8t6 8l10 32q10 20 20 38t14 40 l-2 22q0 10 5 20t9 27t3 41t3 48l16 46q14 18 13 33t5 25l6 4q6 12 11 18t19 6t22 -10t15 -23t11 -27t10 -24l-2 -10q0 -8 5 -16t9 -20t6 -31t8 -36t7 -37t6 -40t20 -49t15 -51v-4l8 -2q4 -16 5 -33t15 -27q-2 -2 -2 -6l4 -26q6 -12 16 -22v-22q6 -16 13 -23t7 -25 q10 -18 14 -30t10 -23t5 -13t-1 -9t8 -19t8 -34q16 -24 21 -53t21 -53h10q6 0 8 -4q26 22 38 106q10 4 12 17t6 23l8 8q4 10 1 22t13 32t16 39t5 22t5 10t8 21t4 30q6 14 12 22t4 24q6 2 14 21t26 61t18 58t10 18q-2 4 -2 22t10 37t10 31t-4 22l8 38q0 10 -7 17t-5 17 q-2 4 -10 4z" />
<glyph unicode="x" horiz-adv-x="944" d="M966 24q0 30 -74 30q-18 0 -30 6q-14 24 -12 36v4q8 10 24 12t20 20h6q16 -2 40 16l28 -12l4 -10q26 -12 31 -29t11 -33l8 -26q4 -12 4 -20l-30 -100q0 -4 -4 -3t-7 0t-5 -1q-2 -2 -1 -5t-3 -6t-14 -4t-18 -3l-4 -8q-8 -4 -16 -5t-15 -3t-13 -8t-14 -10q-16 0 -33 4 t-35 0q-16 16 -35 24t-35 20l-4 8q-6 2 -43 43t-47 55q-8 8 -24 12q-14 20 -26 39t-30 35l2 6q0 16 -18 29t-18 28t-4 24t-14 10t-14 5q-20 68 -62 84q-2 4 -3 13t-11 11q-34 -8 -38 -52q-10 -4 -15 -13t-15 -13v-4q0 -8 -9 -15t-12 -13t-2 -13t-2 -11t-5 -4t-5 -5t-5 -13 t-12 -8q0 -22 -12 -31t-21 -24t-9 -20t-22 -23v-10q2 -6 -4 -24q-14 -14 -28 -40t-13 -34t15 -8l34 4h8q4 -6 12 -13t8 -13t-10 -21t-15 -13t-9 2t-8 -9t-10 -9q-80 0 -94 14q-8 -8 -68 -17t-74 -15q-20 14 -20 30t8 32h8q16 0 28 12t30 12l36 -8h4q24 4 33 28t26 49t31 69 q4 4 9 8t9 8l4 12l8 6q6 10 9 23t9 23q4 2 7 2t9 16l16 16q8 36 29 61t31 41q8 16 17 28t17 28q14 18 32 74q-10 22 -24 43t-21 36t-13 21q-18 14 -14 22q0 10 -6 15t-9 9t-1 10q4 14 -8 14q-8 0 -10 13t-6 21q-12 8 -14 12q-10 42 -66 130q-4 4 -8 6t-8 6q-12 40 -31 74 t-35 72q-14 4 -26 8t-26 4l-42 -12h-6q-16 16 -16 50q12 14 50 22l58 12q20 4 30 14h28q18 14 78 26q8 -8 16 -13t12 -17q-4 -12 -13 -17t-7 -23q-12 -2 -17 -11t-13 -17q4 -12 10 -22l12 -24l8 -6q6 -26 23 -49t29 -31q10 -20 17 -39t16 -35t19 -28t19 -25t15 -27t20 -24 q2 -16 9 -26t9 -24q16 -4 19 -19t19 -19q10 4 25 29t29 35q0 6 8 27t12 25t7 2t19 18t16 35t4 23q16 36 38 44q22 64 60 98q12 46 52 78q2 20 10 32t18 28q-2 10 -6 15t-2 15q-6 -2 -18 -2t-27 7t-31 13l-4 32v10q18 20 44 20t44 -12q14 -4 28 -2t28 -2l10 -8l14 4 q10 0 18 -3t30 -7t52 -16t30 -54q0 -10 -9 -14t-13 -16l-82 20q-10 -2 -14 -9t-9 -7t-13 4q-8 -4 -10 -11t-12 -9q2 -2 2 -13t-19 -32t-21 -41q-6 -8 -9 -6t-9 -4v-2q0 -16 -9 -25t-11 -25q-28 -16 -38 -42t-24 -38q-2 -4 -1 -6t1 -6t-7 -9t-11 -13t-7 -21t-7 -23 q-8 -4 -12 -4l2 -6q0 -12 -9 -18t-9 -24q-16 -6 -21 -21t-21 -21q0 -10 -11 -32t-18 -30t-13 -6q-2 -14 -13 -23t-11 -16t2 -10t4 -7l14 -42q2 -4 5 -4t6 -4t5 -9t6 -11t10 -12t10 -11t4 -11t18 -24q6 -10 9 -20t11 -19t16 -17t15 -19t11 -25t11 -28t14 -21t19 -31t36 -48 t28 -40q16 -6 29 -26t27 -26q2 -4 1 -6t3 -6l6 -2v-8h8q38 -54 76 -54q18 0 31 21t21 32t12 14t4 17z" />
<glyph unicode="y" horiz-adv-x="902" d="M300 840q-16 -48 -44 -64q2 -22 18 -40t23 -32t9 -20t11 -22t23 -34t25 -36t21 -34l16 -22q8 -10 14 -22t14 -24l6 -4q12 -24 25 -46t23 -44l8 -4q8 -24 20 -44l8 -4q12 -30 28 -30t24 30q14 66 22 72q4 8 4 15t4 15l12 22l10 30q2 6 5 11t6 13t3 21t6 29t14 40t19 46 t20 43t16 35t10 18l6 8t2 9t2 11t11 11t15 21t14 44t26 42t39 14t28 -10t16 -14v-6q0 -38 -20 -44q-14 -52 -29 -85t-21 -35q-12 -50 -44 -90q-4 -10 -4 -22q0 -26 -18 -48t-18 -40v-24q0 -20 -18 -46q0 -20 -6 -38q-30 -78 -28 -110q-10 -4 -22 -44t-12 -48l2 -36 q0 -20 -10 -27t-15 -15t-9 -16t-12 -12q4 -4 4 -19t-41 -97t-45 -88v-32q-6 -8 -11 -16t-13 -16t-10 -18t-16 -8q-6 -26 -18 -49t-15 -38t-9 -17t-10 -7t-5 -10t-5 -3h-6v-2l4 -18v-6q-28 -22 -38 -68q-16 -8 -20 -18t-14 -20q-10 -16 -24 -28t-22 -32q-10 -2 -18 -3t-18 -5 q-12 -16 -30 -23t-30 -29q-18 -4 -43 -17t-47 -17q-6 -4 -11 -8t-17 -9t-52 -5t-64 6q-18 -6 -40 -6q-56 0 -56 26q0 6 -8 7t-14 9v8h-8q-14 12 -16 14q0 12 -6 15t-2 15q-22 10 -30 52t-8 50l8 26l-4 22q0 10 10 32t12 36q24 20 28 40q16 6 25 19t19 25q22 6 45 13t55 7 t54 -19t34 -32t28 -27q-4 -32 -4 -52q-10 -4 -18 -10t-22 -6t-19 12t-21 16l-14 36q-14 2 -26 6t-32 4t-30 -18t-26 -32l-4 -8q-6 -4 -15 -8t-11 -12q4 -8 4 -20t-9 -26t-9 -30t9 -33t13 -33q18 -12 29 -28t27 -26q16 -4 30 -1t30 3l24 -8l2 6h28q24 0 61 11t55 21l18 14 q14 10 29 19t26 20t20 24t23 21q12 24 30 54q70 114 80 174q14 10 32 53t28 49q6 32 18 42q2 26 15 48t17 43t10 39q18 24 18 49t-8 37t-4 28q-6 2 -10 7t-12 9q-8 20 -19 33t-21 28t-13 30t-23 19l2 4q0 8 -4 11t-2 13q-2 8 -14 8q0 12 -8 21t-12 16t-3 9t-3 6l-8 4 q-4 4 -4 9t-6 16t-17 28t-19 37q-16 18 -30 34t-22 40q-20 18 -32 43t-30 45v4q0 10 -10 29t-17 25t-12 13t-7 15t-8 14l-64 -4q-44 0 -44 14l4 14q0 4 -4 4l-8 14q0 6 4 6q2 16 27 17t45 8t32 3q10 4 20 12t22 8l34 -4l32 8l28 -4l14 4q20 0 38 -24z" />
<glyph unicode="z" horiz-adv-x="800" d="M286 908l-48 -18q-10 0 -18 4q-44 -28 -60 -46q-4 -12 -2 -26t2 -28t-13 -38t-27 -24q-24 0 -37 27t-13 47l8 108l-2 54q0 16 9 35t28 19t23 -15t20 -27q30 -2 59 -1t59 1l24 -2l24 2l20 -2l20 8q18 6 38 5t44 4t54 8t60 7l22 4l22 -4q4 0 9 3t16 6t28 2t37 1l16 8 q10 0 20 -12t10 -23t-14 -27t-24 -22q-2 -14 -12 -23t-14 -20t-18 -17q-4 -16 -16 -28t-18 -25t-5 -22t-2 -17t-9 -19t-14 -23t-15 -23t-11 -15v-6l-16 -52q-4 -4 -8 -7t-10 -13t-8 -26t-8 -28l-10 -4q-2 -6 -1 -12t1 -10v-8q-16 -12 -21 -32t-15 -36q14 -8 34 -8l54 4 q52 0 52 -36q0 -22 -12 -27t-26 -17q-24 4 -80 4t-64 -20q-4 -8 -6 -16q-20 -8 -29 -28t-13 -30t-14 -14q-2 -28 -16 -43t-22 -31t-10 -24t-12 -6q-2 -28 -15 -48t-17 -48q-24 -16 -39 -51t-15 -43q6 -2 46 -2t65 -8t51 -8t54 4l48 -2l96 10l70 -10q24 0 26 19t7 28t11 17 t13 20t12 22t27 10l8 -2q12 -18 12 -38t-12 -32q-2 -42 -1 -84t-3 -86q4 0 4 -4l-4 -8l8 -28q0 -10 -5 -16t-3 -18q-40 -20 -66 -20q-8 16 -14 23t-4 25q-8 16 -11 40t-19 36q-42 0 -56 14l-120 -16l-40 2q-22 0 -36 -8q-18 2 -34 16q-6 -6 -35 -6t-61 16q-20 -4 -47 -4 t-59 8q-16 -10 -34 -9t-38 -3q-4 12 -14 22t-10 18v16t9 12t15 8l4 8q8 4 15 5t11 7q0 12 7 22t12 23t17 33t19 38t13 32t12 24t10 18t4 17t3 15t8 10t8 7t2 6t1 5l8 4q6 10 9 20t11 25t28 44t20 47t-12 24t-49 14t-49 18q-2 6 -2 14l6 32q14 8 43 8t59 -26q12 6 28 4t26 4 q12 8 26 38q12 30 22 40q2 6 1 10t-1 10t20 36l44 84t40 70t25 47t17 35l26 42q6 12 14 22t8 24t-18 14q-8 0 -15 -5t-30 -9t-60 -3t-64 -6t-43 -14t-34 -7z" />
<glyph unicode="{" horiz-adv-x="656" d="M162 714l48 14q4 0 10 12l12 6q4 4 4 8t4 9t8 8t10 11q26 72 24 174t-2 132t2 62t6 72t14 81t11 52t4 18t6 10t5 12t2 22t8 32t22 45t22 43t11 26t13 19h8v6q10 12 26 21t28 19q16 2 30 2h28q74 0 108 -14q2 -10 7 -18t5 -18v-8q-6 -4 -10 -7t-10 -5v2q-2 2 -5 2t-9 -12 q-12 12 -50 12l-46 -4l-14 4h-2q-12 -2 -26 -18t-17 -33t-1 -42t-10 -43v-4l8 -30l-16 -78q4 -2 -5 -31t-9 -113l6 -68l-10 -34l4 -40q0 -12 -2 -24t2 -22q-2 -12 -8 -20t-10 -18l2 -14q0 -22 -12 -40t-10 -44q-6 -12 -13 -19t-7 -25q-12 -2 -15 -13t-7 -21q-40 -36 -52 -56 q-10 0 -13 -5t-13 -3q-18 -18 -38 -22q0 -20 20 -32q12 -24 29 -44t23 -32q8 -18 20 -85t12 -73l-2 -46l10 -56l-6 -108l-4 -66l8 -52l-4 -28l4 -28q2 -40 10 -65t39 -46t57 -21q36 0 71 20t49 20q16 0 20 -6t4 -7t6 -13q0 -12 -13 -22t-12 -17t-5 -7l-10 4q-6 0 -6 -6 q-10 -10 -15 -10t-19 -6l-36 -14q-20 -8 -34 -8t-17 5t-11 3h-4l-26 -8q-22 8 -43 18t-43 20q-14 10 -25 24t-17 20t-12 16t-9 30t-17 30q2 4 2 10l-12 66l4 18l-8 42l8 44l-8 40l4 56v14l-4 2l4 22l-4 2l4 14l-4 32v30q0 92 -16 108q2 4 2 14l-14 64q-10 8 -13 17t-7 16 t-11 11t-5 14q-32 10 -50 28l-22 -4h-6q-12 10 -30 10q-36 0 -36 40q0 14 4 20q22 16 40 16t20 5t6 5h2q14 -14 50 -22t42 -8z" />
<glyph unicode="|" horiz-adv-x="430" d="M276 270l4 -32q0 -32 -16 -58q8 -20 8 -39t-26 -35t-46 -20q-12 4 -16 15t-16 19l12 100v32l-8 108l10 76l-4 22q0 4 2 4t2 4l-2 20l2 44l-14 134q0 18 4 28l-8 40l4 72l-4 38l8 46q0 4 -4 12t-4 28l-8 46l4 40l-4 38l4 34l-4 22l4 20l-8 48l4 46l-8 60q0 10 4 22 q24 12 39 12t23 -18t18 -24q2 -16 3 -37t11 -35q-2 -4 -2 -14l6 -42l-8 -46l4 -40q4 -28 5 -59t7 -55t5 -46t1 -44q-6 -4 -6 -8l6 -6q0 -6 -4 -12q-8 -12 -8 -32v-18q0 -24 5 -44t7 -40t1 -40t-1 -40l4 -22l4 -68l2 -46l-2 -112l4 -18q0 -8 -8 -12q10 -10 10 -26z" />
<glyph unicode="}" horiz-adv-x="618" d="M556 718l42 10q6 -12 13 -19t9 -17q-12 -4 -13 -15t-17 -11t-26 -18l-8 2q-10 0 -17 -6t-19 -2q-6 -6 -12 -10t-8 -12h-16q-22 0 -30 -18t-15 -47t-17 -41l2 -10l-10 -56l2 -62q0 -32 -10 -48q16 -28 10 -62t2 -66l4 -8q0 -2 -2 -2t-2 -4l6 -16l-2 -38l2 -38 q0 -12 -5 -24t-1 -24q-10 -6 -10 -16q-4 -32 -62 -120q-8 -4 -14 -8t-13 -5t-7 -4t-4 -6t-9 -1t-7 -8q-8 -20 -13 -17t-10 -1t-4 -7t-1 -7q-4 -2 -12 -2q-30 -16 -52 -16t-24 -6t-16 -6t-44 12q-4 10 -7 17t-3 23t9 18t19 12l4 2q8 0 10 -6t27 -6t56 25t50 53t19 42l-4 70 l-12 104l4 24v40l-4 58l8 84q0 26 10 50t10 39t7 23t5 24q10 2 12 15t6 22t17 28t13 32t-24 33t-24 24q0 14 -12 14q-4 0 -8 4t-4 8t-3 9t-7 7t-7 6t-1 12t-2 17t-8 11q-6 4 -6 12v26q0 18 -5 28t-5 20l4 46v42l2 176q0 18 6 38q-10 14 -10 38t6 44q-6 8 -6 35t-11 58 t-14 59t-11 42t-11 18t-10 17t-20 40t-43 27t-56 -20q-16 4 -40 1t-42 7q-4 12 -4 27t14 20t16 15q20 -4 30 -4l68 12l22 -4l52 2q22 0 44 -22l36 -36q6 -8 14 -23t19 -23t15 -15t4 -13t9 -17t24 -71t19 -66q0 -30 6 -40q10 -22 10 -76v-58l-8 -116l4 -24l-8 -20l4 -42 l-4 -42l8 -38l-4 -16v-36q0 -32 18 -67t32 -39l16 -2q18 0 28 9t34 9h4l10 8q8 0 8 -4q6 0 8 4q4 0 4 -2t4 -2z" />
<glyph unicode="~" horiz-adv-x="1190" d="M180 486l-56 -30h-2q-2 0 -7 9t-3 29t-2 36q12 4 14 21t18 13q2 10 14 25t18 25l8 2q0 4 -1 6t0 4t17 14t36 25t36 24t18 11h10l70 10q62 0 113 -14t63 -23t28 -13t31 -5t39 -18t75 -43t87 -26t52 7t35 18t35 15t32 13t31 22t33 25q-4 4 -4 11t8 19q6 4 14 5t14 7 q26 -16 34 -40q-4 -16 -14 -22t-18 -18v-6q2 -14 -7 -18t-11 -16h-4q-10 0 -14 -8t-20 -16t-20 -18h-4q-26 0 -50 -4q-18 -8 -31 -20t-27 -22q-16 -4 -33 -5t-33 -7q-4 4 -18 4l-38 -4q-8 0 -14 4t-16 0q-14 10 -16 22q-8 -4 -18 -4t-21 11t-22 15t-20 4t-20 3t-23 9t-25 11 t-28 8t-32 11t-26 14t-19 12t-42 6t-38 14q-8 -2 -20 -2l-48 4q-18 0 -22 -8t-10 -24q-28 -4 -40 -26q-20 -36 -33 -51t-13 -23v-14z" />
<glyph unicode="&#xa2;" horiz-adv-x="902" d="M554 276l-38 -6q-12 0 -18 2q-10 14 -10 45t10 47q-8 28 -6 54t2 56v8q-16 4 -34 4q-82 0 -102 28q-4 -2 -14 -2t-29 10t-25 22h-4q-10 0 -26 8q-6 10 -9 12t-1 12q-32 28 -42 46q0 8 -7 8t-11 4q-6 32 -46 72v18q-34 52 -34 162q0 30 12 47t12 37t8 32q26 28 38 58 t16 34t8 9t3 8t2 8t11 9t12 9t7 13t9 13t15 9t21 14t22 25t23 22t19 7t6 6q28 2 57 5t57 5q10 6 10 18t8 18q-8 36 -8 77t8 73q12 6 22 6t24 2q34 -30 34 -122q0 -4 -4 -4q0 -6 3 -10t6 -14t2 -26t1 -32q10 -12 40 -24t44 -20t24 -16t26 -8q10 -20 29 -31t29 -22t10 -16 t3 -9t5 -6q10 -6 10 -26v-24q-10 -10 -26 -10t-34 18q-4 6 -5 10t-8 15t-23 22t-26 27q-50 8 -62 34q-2 8 -8 10h-6l-56 8q-12 0 -20 -8q-16 4 -26 12t-24 8l-30 -4h-40q-34 0 -40 -8t-9 -16t-11 -16q-10 -4 -16 -13t-18 -11q-2 -18 -16 -42v-8h-6q-6 -8 -13 -32t-25 -38 l2 -6q0 -20 -12 -32v-18l-4 -68q0 -22 4 -27t6 -14t1 -15t-1 -14t31 -75t43 -85t31 -33t35 -31q28 -4 42 -18q20 -4 41 -4t37 -10q30 12 38 12t14 -8q26 14 54 19t40 13q28 14 61 38t33 30v10l8 4q4 10 6 20t6 20q14 4 30 4t29 -17t15 -37q-6 -6 -18 -20q-46 -58 -76 -68 l-8 2q-6 0 -15 -12t-23 -10l-32 -32h-28q-10 0 -9 -8t-15 -8l-26 6q-8 0 -10 -14q0 -42 8 -74l-6 -18l4 -30l-4 -30q4 -4 4 -17t-11 -22t-13 -25h-4z" />
<glyph unicode="&#xa3;" horiz-adv-x="1074" d="M528 1370q22 0 56 20q4 0 4 -2t6 -1t39 1t43 -16q2 2 12 2t20 -6t22 -8q4 -10 11 -15t9 -15h8q10 0 14 -7t8 -15h4q10 0 19 -5t21 -7q8 -18 20 -26v-6q0 -30 10 -43t20 -33l-2 -18q0 -22 24 -43t24 -29t-3 -12t-6 -11t-6 -19t-11 -24t-17 -23t-13 -25q-34 -24 -42 -42 q-22 -4 -28 -17t-24 -13t-28 16l4 8v12q0 28 8 42q10 4 15 10t15 10q10 16 23 27t19 19t6 13t4 5l-2 32q0 14 6 26q-12 22 -12 48q-10 10 -19 16t-12 18t-17 12q-2 10 -18 36q-12 0 -20 8t-16 11t-12 2t-12 5t-18 18t-25 12t-25 -6l-24 8q-16 0 -39 -9t-39 -3 q-4 -10 -20 -12t-25 -7t-11 -15t-18 -8q-2 -12 -13 -29t-11 -43q-24 -42 -24 -66l6 -24l-4 -18q0 -10 5 -24t7 -31t2 -41t4 -48q10 -28 12 -54l4 -8q-4 0 -4 -4t5 -11t7 -12t1 -10t-1 -13t22 -44q4 -12 2 -26t4 -24q12 -2 24 -2h22q60 0 119 10t119 18q4 -6 13 -13t9 -21 t-13 -22t-21 -18q-10 -4 -37 -4t-35 10q-16 -8 -34 -10t-32 -12q-24 8 -29 8t-6 -6t-29 -6t-35 -7t-8 -7t-1 -2l10 -28l-8 -48q0 -12 7 -26t7 -34l-2 -50l4 -24q0 -20 -8 -38t-8 -40q-20 -16 -19 -26t-5 -28q-10 -10 -16 -36t-12 -36t-20 -14v-2q2 -12 -3 -18t-5 -14v-2 q20 -18 39 -16t41 -4l8 -8l8 2q6 0 28 -17t37 -14t22 -1t10 -6t7 -4l22 -4q10 -4 16 -8q10 -6 36 -6l32 -8q10 0 30 4l44 -2q34 0 46 28h6q8 0 20 6q14 14 43 36t29 40t-9 21t-11 12t-2 16t-6 15q10 10 15 21t17 11t15 -13t11 -24t17 -23t9 -36v-4q0 -42 -16 -48 q-2 -4 -1 -8t1 -8t-4 -4q-4 -12 -12 -17t-12 -15q-40 -10 -50 -28h-4l-12 4q-12 0 -10 -10t-8 -10q-16 -16 -59 -24t-57 -16q-10 4 -21 3t-22 1t-17 6t-20 7t-36 3t-38 18q-92 0 -114 30h-6q-22 0 -41 10t-31 10q-36 0 -66 -6t-39 -12t-21 -17t-25 -16t-28 -4t-30 -3t-24 -9 t-32 -5t-55 20t-32 48t6 52q20 6 44 29t58 23l10 -6q10 -2 21 0t21 2l18 -2l34 4l36 -10q18 0 27 18t21 28v4l-2 14q0 4 13 55t13 79t-4 43t-8 28t-3 20t-1 15q-10 16 -9 19t1 7t-3 11t-5 14t-1 13t1 14t-6 23t-9 33t-16 25t-31 4t-32 11q-18 -6 -34 -6l-48 6l-44 -2 q-24 0 -40 10l-8 38q14 14 46 14l66 -4h114q2 2 2 6l-4 24q0 8 6 12q-22 22 -22 102l-8 22l4 22l-8 54q0 30 6 59t10 61q6 14 6 28t3 26t8 18t8 12t3 10q-4 6 24 46l8 4v8l8 4q2 4 13 18t33 44t28 33t13 3t14 4t10 9t9 8t14 2t16 5z" />
<glyph unicode="&#xa5;" horiz-adv-x="1120" d="M656 628q6 -2 41 -2t65 10l22 -2q12 0 21 6t15 6l22 -4l18 8q4 0 9 -17t5 -29l-2 -18q-14 -10 -33 -10t-35 6q-12 -2 -26 -9t-26 -7l-20 4l-36 -4q-12 0 -20 8q-40 -14 -60 -12q-20 -12 -20 -66l2 -58q0 -12 13 -21t23 -9l28 4q6 0 18 -8q14 14 128 14q40 0 40 -42v-4 q-10 -12 -52 -38q-12 2 -38 18q-6 -2 -24 -2t-36 6q-38 -14 -58 -14t-40 4l-12 -92l4 -52l-6 -44l2 -28l-2 -26l6 -42q0 -6 -4 -18q-12 -12 -22 -10v-6q0 -18 -12 -16t-16 -8q-10 -10 -23 -10t-35 16q-2 10 -2 26l6 80l-4 56l8 86l-8 72q-20 6 -40 6l-74 -2q-10 0 -13 -6 t-11 -6q-4 4 -22 4h-30q-8 8 -8 27t4 27q48 16 98 16t100 4q10 26 6 64t4 66q-4 12 -19 12t-21 10h-26q-28 0 -48 10q-10 0 -17 -7t-14 -7t-10 4t-9 6q-16 -10 -46 -10t-52 10q-4 12 -4 18t7 21t19 15t22 3t18 6t13 3t20 -5t42 -5t58 3t63 -1q8 10 8 28t-8 29t-17 23t-15 28 t-18 20q0 10 -7 14t-5 16q-8 8 -17 12t-15 15t-7 24t-7 21t-10 11t-8 7q-6 20 -23 39t-27 37l-32 58q-2 6 -7 7t-9 5q-2 18 -10 30t-12 30q-8 4 -11 12t-13 8q0 10 -6 17t-12 17l-8 4l2 8q-32 48 -54 70l-8 28q-2 6 -6 6q-16 0 -11 9t-6 14t-15 10t-5 12t-5 11 q-10 18 -17 31t-7 35t12 40h14q60 0 72 -50q26 -10 34 -36q8 -4 25 -28t17 -34q16 -10 22 -25t12 -25t9 -11t7 -5q8 -20 18 -27t13 -13t2 -8t-1 -6t2 -3t6 -3t4 -10t4 -12t10 -9t12 -7q0 -30 24 -59t31 -47t17 -34q12 -10 21 -22t27 -20q10 -38 29 -60t43 -52q14 4 19 16 t11 22l38 70l4 12l16 16q2 6 10 18t16 28t14 30t10 20t4 13t9 17t13 22q14 28 38 40v8q12 16 22 33t28 27q4 22 22 40t26 42l20 18q10 12 17 25t19 23l46 50q22 28 43 48t59 20q12 -12 12 -32q0 -48 -42 -66v-2q0 -10 -6 -14t-6 -14q-4 -6 -10 -6t-10 -4q-16 -30 -38 -56 t-40 -54v-2q0 -8 -6 -7t-12 -3v-18q-18 -4 -30 -30t-28 -30q0 -10 -5 -14t-1 -16q-22 -8 -28 -28t-20 -32l-12 -44t-16 -36t-18 -21t-15 -14t-12 -24t-10 -27t-13 -16t-13 -13t-9 -13t-12 -10q0 -16 -8 -31t-8 -31q-12 -8 -19 -21t-17 -23q-4 -20 -4 -44t16 -34l24 -2 q10 0 20 6z" />
<glyph unicode="&#xa8;" horiz-adv-x="540" d="M350 1448q-20 24 -20 42t4 30v2q0 6 6 10q14 6 14 14t4 12q6 16 31 29t44 13t24 -9t14 -17t14 -6t10 -14t5 -19t-7 -16t-11 -18t-15 -11t-20 -12t-16 -16t-17 -14h-64zM196 1562l2 -42q0 -16 -10 -23t-14 -12t-9 -8t-7 -9h-6q-16 2 -37 -13t-31 -15q-22 0 -32 32 q-12 30 -12 48t8 30q28 6 43 26t39 30q22 -6 36 -19t30 -25z" />
<glyph unicode="&#xa9;" horiz-adv-x="1284" d="M738 396q-10 0 -10 -10t-30 -8t-44 -2t-25 -10t-25 -6t-34 26h-34q-12 6 -30 8t-26 14h-14q-12 0 -16 4q-16 2 -23 12t-31 8q-38 34 -78 52q-4 8 -12 12t-10 14q-18 4 -29 18t-29 20q-4 30 -20 48t-28 42q-12 8 -16 21t-18 17q-6 40 -25 73t-19 77l4 54l-4 32q0 10 6 26 t10 28l4 32q4 8 9 30t23 78t36 79t32 43q22 44 54 56q0 22 56 72q24 24 43 21t47 21q34 2 56 13t26 11l106 14q8 0 18 -10l22 4q4 0 16 -4q4 4 6 4q0 -4 4 -4l2 4l18 -4l24 2q12 0 32 -9t22 -21q30 -8 59 -16t61 -12q4 -12 13 -22t17 -20q32 0 54 -22t33 -35t27 -21 q4 -18 14 -28t22 -24v-2q0 -8 4 -12t0 -12l24 -22v-6l-4 -14q0 -16 12 -24t12 -28l-2 -38q0 -14 6 -24t20 -36t14 -63t-10 -69t-10 -54t-10 -30t-14 -18l2 -4l-6 -40q-30 -38 -28 -56t-1 -22t-5 -6q-12 -6 -10 -13t-5 -12t-10 -9t-2 -7t-1 -7q-16 -4 -17 -14t-11 -20 q-10 -2 -16 -9t-22 -5q-2 -22 -18 -42q-10 -4 -16 -10t-18 -4q-12 -10 -22 -23t-26 -20t-33 -6t-35 -6t-26 -18t-28 -11t-34 14zM478 488l32 -4q10 -6 21 -20t23 -14h18q6 0 11 -3t12 -6t17 -2t18 -3q18 10 38 8t34 -2t32 5t29 4t27 4t32 15t42 14q10 14 27 22t33 16 q8 16 22 28t24 28q32 16 41 30t17 40t20 34q0 36 24 56l-2 4q0 16 9 27t5 31q10 4 12 13t8 17q2 10 0 19t-2 22t6 20t8 17q-10 4 -10 15t-6 15l8 20q-14 14 -20 28q2 4 2 18t-10 31t-10 29t6 20q-6 10 -13 18t-7 16t4 12q-28 24 -42 68q-16 10 -33 20t-23 32q-16 4 -24 9 t-26 3q-12 10 -24 17t-16 21h-8q-26 0 -80 16q-6 4 -4 16t-2 16q-12 2 -24 6t-24 4t-16 -2l-28 12l-120 -6l-48 2q-24 -24 -56 -16q-14 -16 -33 -19t-34 -10t-22 -14t-17 -9q-4 -12 -11 -20t-16 -20t-18 -27t-25 -23v-6q0 -12 -7 -19t-9 -17q-18 -6 -24 -18q0 -28 -9 -52 t-9 -54q-18 -16 -18 -39t-3 -36t-6 -19t-3 -12l4 -26l-4 -30q0 -6 8 -18t6 -22t-2 -18v-6q18 -30 26 -61t19 -50t24 -30t13 -29q10 -6 29 -29t21 -28t20 -27t32 -22t27 -13t25 -21t24 -18zM868 796q18 -18 18 -34t-12 -29t-12 -23t5 -12t5 -6v-6q-22 -26 -50 -26 q-10 -4 -22 -16q-38 0 -66 -28h-8l-56 -8q-12 0 -20 6t-22 6l-28 -2q-26 0 -30 16h-34q-18 20 -42 38l-4 8q-4 2 -10 2t-10 4l-4 8q-8 4 -32 31t-27 32t-1 8t-10 13l-14 96q0 24 11 51t12 60t11 51l8 4q8 18 18 34t20 34q22 6 34 22t23 22t13 5t6 -1h2l8 8h16q4 0 4 4 q4 8 19 6t26 3t19 6t63 1t59 -38l6 2l18 -10q6 6 16 6l6 -2q14 -14 40 -18q6 -16 23 -25t17 -30t-16 -47v-4l2 -16l-2 -8q-26 -22 -56 -24q-14 14 -15 32t-3 34q-6 42 -52 48q-4 18 -22 24t-30 16q-10 -4 -18 -10t-18 -6l-28 4h-2l-48 -16q-18 0 -29 -9t-21 -7q-4 -4 -6 -10 t-16 -22t-14 -50l4 -2q0 -4 -2 -4t1 -17t3 -51q-2 -62 7 -73t8 -21t3 -20t13 -16t13 -13t3 -13t1 -10l8 -4q12 -26 49 -50t57 -24t26 2l12 -4l2 2l50 14q20 0 36 16q4 2 12 3t15 8t11 19q16 56 50 56z" />
<glyph unicode="&#xab;" horiz-adv-x="874" d="M200 232l-14 -6q-2 0 -4 2q-8 20 -26 28t-20 32q-22 6 -37 23t-35 27q-4 20 -4 36v26q28 18 60 49t52 48t24 21q18 2 28 17t19 24t17 13q34 20 56 60q32 12 48 44q20 10 34 10q24 0 24 -26q0 -10 -21 -33t-33 -27q-8 -24 -30 -40t-32 -38q-10 -2 -18 -7t-20 -9t-14 -15 t-20 -7q-20 -44 -60 -52q-8 -10 -14 -20t-16 -20q14 -20 49 -46t49 -39t28 -20l36 -18t28 -17t4 -9t2 -7t6 -4t2 -7t-5 -18t-12 -21l-14 -20t-11 -14l-4 4l-4 -4q-12 4 -20 14q-18 22 -27 21t-13 7t-9 13t-16 9t-9 16h-4zM452 352l-14 -2q-12 0 -20 20t-8 30v12q28 28 56 38 q4 6 11 17t11 15t7 3t7 1l2 8l12 4l4 8l14 4l4 8q4 4 8 4t9 4t11 11t14 13t15 10t17 10t17 14t19 12q16 20 35 37t31 39q14 0 25 8t22 8t20 -10t9 -20v-6q-2 -6 -25 -25t-31 -19q0 -12 -16 -16l-16 -30q-22 -6 -28 -26l-20 -6q-10 -8 -22 -16t-22 -20l-4 2q-22 0 -27 -11 t-7 -19t-8 -12h-10q-12 0 -16 -4q-10 -2 -11 -10t-3 -12q-16 -4 -20 -12q2 -6 38 -29t53 -31t29 -17t14 -8t6 -1v-8h8q2 -4 1 -7t1 -5l12 -4l4 -10q4 -2 6 -1t8 -4t14 -17t8 -22t-20 -10q-8 -12 -18 -25t-28 -13l-12 2v2l-8 24q-12 16 -31 27t-25 27q-2 -2 -4 -2t-20 12 t-22 18t-6 8l-10 -2q-8 0 -10 5t-6 7l-4 -2q-2 4 -14 13t-16 9z" />
<glyph unicode="&#xad;" d="M520 582l36 8q16 0 56 16q14 -8 24 -15t10 -25v-6q-10 -10 -19 -9t-19 -9h-6l-18 4l-12 -4l-6 4q-22 0 -39 -11t-26 -11t-35 4l-44 -12l-36 4l-44 -8q-12 0 -24 8q-8 -4 -17 -5t-13 -11q-4 0 -34 12q-28 -12 -114 -24q-6 6 -6 15t6 33q16 0 28 8t23 8t19 -6q18 24 158 24 q12 0 18 -6q8 0 15 5t17 4t18 -1z" />
<glyph unicode="&#xae;" horiz-adv-x="1304" d="M964 1288l28 -2q8 -16 23 -27t19 -33q16 -14 26 -31t22 -35q12 -4 18 -17t18 -19l-2 -4q0 -12 6 -14q12 -16 21 -36t27 -32l-2 -6q0 -18 8 -36t8 -29t-4 -23q14 -24 20 -60q-4 -12 -13 -23t-9 -25l2 -10q0 -10 -9 -16t-9 -16v-30q0 -10 -12 -20t-10 -32q-16 -2 -19 -16 t-10 -18t-7 -6l6 -12v-2l-32 -22v-22q-10 -10 -26 -20t-20 -28t-20 -20q0 -8 -3 -11t-1 -13q-24 -2 -30 -26q-30 -12 -38 -28q-22 -6 -38 -19t-32 -25l-22 2q-16 0 -21 -5t-9 -5t-20 8q-14 -8 -26 -26q-22 0 -44 -6t-44 -2l-26 -14q-18 6 -40 6q-94 0 -118 28q-2 -2 -10 -2 t-15 5t-19 10t-30 10t-28 23l-6 -2q-12 0 -18 7t-16 7q-6 22 -29 32t-43 18q-2 28 -15 39t-22 23t-19 33t-14 29q-46 52 -46 88v2q-2 4 -8 6t-11 22t-21 42v14q0 16 -8 32t-8 30l4 24q-6 32 -4 40t2 19t-6 23q4 20 9 25t5 31l2 6l10 12q2 10 1 18t1 18q14 14 13 18t3 16l8 4 q4 6 4 15t5 16t15 16t14 21q4 4 8 3t9 4t8 13t10 17t19 16t22 17l36 38q26 10 41 26t28 23t22 6t14 2t8 6t9 6t13 2t19 2t29 9t33 10l22 2q16 10 26 10l52 -10l70 8q20 0 82 -17t68 -21t13 -12t19 -15t33 -20t35 -21q4 -4 4 -18q4 2 12 2zM720 452l20 -4q16 0 28 9t23 9 t11 4t14 12t40 11t47 17t34 34t35 30q6 4 6 7t4 9l10 4q14 18 8 34q18 22 37 37t29 43q8 4 12 9t12 5q-2 6 -2 18t9 26t5 36q16 18 22 40t20 38v20q0 38 -22 74v34q-22 22 -16 42q-6 4 -14 8t-16 13t-12 18t-9 18t-10 12t-7 13q0 14 -12 12q-2 16 -14 20t-12 20 q-42 8 -56 56q-6 2 -8 9t-8 7t-12 3t-9 9t-11 10h-26v4q0 4 -6 4h-10q-12 16 -26 21t-30 13q-12 18 -39 18t-63 12q-4 -4 -8 -4l-42 6q-36 0 -82 -14q-14 8 -26 8t-25 -8t-29 -12h-8q-30 0 -48 -12t-38 -32h-20q0 -14 -9 -19t-19 -11q0 -20 -28 -42t-34 -22q-4 -12 -11 -17 t-11 -11t-3 -11t-3 -9h-8q-8 -8 -10 -16q4 -4 4 -11t-6 -14t-6 -24t-6 -31t-8 -27t-1 -26t1 -23l-2 -42q0 -18 8 -35t11 -31t3 -26t4 -23t10 -17t10 -15t6 -18t9 -26t21 -39t24 -46q22 -18 34 -43t28 -47q8 -2 13 -10t12 -12t20 -8t26 -16t38 -21t41 -25h4q16 4 30 -6 t27 -14t24 -2t21 2l32 -4zM944 846q38 -8 38 -32q0 -14 -14 -27t-22 -28t-18 -23q-22 -2 -45 -11t-49 -9t-35 9t-27 23q-24 0 -37 12t-35 14q0 12 -10 15t-10 17l-2 -2q-4 0 -5 5t-4 7t-11 0q-12 0 -20 8q-6 10 -22 10h-30q-22 -22 -22 -52l8 -50v-30l4 -30q0 -16 -14 -25 t-24 -19q-26 6 -50 4q-4 12 -12 18t-12 15t-2 18t2 19l-12 76q4 8 4 12l-12 62l4 54l-8 54l4 54q0 14 -14 84l-16 2q-22 0 -36 -12t-36 -14q-4 12 -4 25t14 21t33 13l38 10t29 15q24 -8 45 7t34 15t15 -4l12 4h20l158 12l34 -4q12 0 16 4q10 -12 22 -11t20 -5q66 -40 66 -84 v-28q0 -16 -2 -30q-16 -12 -24 -29t-18 -27q-4 -8 -5 -15t-11 -11h-6q-8 -6 -12 -13t-13 -11t-23 -4t-29 -9t-29 -9t-22 -8q2 -26 35 -44t43 -40q4 -2 10 -1t12 -3t12 -10t20 -13t45 -7t49 18q0 38 18 48zM558 1058l-6 -38q0 -20 1 -54t19 -50q76 0 166 44q26 12 44 28 q4 20 14 35t10 38t-15 34t-35 16t-44 7t-38 6q-22 -10 -54 -9t-56 -7q-8 -6 -8 -24z" />
<glyph unicode="&#xb4;" horiz-adv-x="464" d="M396 1646q28 -16 28 -32q0 -6 -4 -18l-8 -4q-6 -18 -13 -19t-16 -7t-15 -16t-16 -6q-4 -4 -4 -10t-4 -10q-18 -2 -25 -17t-27 -19q-8 -28 -30 -43t-34 -39q-34 -8 -75 -53t-59 -64t-36 -19t-18 16l6 58q0 4 7 8t9 8v8q6 6 15 9t15 8t18 17q26 26 50 46l16 18q4 4 8 6 q14 8 20 24q6 10 22 20t23 19t16 15t17 10q20 6 46 36q32 30 40 30z" />
<glyph unicode="&#xb8;" horiz-adv-x="590" d="M302 -108l32 6q12 0 72 -24l8 -8q4 -2 7 -1t7 1h2l4 -8q10 -4 19 -10t21 -10v-2q0 -6 4 -9t8 -7l4 -12l8 -4q10 -30 10 -59t-11 -42t-7 -27q-22 -10 -34 -27t-30 -29q-12 -12 -26 -17t-22 -21q-6 -2 -13 -3t-26 -10t-32 -8t-21 -5t-12 -6l-14 2l-26 -8q-14 0 -27 7t-29 7 l-12 -2q-10 0 -14 8q-6 18 -26 14q-2 16 -15 22t-17 18t-8 22t-4 21t6 23q6 2 12 5t16 3t17 -11t19 -15l-2 -8q0 -12 8 -19t8 -19q22 0 34 -9t30 -9l28 2q10 0 14 -2q88 48 142 108q-2 6 -2 19t6 23q-4 12 -11 22t-11 22q-22 4 -44 38q-8 -4 -10 -4t-30 8q-38 0 -106 -54 q-14 -10 -23 -10t-16 17t-7 27t4 34q8 34 15 34t13 17t16 17q4 26 46 85t53 69t20 18t22 8t17 -2q2 -10 7 -16t5 -19t-13 -26t-13 -29l-20 -16v-8l-8 -4v-10q0 -4 -4 -5t-8 -3q-22 -38 -28 -60q6 -10 18 -10z" />
<glyph unicode="&#xbb;" horiz-adv-x="854" d="M220 623q0 -9 12 -9q14 0 29 -24t31 -34q4 -6 9 -8t13 -9t21 -17t23 -22q16 0 25 -11t20 -16t18 -7t13 -10h26l20 -24q-4 -22 -22 -33t-42 -19q-6 -8 -14 -14t-12 -16h-8q-12 0 -34 -14t-26 -24h-6q-10 0 -13 -5t-11 -7q-28 -46 -64 -52q-4 -20 -18 -30t-24 -26 q-10 -4 -18 -4h-26q-14 0 -14 22t16 39t30 33q22 6 35 21t27 31h2q18 0 29 13t21 23q2 -2 5 -2t6 5t10 10t26 10t19 20t-15 17t-17 18q-10 0 -13 5t-13 3v2q0 6 -6 10t-6 8q-22 2 -32 15t-28 17l-22 26h-8v8q-8 6 -20 16t-22 14q-6 16 -22 26l-8 40q0 36 36 36q20 0 26 -14 q16 -28 26 -28t10 -9zM496 238l2 26q16 10 25 21t25 19q34 40 57 52t33 30l24 14q16 10 16 26t-9 17t-21 5q2 16 -9 20t-21 8q-12 28 -36 48t-34 50q-14 2 -32 12q-4 6 -4 20q-4 6 -11 10t-9 12q4 20 10 34t25 14t31 -15t28 -19q10 -18 23 -30t35 -32t38 -50q4 0 4 -2t3 -5 t7 -3q6 4 10 -10t11 -14t17 -8q58 -40 58 -64q0 -34 -42 -38q-8 -12 -25 -14t-28 -21t-19 -31q-12 -2 -17 -8t-15 -4q-6 -4 -11 -11t-9 -11l-4 -8q-8 -4 -14 -3t-18 -12t-26 -39t-32 -26t-24 2q-12 22 -12 38z" />
<glyph unicode="&#x2c6;" horiz-adv-x="600" d="M232 1676l-4 26q0 10 13 27t25 17t25 -12t31 -16q50 -76 70 -86l2 -8q0 -8 -4 -16q10 -6 22 -40q10 -6 16 -14q8 -12 29 -31t41 -46t20 -50t-26 -33t-48 -10h-12q-10 16 -16 34t-14 31t-19 20t-21 21t-25 29t-23 35h-4q-8 -2 -13 4t-20 6t-23 -22t-18 -38q-2 -12 -10 -15 t-16 -7q-2 -14 -13 -27t-16 -25t-13 -35t-12 -27h-8q-8 -10 -10 -12t-19 -2t-16 5t-5 12t-11 10t-5 25t22 54l12 6q6 6 11 15t15 15q0 10 7 17t15 29l8 4q10 12 14 27t15 33t21 29t10 41z" />
<glyph unicode="&#x2da;" horiz-adv-x="466" d="M84 1518l2 18q0 6 -4 14q2 10 5 18t6 17l7 21q4 18 14 23t10 10t6 9q14 18 39 30t41 22h10q124 -42 144 -86q8 -16 10 -32t12 -32q-6 -12 -16 -16t-14 -17t-5 -31t-5 -34q-6 -4 -10 -9t-14 -5q0 -16 -10 -24t-22 -18q-6 2 -16 2l-54 -4q-24 0 -44 6q-16 20 -36 34t-38 30 q-18 44 -18 54zM172 1558l-4 -22q0 -12 24 -46t40 -34q10 6 22 5t24 3q2 8 12 12q2 16 19 43t17 46t-22 33q-4 4 -17 4t-21 4q-8 12 -13 12t-41 -4q-40 0 -44 -16q6 -4 6 -13t-6 -15z" />
<glyph unicode="&#x2dc;" horiz-adv-x="904" d="M40 1424l12 46q-2 16 6 24t12 13t4 11t10 4q4 8 3 12t5 12q10 4 19 12t20 15t23 10t14 19q4 -4 7 -4t30 13t107 13t98 -8t24 -13t19 -10t29 -9t39 -14t36 -19t47 -9t44 18q26 2 46 31t18 53q18 6 22 24q20 -2 29 -15t17 -29q-4 -14 -8 -22t-4 -26q-10 -10 -22 -20 t-16 -26h-8q-10 0 -13 -7t-7 -15q-12 -4 -16 -4t-12 4q-2 -4 -8 -5t-13 -6t-14 -12t-17 -10t-21 -2t-21 1l-16 -4q-18 0 -28 -8q-28 8 -58 4q-2 8 -13 7t-7 9q-24 2 -43 15t-39 19l-16 -4q-16 0 -21 8t-15 14q-18 -2 -27 9t-19 11l-20 -8q-10 6 -18 5t-18 3q-6 -4 -11 -12 t-11 -8t-10 4q-18 -20 -64 -56l4 -4q0 -6 -5 -8t-3 -10q-4 -4 -8 -11t-10 -9v-6q0 -10 -7 -15t-5 -19l-22 -8q-14 0 -22 12t-8 20z" />
<glyph unicode="&#x2000;" horiz-adv-x="940" />
<glyph unicode="&#x2001;" horiz-adv-x="1880" />
<glyph unicode="&#x2002;" horiz-adv-x="940" />
<glyph unicode="&#x2003;" horiz-adv-x="1880" />
<glyph unicode="&#x2004;" horiz-adv-x="626" />
<glyph unicode="&#x2005;" horiz-adv-x="470" />
<glyph unicode="&#x2006;" horiz-adv-x="313" />
<glyph unicode="&#x2007;" horiz-adv-x="313" />
<glyph unicode="&#x2008;" horiz-adv-x="235" />
<glyph unicode="&#x2009;" horiz-adv-x="376" />
<glyph unicode="&#x200a;" horiz-adv-x="104" />
<glyph unicode="&#x2010;" d="M520 582l36 8q16 0 56 16q14 -8 24 -15t10 -25v-6q-10 -10 -19 -9t-19 -9h-6l-18 4l-12 -4l-6 4q-22 0 -39 -11t-26 -11t-35 4l-44 -12l-36 4l-44 -8q-12 0 -24 8q-8 -4 -17 -5t-13 -11q-4 0 -34 12q-28 -12 -114 -24q-6 6 -6 15t6 33q16 0 28 8t23 8t19 -6q18 24 158 24 q12 0 18 -6q8 0 15 5t17 4t18 -1z" />
<glyph unicode="&#x2011;" d="M520 582l36 8q16 0 56 16q14 -8 24 -15t10 -25v-6q-10 -10 -19 -9t-19 -9h-6l-18 4l-12 -4l-6 4q-22 0 -39 -11t-26 -11t-35 4l-44 -12l-36 4l-44 -8q-12 0 -24 8q-8 -4 -17 -5t-13 -11q-4 0 -34 12q-28 -12 -114 -24q-6 6 -6 15t6 33q16 0 28 8t23 8t19 -6q18 24 158 24 q12 0 18 -6q8 0 15 5t17 4t18 -1z" />
<glyph unicode="&#x2012;" d="M520 582l36 8q16 0 56 16q14 -8 24 -15t10 -25v-6q-10 -10 -19 -9t-19 -9h-6l-18 4l-12 -4l-6 4q-22 0 -39 -11t-26 -11t-35 4l-44 -12l-36 4l-44 -8q-12 0 -24 8q-8 -4 -17 -5t-13 -11q-4 0 -34 12q-28 -12 -114 -24q-6 6 -6 15t6 33q16 0 28 8t23 8t19 -6q18 24 158 24 q12 0 18 -6q8 0 15 5t17 4t18 -1z" />
<glyph unicode="&#x2013;" horiz-adv-x="1146" d="M810 568l48 -4q16 0 32 5t40 8t49 3t50 -24t25 -41t-10 -16t-10 -9q-10 -4 -14 -10t-16 -6l-26 8l-40 -6l-70 4q-22 0 -48 -16q-64 14 -78 14l-34 -10l-28 6l-36 -10l-20 4l-18 -8q-52 0 -63 12t-29 12t-28 6q-16 -4 -25 -16t-41 -12l-106 12l-30 -6l-92 10l-34 -2 q-34 0 -34 44q0 18 20 25t30 11t16 4l40 -8l46 4h122l154 4l64 -4l90 8h14v-2q0 -2 2 -2l12 6l34 -6z" />
<glyph unicode="&#x2014;" horiz-adv-x="1368" d="M684 540l-28 -12q-6 6 -37 12t-33 6l-36 -10l-44 4l-52 -6l-18 2q-10 0 -14 -6t-16 -6h-36q-20 0 -36 8q-2 -4 -17 -4t-27 -6l-20 -10q-14 8 -28 8t-62 -12q-16 6 -29 6t-61 -6l-12 38q0 26 44 34q10 2 19 1t21 -1t17 4t29 4l62 8q18 0 26 -4q6 2 23 9t35 4t32 -3l48 8 l30 -4l36 8l22 -4q42 0 81 8t64 8t38 -5t25 -7t25 -1t31 1l134 -10q10 -2 20 -1t22 1l36 2h26q62 0 92 -10q2 2 32 2l60 10q20 0 28 -9t22 -11q2 -6 2 -12v-14q0 -20 -6 -34q-12 -4 -17 -4t-9 4q-8 -2 -11 -9t-15 -7l-64 16l-38 -8q-10 0 -14 6t-13 6t-20 -8t-27 -8l-12 4 l-26 -8l-74 12l-24 -8q-4 0 -18 4q-34 12 -78 12h-56q-48 8 -54 8z" />
<glyph unicode="&#x2018;" horiz-adv-x="396" d="M216 1302l-6 -26q0 -6 4 -10l-14 -10q-4 -32 -4 -59t10 -43q16 4 32 12t32 6h4q10 -10 20 -19t10 -36t-14 -44t-16 -31q-26 -6 -42 -28q-2 2 -8 2t-15 -8t-32 -8t-43 4q-2 14 -10 21t-18 17q-2 40 -8 78t-6 70t6 50q16 52 13 71t8 37t22 61t27 53q16 30 48 68 q34 18 58 34q26 -8 38 -34q-2 -12 -14 -16t-24 -14q-16 -16 -42 -52v-6q0 -26 -9 -50t-9 -50z" />
<glyph unicode="&#x2019;" horiz-adv-x="406" d="M212 1552l44 8q20 0 29 -21t25 -35l-2 -6q0 -48 11 -63t11 -23l-6 -20l4 -48v-24q0 -14 -5 -20t-9 -15t-7 -20t-9 -21l-8 -4v-10q-2 -4 -6 -4q-8 0 -8 -10q2 -4 -6 -10t-11 -13t-9 -13l-16 -16q-10 -10 -22 -31t-28 -35t-50 -14l-8 2q-2 8 -4 14t-2 19t16 27t26 30 q8 6 11 15t7 17q6 6 13 10t15 19t15 54t7 67t-10 48q-28 0 -48 -16t-40 -16t-26 2q-16 16 -16 68v30q10 6 17 19t15 15t13 5t16 8t24 13t31 18h6z" />
<glyph unicode="&#x201a;" horiz-adv-x="418" d="M318 56l-2 -48q-4 -54 -17 -70t-13 -32q-18 -10 -22 -44q-40 -40 -44 -66q-18 -14 -34 -32t-42 -18l-16 2q-8 8 -8 34l2 18h2q4 0 3 4t-1 6v2q0 2 1 2t1 2q4 4 8 4t12 7t13 19t19 16v2q0 12 6 17t10 14t2 18t2 19l8 8q10 36 10 66t-14 54q-16 -2 -28 -8t-32 -6t-27 9 t-23 13q-8 14 -8 34t13 40t25 38q16 4 32 10t31 9t21 13t38 10h2q26 -4 48 -41t22 -125z" />
<glyph unicode="&#x201c;" horiz-adv-x="684" d="M480 1300l-12 -32l2 -18q0 -10 -10 -16q2 -6 2 -18l-2 -42q0 -8 4 -26h6q14 -2 24 6t20 8l28 -4h2q4 4 9 4t17 -13t20 -17l2 -28q0 -2 -6 -14q0 -12 -20 -12q-4 -4 -4 -12t-4 -12q-12 -2 -20 -8t-26 -17t-43 -11t-35 16t-22 12q0 22 -30 48q-2 18 -10 33t-8 41l2 78 q0 6 4 6t8 4q-4 8 -4 21t12 25l-2 12l2 2q2 4 5 7t9 10t9 23t7 23t13 11t14 10t4 10t1 6l8 4l4 12l8 4l4 12q12 14 21 29t24 32t61 17q0 -10 8 -9t8 -13t-16 -14q-2 -16 -12 -25t-8 -29q-28 -14 -28 -28t-7 -19t-13 -18t-18 -17q0 -18 -12 -24q-2 -6 -1 -13t1 -17zM74 1236 l28 106q6 10 17 21t11 25q12 4 18 20q8 24 16 32q8 4 8 13t12 15t17 10t8 13t7 13t22 13t27 9t14 -10t13 -16q-12 -44 -8 -56q-10 -8 -21 -11t-21 -13t-17 -33t-14 -32t-9 -15t-8 -6q-22 -62 -26 -130l36 10q12 -6 20 -2t16 -12q4 -4 10 -3t9 -2t4 -11t13 -4v-6 q-2 -10 2 -17t6 -17q-10 -6 -14 -15t-12 -16t-13 -6t-9 -21q-4 2 -15 2t-21 -11t-27 -11t-27 13t-28 15q-14 24 -23 35t-13 24t-4 65z" />
<glyph unicode="&#x201d;" horiz-adv-x="774" d="M164 1530l70 12q42 0 68 -46l4 -14q24 -22 23 -50t2 -40t6 -19t3 -16t-3 -17t-5 -20l-4 -38q0 -4 -5 -14t-11 -23t-10 -24t-29 -42t-39 -73q-4 -6 -14 -6t-12 -10q-4 2 -12 2l-50 -10h-2q-4 12 -4 22t12 22t23 28t19 32t22 28l-2 8q0 10 8 16t8 14l-4 8q0 4 9 26t9 42 t-6 36l-6 2q-18 0 -29 -10t-38 -10t-41 6t-33 28t-19 37t6 26t10 23q46 22 66 64h10zM496 1388l-22 2q-6 0 -10 -2q-2 14 -13 23t-11 24t7 28t3 27q10 14 24 24t24 24q28 2 74 30q22 -4 41 -2t41 -6q6 -10 13 -9t14 -3t17 -20t10 -26l-12 -82l4 -48q0 -24 -13 -46t-15 -29 t-5 -11t-6 -4t-8 -5t-3 -12t-4 -13q-8 -2 -9 -9t-11 -3q-4 -14 -10 -25t-10 -23q-4 -2 -8 -5t-10 -3v-4q0 -6 -6 -10q-10 -6 -17 -20t-30 -24t-31 -10h-4q-10 0 -12 7t-12 9q6 10 6 19t6 21t25 28t23 26v8q20 30 34 56t25 45t11 55t-4 42h-4q-6 0 -10 -6t-9 -10t-13 -4 t-10 -5t-6 -5l-12 2q-10 0 -20 -8t-22 -8z" />
<glyph unicode="&#x201e;" horiz-adv-x="762" d="M576 192l28 8q16 0 24 -7t22 -13q-2 -10 4 -21t6 -23t-4 -15t-6 -13q-2 -12 -9 -83t-11 -81l-8 -8q-2 -4 -1 -10t-3 -14t-7 -18t-9 -21t-16 -18t-20 -17q-4 -8 -5 -16t-5 -18q-26 -6 -44 -23t-44 -25q-18 8 -18 29t21 39t31 30l34 68l16 46q2 14 2 29t-1 25t-1 22 q-16 -4 -28 -10q-16 -8 -54 -8h-32q-6 0 -12 -2q-18 14 -18 36t12 37t19 27t8 19t7 11l48 20q14 4 32 5t22 21zM290 104l14 -64q0 -20 -6 -39t-10 -39l-4 -30q-4 -8 -8 -13t-8 -14t-4 -17t-2 -18q-6 -4 -16 -4q-10 -28 -34 -50h-6q-4 -4 -2 -8t-2 -8t-12 -4t-12 -9t-12 -5 q-10 -12 -29 -12t-19 25t16 33v6q14 16 27 35t25 29q4 6 2 12t1 11t7 8t6 7l12 80q0 12 -14 16q-14 0 -30 -14t-35 -14t-35 4q-24 36 -24 49t3 20t13 17t23 20t25 20t24 16q10 10 29 12t27 16q30 -2 43 -15t29 -33z" />
<glyph unicode="&#x2022;" horiz-adv-x="606" d="M412 740l6 -28q0 -10 10 -26t10 -55t-32 -67h-24q-28 6 -34 -12q-20 10 -41 10t-31 -2q-12 10 -25 18t-23 22q-16 2 -27 12t-27 14q2 2 2 5t-9 14t-9 32t6 31q0 10 24 53t40 59q36 22 83 22t79 -26q4 -10 4 -18v-18q10 -26 18 -34v-6z" />
<glyph unicode="&#x2026;" horiz-adv-x="1086" d="M164 82l-10 -4q-28 0 -41 22t-13 40t2 24q4 8 23 44t35 40t20 10h14q26 -20 54 -28q4 -12 14 -18l22 -10q6 -16 6 -45t-34 -45v-8q-4 -4 -11 -7t-9 -9q-16 0 -33 -6t-33 -4h-4q-2 0 -2 2v2zM502 78q-52 0 -52 70q0 18 21 57t37 43t20 10h14q26 -20 54 -28q4 -12 15 -17 t21 -11q6 -16 6 -45t-34 -45v-8q-4 -4 -11 -7t-9 -9q-16 0 -32 -6t-34 -4h-4q-2 0 -2 2v2zM850 78q-52 0 -52 70q0 18 21 57t38 43t21 10h12q26 -20 54 -28q4 -12 15 -17t21 -11q6 -16 6 -45t-34 -45v-8q-4 -4 -11 -7t-9 -9q-16 0 -32 -6t-34 -4h-4q-2 0 -2 2v2z" />
<glyph unicode="&#x202f;" horiz-adv-x="376" />
<glyph unicode="&#x2039;" horiz-adv-x="536" d="M376 662q24 0 24 -42q0 -24 -58 -70q-16 -36 -50 -61t-52 -59q-54 -34 -54 -64q0 -10 22 -23t28 -23t12 -14t9 -3t11 -9t21 -14t23 -12t24 -22t26 -21t22 -10t14 -7q12 -30 12 -54t-16 -22q-6 2 -16 2t-18 -8q-10 8 -24 12q-22 6 -33 22t-25 22t-22 18q-16 24 -28 21 t-42 30t-30 37q-10 4 -22 9t-26 7q-8 12 -16 23t-8 21t6 33t19 28t11 9t0 8q4 2 7 1t9 4t11 15t12 18t15 12t16 11t17 21t25 16q10 16 25 32t32 39t33 38t50 29h4z" />
<glyph unicode="&#x203a;" horiz-adv-x="578" d="M276 468q0 12 -6 15t-2 13h-6q-10 0 -15 6t-14 13t-21 12t-20 13t-20 10t-28 18t-16 32t6 26q24 12 34 12q34 0 111 -58t95 -86t50 -38q20 -26 52 -46q2 -14 12 -21t12 -23q-10 -16 -17 -25t-29 -5q-2 -4 -12 -11t-22 -16t-22 -17t-12 -8q-4 -8 -33 -26t-39 -20 q-6 -10 -13 -19t-13 -19q-8 -2 -13 -6t-15 -4q-8 -14 -20 -22t-20 -20q-16 -8 -31 -16t-33 -8l-14 2q-4 10 -4 14l4 34q16 12 33 27t30 25t22 15t17 12t14 16t12 14t12 5t18 8t32 24t33 26t21 16t8 19t-15 11t-23 4q0 4 -9 5t-13 5l-4 12q-8 10 -17 17t-15 14t-6 10t-16 9z " />
<glyph unicode="&#x205f;" horiz-adv-x="470" />
<glyph unicode="&#x20ac;" horiz-adv-x="1364" d="M82 924l18 10l22 -4l32 8q40 -8 62 -8h44l20 4l48 -8q6 0 10 2q4 10 12 18t12 21t17 34t13 33q34 18 42 56q2 0 10 8l16 18q24 22 24 26q6 2 6 5t2 9l6 2q4 10 20 24t18 18q14 4 23 13t27 17t20 18q12 -4 17 4t10 8t7 -1t6 1l2 6q16 4 27 6t21 12q26 0 54 16q14 -6 36 6 q12 2 29 1t26 4t10 6t13 1l38 -6l36 2l22 -4q4 0 9 1t9 1q-6 -6 2 -6q16 0 24 -10q34 4 62 -20l46 -36q18 -12 38 -16q4 10 6 24t8 24q12 28 29 28t25 -10t8 -19t-4 -17q2 -4 2 -17t-8 -33q-4 -22 -6 -44t-4 -42q4 -8 4 -30t12 -34q-6 -8 -18 -32q-16 -10 -26 -10t-22 12 q-16 20 -13 27t0 22t-7 21t-4 12v6q-12 8 -18 14q4 38 -22 54q-12 8 -20 13t-8 11l-24 6q-4 10 -13 10t-11 10l-6 2l-16 -4h-2l-20 16l-14 -2q-10 0 -16 10l-4 -4l-6 4l-30 -8l-42 14q-22 0 -38 -14q-46 0 -72 -20q-22 2 -34 -3t-18 -5q-44 0 -104 -54q-42 0 -42 -11t-5 -15 t-12 -6t-13 -6q-10 -30 -30 -40q-6 -12 -10 -24q-6 0 -8 -6t-8 -8q0 -16 -7 -25t-7 -23v-4q-8 -2 -10 -10t-8 -10q6 -14 -10 -30l-2 -12l14 2l20 -4l20 4l72 -8q10 0 19 1t17 -1t15 -5t15 -3l48 4q204 0 242 4q12 -10 27 -22t15 -25t-9 -19t-15 -12q-18 6 -32 6l-24 -2 l-32 8q-12 0 -13 -6t-11 -6l-20 2l-48 -4l-30 6q-8 0 -10 -5t-10 -7q-8 4 -16 4l-44 -4q-16 0 -30 7t-39 7t-45 -18q-14 14 -34 10t-36 4q-16 -6 -52 -10q-4 -12 -8 -16q4 -4 4 -8l-4 -22l6 -30l-4 -26q0 -30 6 -54l8 -22l-4 -8h12l84 4l32 -2h30l76 10l18 -4l88 8l16 4 q8 -4 12 -4l28 4q16 0 33 -18t17 -34l-2 -18q-12 -4 -25 -3t-21 -9q-16 4 -34 4t-36 10q-56 -12 -76 -26q-16 2 -26 2t-26 -10q-8 8 -20 8l-32 -4l-114 14h-18q4 -8 4 -14t1 -17t8 -13t7 -10l-4 -14q0 -8 15 -41t33 -56t34 -43t32 -36t30 -36q6 0 20 -9t43 -27t33 -26 q14 -2 22 -9t16 -7l14 4h2q4 -6 26 -13t33 -7t27 -4t34 -2h6q2 2 8 2l10 -2l28 8l50 -2q6 0 25 4t19 10v2q30 2 54 18l18 10q2 2 2 6t5 4t9 2q8 8 38 34t36 26q4 8 8 14t6 16q22 6 29 25t25 27q36 -14 36 -36q0 -12 -13 -18t-18 -14t-8 -15t-8 -11t-12 -8t-7 -16q-8 4 -11 0 t-7 -6q-6 -10 -12 -15t-8 -15q-8 -4 -13 -9t-15 -7q-6 -12 -18 -20t-18 -24q-12 0 -19 -6t-11 -6l-26 -6h-6l-24 -20l-34 -8l-22 8q-56 0 -72 -6q-34 -16 -62 -16l-44 6q-12 0 -20 -6q-12 6 -27 6t-21 5t-14 5h-6l-6 6q-30 10 -57 20t-57 16q-6 16 -40 28l-10 16q0 2 -4 6 q-26 6 -56 48q-8 4 -13 6t-11 8l-24 26q-20 18 -22 22l-20 12q-16 30 -24 58t-18 58q-6 10 -11 17t-8 13t-7 29t-4 25v16l-4 2l-34 -8l-38 8l-24 -8h-2q2 8 -4 6t-10 1t-4 8t-4 5h-4l-44 -4h-6q-26 20 -26 37t4 29q18 12 54 12l98 -8h40l2 42q0 44 6 67t18 65v4 q-12 2 -22 10q-22 -4 -46 -4h-46q-10 0 -14 6t-11 6t-7 -4l-18 4q-8 0 -38 -12q-4 10 -17 12t-23 4q-2 8 -2 26t10 34q2 -2 8 -2z" />
<glyph unicode="&#x25fc;" horiz-adv-x="1130" d="M0 1130h1130v-1130h-1130v1130z" />
</font>
</defs>
</svg>
